<?xml version="1.0" encoding="utf-8"?>
<!-- Generator: Adobe Illustrator 22.0.1, SVG Export Plug-In . SVG Version: 6.00 Build 0)  -->
<svg version="1.1" id="Calque_1" xmlns="http://www.w3.org/2000/svg" xmlns:xlink="http://www.w3.org/1999/xlink" x="0px" y="0px"
	 viewBox="0 0 65.2 65.2" style="enable-background:new 0 0 65.2 65.2;" xml:space="preserve">
<style type="text/css">
	.st0{fill:#C6D6F0;}
	.st1{enable-background:new    ;}
	.st2{fill:#020203;}
</style>
<path class="st0" d="M53,65.1H12.4c-6.6,0-12-5.4-12-12V12.5c0-6.6,5.4-12,12-12H53c6.6,0,12,5.4,12,12v40.6
	C65,59.7,59.6,65.1,53,65.1z"/>
<g>
	<g class="st1">
		<path class="st2" d="M28.3,21.8h-6.6c0-3.2,1.1-5.9,3.3-8c2.2-2.1,5.2-3.2,8.9-3.2c2.4,0,4.4,0.4,6,1.3c1.7,0.9,3,2.1,4,3.8
			c1,1.6,1.5,3.4,1.5,5.2c0,1-0.2,2-0.5,2.9c-0.3,1-0.8,1.9-1.5,2.9c-0.4,0.6-1.4,1.6-2.9,3c-1.5,1.3-2.4,2.3-2.7,2.8
			c-0.4,0.5-0.7,1.3-0.9,2.2c-0.3,0.9-0.4,2.2-0.5,3.8h-6.8l0-1.1c0-2.2,0.4-4.3,1.2-6.1s2.1-3.6,4-5.2c1.8-1.6,2.8-2.6,3.2-3.2
			c0.4-0.6,0.6-1.3,0.6-2.1c0-1.1-0.4-2-1.3-2.7c-0.9-0.7-2.1-1.1-3.6-1.1c-1.5,0-2.8,0.5-3.8,1.4S28.3,20.3,28.3,21.8z M33.1,41.3
			c1.2,0,2.3,0.4,3.1,1.3c0.9,0.8,1.3,1.8,1.3,3s-0.4,2.2-1.3,3c-0.9,0.8-1.9,1.3-3.1,1.3s-2.2-0.4-3.1-1.3c-0.8-0.8-1.3-1.9-1.3-3
			s0.4-2.2,1.3-3C30.9,41.7,31.9,41.3,33.1,41.3z"/>
	</g>
</g>
</svg>
