<?xml version="1.0" encoding="utf-8"?>
<!-- Generator: Adobe Illustrator 22.0.1, SVG Export Plug-In . SVG Version: 6.00 Build 0)  -->
<svg version="1.1" id="Calque_1" xmlns="http://www.w3.org/2000/svg" xmlns:xlink="http://www.w3.org/1999/xlink" x="0px" y="0px"
	 viewBox="0 0 65.2 65.2" style="enable-background:new 0 0 65.2 65.2;" xml:space="preserve">
<style type="text/css">
	.st0{fill:#C5D6F0;}
	.st1{fill:#2B3037;}
</style>
<g>
	<path class="st0" d="M53,65.1H12.1c-6.6,0-12-5.4-12-12V12c0-6.6,5.4-12,12-12H53c6.6,0,12,5.4,12,12v41C65,59.7,59.6,65.1,53,65.1
		z"/>
	<g>
		<path class="st1" d="M60.5,35.1L38.7,49.6c-1.8,1.2-4.1-0.1-4.1-2.2v-29c0-2.1,2.3-3.4,4.1-2.2l21.7,14.5C62,31.7,62,34,60.5,35.1
			z"/>
		<path class="st1" d="M4.1,30.7l21.7-14.5c1.8-1.2,4.1,0.1,4.1,2.2v29c0,2.1-2.3,3.4-4.1,2.2L4.1,35.1C2.5,34,2.5,31.7,4.1,30.7z"
			/>
	</g>
</g>
</svg>
