<?xml version="1.0" encoding="utf-8"?>
<!-- Generator: Adobe Illustrator 22.0.1, SVG Export Plug-In . SVG Version: 6.00 Build 0)  -->
<svg version="1.1" id="Calque_1" xmlns="http://www.w3.org/2000/svg" xmlns:xlink="http://www.w3.org/1999/xlink" x="0px" y="0px"
	 viewBox="0 0 1281.4 219.2" style="enable-background:new 0 0 1281.4 219.2;" xml:space="preserve">
<style type="text/css">
	.st0{fill:#2E3272;}
</style>
<g>
	<g>
		<g>
			<path class="st0" d="M-0.9,219.2L-0.9,219.2c-1.4,0-2.6-0.9-2.6-2l0.5-93.4c0-1.1,1.1-2,2.6-2h21.3c1.5,0,2.8,1,2.8,2.2v63.6
				c0,1.1-1,2.1-2.3,2.2c-1.5,0.1-2.8-0.8-2.8-2V128c0-1.2-1.2-2.2-2.8-2.2H4.9c-1.5,0-2.8,1-2.8,2.2l-0.5,89.2
				C1.6,218.3,0.5,219.2-0.9,219.2z"/>
			<path class="st0" d="M50.5,201.8c-1.3-0.1-2.3-1.1-2.3-2.2v-36.5c0-1.2-1.2-2.2-2.8-2.2H21.3c-1.4,0-2.6-0.8-2.7-1.8
				c-0.1-1.2,1.1-2.2,2.5-2.2h29.4c1.5,0,2.8,1,2.8,2.2v40.7C53.3,201,52,201.9,50.5,201.8z"/>
			<path class="st0" d="M87.3,201.8H72.4c-1.5,0-2.8-1-2.8-2.2V128c0-1.2-1.2-2.2-2.8-2.2h-3.7c-1.5,0-2.8,1-2.8,2.2v13.4
				c0,1.2-1.2,2.2-2.8,2.2H41.2c-1.5,0-2.8,1-2.8,2.2v13c0,1.1-1,2.1-2.3,2.2c-1.5,0.1-2.8-0.8-2.8-2v-17.2c0-1.2,1.2-2.2,2.8-2.2
				h16.5c1.5,0,2.8-1,2.8-2.2v-13.4c0-1.2,1.2-2.2,2.8-2.2H72c1.5,0,2.8,1,2.8,2.2v71.7c0,1.2,1.2,2.2,2.8,2.2h4.7
				c1.5,0,2.8-1,2.8-2.2v-24.8c0-1.2,1.2-2.2,2.8-2.2h1.6c1.5,0,2.8-1,2.8-2.2v-53.9c0-1.2,1.2-2.2,2.8-2.2H117c1.5,0,2.8,1,2.8,2.2
				v65.2c0,1.2,1.2,2.2,2.8,2.2h8.8c1.4,0,2.6,0.8,2.7,1.8c0.1,1.2-1.1,2.2-2.6,2.2h-14.1c-1.5,0-2.8-1-2.8-2.2v-65.2
				c0-1.2-1.2-2.2-2.8-2.2H100c-1.5,0-2.8,1-2.8,2.2v53.9c0,1.2-1.2,2.2-2.8,2.2h-1.6c-1.5,0-2.8,1-2.8,2.2v24.8
				C90.1,200.8,88.8,201.8,87.3,201.8z"/>
			<path class="st0" d="M161.2,190.5h-14.1c-1.5,0-2.8-1-2.8-2.2v-36.9c0-1.2-1.2-2.2-2.8-2.2h-24.2c-1.4,0-2.6-0.8-2.7-1.8
				c-0.1-1.2,1.1-2.2,2.6-2.2h29.5c1.5,0,2.8,1,2.8,2.2v36.9c0,1.2,1.2,2.2,2.8,2.2h8.8c1.4,0,2.6,0.8,2.7,1.8
				C163.8,189.5,162.6,190.5,161.2,190.5z"/>
			<path class="st0" d="M175.3,201.8h-14.9c-1.4,0-2.6-0.8-2.7-1.8c-0.1-1.2,1.1-2.2,2.6-2.2h10c1.5,0,2.8-1,2.8-2.2v-55.5
				c0-1.2-1.2-2.2-2.8-2.2h-33.3c-1.5,0-2.8,1-2.8,2.2v7.1c0,1.1-1,2.1-2.3,2.2c-1.5,0.1-2.8-0.8-2.8-2V136c0-1.2,1.2-2.2,2.8-2.2
				h43.6c1.5,0,2.8,1,2.8,2.2v63.6C178,200.8,176.8,201.8,175.3,201.8z"/>
			<path class="st0" d="M190.6,189.7c-1.4-0.1-2.3-1.1-2.3-2.2V169c0-1.2-1.2-2.2-2.8-2.2H176c-1.4,0-2.6-0.8-2.7-1.8
				c-0.1-1.2,1.1-2.2,2.6-2.2h14.8c1.5,0,2.8,1,2.8,2.2v22.7C193.4,188.8,192.1,189.8,190.6,189.7z"/>
			<path class="st0" d="M250.1,190.5H235c-1.5,0-2.8-1-2.8-2.2v-66c0-1.2-1.2-2.2-2.8-2.2h-4.7c-1.5,0-2.8,1-2.8,2.2v53.9
				c0,1.2-1.2,2.2-2.8,2.2h-13.9c-1.5,0-2.8-1-2.8-2.2v-59.5c0-1.2-1.2-2.2-2.8-2.2h-26.1c-1.5,0-2.8,1-2.8,2.2v18.9
				c0,1.1-1,2.1-2.3,2.2c-1.5,0.1-2.8-0.8-2.8-2v-23.1c0-1.2,1.2-2.2,2.8-2.2h36.3c1.5,0,2.8,1,2.8,2.2v59.5c0,1.2,1.2,2.2,2.8,2.2
				h3.7c1.5,0,2.8-1,2.8-2.2v-53.9c0-1.2,1.2-2.2,2.8-2.2h14.9c1.5,0,2.8,1,2.8,2.2v66c0,1.2,1.2,2.2,2.8,2.2h9.8
				c1.4,0,2.6,0.8,2.7,1.8C252.8,189.5,251.6,190.5,250.1,190.5z"/>
			<path class="st0" d="M292.9,207.5H279c-1.5,0-2.8-1-2.8-2.2v-42.2c0-1.2-1.2-2.2-2.8-2.2h-38.6c-1.4,0-2.6-0.8-2.7-1.8
				c-0.1-1.2,1.1-2.2,2.6-2.2h43.9c1.5,0,2.8,1,2.8,2.2v42.1c0,1.2,1.2,2.2,2.8,2.2h3.7c1.5,0,2.8-1,2.8-2.2v-94.3
				c0-1.2,1.2-2.2,2.8-2.2h14.9c1.5,0,2.8,1,2.8,2.2V143c0,1.2,1.2,2.2,2.8,2.2h16c1.5,0,2.8,1,2.8,2.2v7.8c0,1.2,1.2,2.2,2.8,2.2
				h11.9c1.5,0,2.8-1,2.8-2.2v-36.9c0-1.2,1.2-2.2,2.8-2.2h22.1c1.5,0,2.8,1,2.8,2.2V194c0,1.2-1.2,2.2-2.8,2.2h-14.9
				c-1.5,0-2.8-1-2.8-2.2v-13.4c0-1.2-1.2-2.2-2.8-2.2h-24.1c-1.5,0-2.8-1-2.8-2.2v-24.8c0-1.2-1.2-2.2-2.8-2.2h-16
				c-1.5,0-2.8-1-2.8-2.2V111c0-1.2-1.2-2.2-2.8-2.2h-4.7c-1.5,0-2.8,1-2.8,2.2v94.3C295.6,206.5,294.4,207.5,292.9,207.5z
				 M364.9,192.1h4.7c1.5,0,2.8-1,2.8-2.2v-67.6c0-1.2-1.2-2.2-2.8-2.2h-11.9c-1.5,0-2.8,1-2.8,2.2v36.9c0,1.2-1.2,2.2-2.8,2.2h-17
				c-1.5,0-2.8,1-2.8,2.2v8.6c0,1.2,1.2,2.2,2.8,2.2h24.1c1.5,0,2.8,1,2.8,2.2v13.4C362.1,191.1,363.3,192.1,364.9,192.1z"/>
			<path class="st0" d="M426,207.5h-14.1c-1.5,0-2.8-1-2.8-2.2v-24.8c0-1.2-1.2-2.2-2.8-2.2h-2.7c-1.5,0-2.8-1-2.8-2.2v-71.7
				c0-1.2-1.2-2.2-2.8-2.2h-3.7c-1.5,0-2.8,1-2.8,2.2v54.3c0,1.2-1.2,2.2-2.8,2.2h-13.9c-1.4,0-2.6-0.8-2.7-1.8
				c-0.1-1.2,1.1-2.2,2.5-2.2h9c1.5,0,2.8-1,2.8-2.2v-54.3c0-1.2,1.2-2.2,2.8-2.2h13.9c1.5,0,2.8,1,2.8,2.2v71.7
				c0,1.2,1.2,2.2,2.8,2.2h2.7c1.5,0,2.8,1,2.8,2.2v24.8c0,1.2,1.2,2.2,2.8,2.2h8.8c1.4,0,2.6,0.8,2.7,1.8
				C428.7,206.5,427.5,207.5,426,207.5z"/>
		</g>
		<g>
			<path class="st0" d="M849.5,219.2c-1.4,0-2.5-0.9-2.6-2l-0.5-89.2c0-1.2-1.2-2.2-2.8-2.2h-10.9c-1.5,0-2.8,1-2.8,2.2v59.6
				c0,1.1-1,2.1-2.3,2.2c-1.5,0.1-2.8-0.8-2.8-2v-63.8c0-1.2,1.2-2.2,2.8-2.2H849c1.4,0,2.5,0.9,2.6,2l0.5,93.4
				C852,218.3,850.9,219.2,849.5,219.2C849.5,219.2,849.5,219.2,849.5,219.2z"/>
			<path class="st0" d="M797.6,201.8c-1.3-0.1-2.3-1.1-2.3-2.2v-40.5c0-1.2,1.2-2.2,2.8-2.2h29.2c1.4,0,2.6,0.8,2.7,1.8
				c0.1,1.2-1.1,2.2-2.5,2.2h-24.2c-1.5,0-2.8,1-2.8,2.2v36.6C800.4,201,799.1,201.9,797.6,201.8z"/>
			<path class="st0" d="M776.2,201.8h-14.9c-1.5,0-2.8-1-2.8-2.2v-24.8c0-1.2-1.2-2.2-2.8-2.2h-1.6c-1.5,0-2.8-1-2.8-2.2v-53.9
				c0-1.2-1.2-2.2-2.8-2.2h-11.9c-1.5,0-2.8,1-2.8,2.2v65.2c0,1.2-1.2,2.2-2.8,2.2h-13.9c-1.4,0-2.6-0.8-2.7-1.8
				c-0.1-1.2,1.1-2.2,2.5-2.2h9c1.5,0,2.8-1,2.8-2.2v-65.2c0-1.2,1.2-2.2,2.8-2.2h22.1c1.5,0,2.8,1,2.8,2.2v53.9
				c0,1.2,1.2,2.2,2.8,2.2h1.6c1.5,0,2.8,1,2.8,2.2v24.8c0,1.2,1.2,2.2,2.8,2.2h4.7c1.5,0,2.8-1,2.8-2.2v-71.7
				c0-1.2,1.2-2.2,2.8-2.2h13.9c1.5,0,2.8,1,2.8,2.2v13.4c0,1.2,1.2,2.2,2.8,2.2h16.5c1.5,0,2.8,1,2.8,2.2v17.1c0,1.1-1,2.1-2.3,2.2
				c-1.5,0.1-2.8-0.8-2.8-2v-13.2c0-1.2-1.2-2.2-2.8-2.2h-16.5c-1.5,0-2.8-1-2.8-2.2V128c0-1.2-1.2-2.2-2.8-2.2h-3.7
				c-1.5,0-2.8,1-2.8,2.2v71.7C778.9,200.8,777.7,201.8,776.2,201.8z"/>
			<path class="st0" d="M701.5,190.5h-13.9c-1.4,0-2.6-0.8-2.7-1.8c-0.1-1.2,1.1-2.2,2.5-2.2h9c1.5,0,2.8-1,2.8-2.2v-36.9
				c0-1.2,1.2-2.2,2.8-2.2h29.3c1.4,0,2.6,0.8,2.7,1.8c0.1,1.2-1.1,2.2-2.5,2.2H707c-1.5,0-2.8,1-2.8,2.2v36.9
				C704.3,189.5,703,190.5,701.5,190.5z"/>
			<path class="st0" d="M688.4,201.8h-15.1c-1.5,0-2.8-1-2.8-2.2V136c0-1.2,1.2-2.2,2.8-2.2h43.6c1.5,0,2.8,1,2.8,2.2v11.1
				c0,1.1-1,2.1-2.3,2.2c-1.5,0.1-2.8-0.8-2.8-2v-7.2c0-1.2-1.2-2.2-2.8-2.2h-33.3c-1.5,0-2.8,1-2.8,2.2v55.5c0,1.2,1.2,2.2,2.8,2.2
				h9.8c1.4,0,2.6,0.8,2.7,1.8C691.1,200.8,689.9,201.8,688.4,201.8z"/>
			<path class="st0" d="M657.5,189.7c-1.3-0.1-2.3-1.1-2.3-2.2v-22.6c0-1.2,1.2-2.2,2.8-2.2h14.7c1.4,0,2.6,0.8,2.7,1.8
				c0.1,1.2-1.1,2.2-2.5,2.2H663c-1.5,0-2.8,1-2.8,2.2v18.7C660.3,188.8,659,189.8,657.5,189.7z"/>
			<path class="st0" d="M613.5,190.5h-15c-1.4,0-2.6-0.8-2.7-1.8c-0.1-1.2,1.1-2.2,2.5-2.2h10c1.5,0,2.8-1,2.8-2.2v-66
				c0-1.2,1.2-2.2,2.8-2.2h14.9c1.5,0,2.8,1,2.8,2.2v53.9c0,1.2,1.2,2.2,2.8,2.2h3.7c1.5,0,2.8-1,2.8-2.2v-59.5
				c0-1.2,1.2-2.2,2.8-2.2h36.3c1.5,0,2.8,1,2.8,2.2v22.9c0,1.1-1,2.1-2.3,2.2c-1.5,0.1-2.8-0.8-2.8-2v-19c0-1.2-1.2-2.2-2.8-2.2
				h-26.1c-1.5,0-2.8,1-2.8,2.2v59.5c0,1.2-1.2,2.2-2.8,2.2h-13.9c-1.5,0-2.8-1-2.8-2.2v-53.9c0-1.2-1.2-2.2-2.8-2.2h-4.7
				c-1.5,0-2.8,1-2.8,2.2v66C616.3,189.5,615.1,190.5,613.5,190.5z"/>
			<path class="st0" d="M569.6,207.5h-13.9c-1.5,0-2.8-1-2.8-2.2V111c0-1.2-1.2-2.2-2.8-2.2h-4.7c-1.5,0-2.8,1-2.8,2.2V147
				c0,1.2-1.2,2.2-2.8,2.2h-16c-1.5,0-2.8,1-2.8,2.2v24.8c0,1.2-1.2,2.2-2.8,2.2h-24.1c-1.5,0-2.8,1-2.8,2.2v13.4
				c0,1.2-1.2,2.2-2.8,2.2h-14.9c-1.5,0-2.8-1-2.8-2.2v-75.7c0-1.2,1.2-2.2,2.8-2.2H496c1.5,0,2.8,1,2.8,2.2v36.9
				c0,1.2,1.2,2.2,2.8,2.2h11.9c1.5,0,2.8-1,2.8-2.2v-7.8c0-1.2,1.2-2.2,2.8-2.2h16c1.5,0,2.8-1,2.8-2.2v-36.1
				c0-1.2,1.2-2.2,2.8-2.2h14.9c1.5,0,2.8,1,2.8,2.2v94.3c0,1.2,1.2,2.2,2.8,2.2h3.7c1.5,0,2.8-1,2.8-2.2v-42.1
				c0-1.2,1.2-2.2,2.8-2.2h43.7c1.4,0,2.6,0.8,2.7,1.8c0.1,1.2-1.1,2.2-2.5,2.2h-38.8c-1.5,0-2.8,1-2.8,2.2v42.1
				C572.3,206.5,571.1,207.5,569.6,207.5z M479,192.1h4.7c1.5,0,2.8-1,2.8-2.2v-13.4c0-1.2,1.2-2.2,2.8-2.2h24.1
				c1.5,0,2.8-1,2.8-2.2v-8.6c0-1.2-1.2-2.2-2.8-2.2h-17c-1.5,0-2.8-1-2.8-2.2v-36.9c0-1.2-1.2-2.2-2.8-2.2H479
				c-1.5,0-2.8,1-2.8,2.2v67.6C476.2,191.1,477.5,192.1,479,192.1z"/>
			<path class="st0" d="M436.6,207.5h-23.1c-1.4,0-2.6-0.8-2.7-1.8c-0.1-1.2,1.1-2.2,2.5-2.2h18.2c1.5,0,2.8-1,2.8-2.2v-24.8
				c0-1.2,1.2-2.2,2.8-2.2h2.7c1.5,0,2.8-1,2.8-2.2v-71.7c0-1.2,1.2-2.2,2.8-2.2h13.9c1.5,0,2.8,1,2.8,2.2v54.3
				c0,1.2,1.2,2.2,2.8,2.2h8.8c1.4,0,2.6,0.8,2.7,1.8c0.1,1.2-1.1,2.2-2.5,2.2h-14.1c-1.5,0-2.8-1-2.8-2.2v-54.3
				c0-1.2-1.2-2.2-2.8-2.2h-3.7c-1.5,0-2.8,1-2.8,2.2v71.7c0,1.2-1.2,2.2-2.8,2.2h-2.7c-1.5,0-2.8,1-2.8,2.2v24.8
				C439.4,206.5,438.2,207.5,436.6,207.5z"/>
		</g>
		<g>
			<path class="st0" d="M1281,219.2c-1.4,0-2.6-0.9-2.6-2l-0.5-89.2c0-1.2-1.2-2.2-2.8-2.2h-10.9c-1.5,0-2.8,1-2.8,2.2v59.6
				c0,1.1-1,2.1-2.3,2.2c-1.5,0.1-2.8-0.8-2.8-2v-63.8c0-1.2,1.2-2.2,2.8-2.2h21.3c1.4,0,2.6,0.9,2.6,2l0.5,93.4
				C1283.6,218.3,1282.4,219.2,1281,219.2C1281,219.2,1281,219.2,1281,219.2z"/>
			<path class="st0" d="M1229.1,201.8c-1.3-0.1-2.3-1.1-2.3-2.2v-40.5c0-1.2,1.2-2.2,2.8-2.2h29.2c1.4,0,2.6,0.8,2.7,1.8
				c0.1,1.2-1.1,2.2-2.6,2.2h-24.2c-1.5,0-2.8,1-2.8,2.2v36.6C1231.9,201,1230.7,201.9,1229.1,201.8z"/>
			<path class="st0" d="M1207.7,201.8h-14.9c-1.5,0-2.8-1-2.8-2.2v-24.8c0-1.2-1.2-2.2-2.8-2.2h-1.6c-1.5,0-2.8-1-2.8-2.2v-53.9
				c0-1.2-1.2-2.2-2.8-2.2h-11.9c-1.5,0-2.8,1-2.8,2.2v65.2c0,1.2-1.2,2.2-2.8,2.2h-13.9c-1.4,0-2.6-0.8-2.7-1.8
				c-0.1-1.2,1.1-2.2,2.6-2.2h9c1.5,0,2.8-1,2.8-2.2v-65.2c0-1.2,1.2-2.2,2.8-2.2h22.1c1.5,0,2.8,1,2.8,2.2v53.9
				c0,1.2,1.2,2.2,2.8,2.2h1.6c1.5,0,2.8,1,2.8,2.2v24.8c0,1.2,1.2,2.2,2.8,2.2h4.7c1.5,0,2.8-1,2.8-2.2v-71.7
				c0-1.2,1.2-2.2,2.8-2.2h13.9c1.5,0,2.8,1,2.8,2.2v13.4c0,1.2,1.2,2.2,2.8,2.2h16.5c1.5,0,2.8,1,2.8,2.2v17.1c0,1.1-1,2.1-2.3,2.2
				c-1.5,0.1-2.8-0.8-2.8-2v-13.2c0-1.2-1.2-2.2-2.8-2.2h-16.5c-1.5,0-2.8-1-2.8-2.2V128c0-1.2-1.2-2.2-2.8-2.2h-3.7
				c-1.5,0-2.8,1-2.8,2.2v71.7C1210.4,200.8,1209.2,201.8,1207.7,201.8z"/>
			<path class="st0" d="M1133,190.5h-13.9c-1.4,0-2.6-0.8-2.7-1.8c-0.1-1.2,1.1-2.2,2.6-2.2h9c1.5,0,2.8-1,2.8-2.2v-36.9
				c0-1.2,1.2-2.2,2.8-2.2h29.3c1.4,0,2.6,0.8,2.7,1.8c0.1,1.2-1.1,2.2-2.6,2.2h-24.3c-1.5,0-2.8,1-2.8,2.2v36.9
				C1135.8,189.5,1134.6,190.5,1133,190.5z"/>
			<path class="st0" d="M1119.9,201.8h-15.1c-1.5,0-2.8-1-2.8-2.2V136c0-1.2,1.2-2.2,2.8-2.2h43.6c1.5,0,2.8,1,2.8,2.2v11.1
				c0,1.1-1,2.1-2.3,2.2c-1.5,0.1-2.8-0.8-2.8-2v-7.2c0-1.2-1.2-2.2-2.8-2.2h-33.3c-1.5,0-2.8,1-2.8,2.2v55.5c0,1.2,1.2,2.2,2.8,2.2
				h9.8c1.4,0,2.6,0.8,2.7,1.8C1122.6,200.8,1121.4,201.8,1119.9,201.8z"/>
			<path class="st0" d="M1089,189.7c-1.3-0.1-2.3-1.1-2.3-2.2v-22.6c0-1.2,1.2-2.2,2.8-2.2h14.7c1.4,0,2.6,0.8,2.7,1.8
				c0.1,1.2-1.1,2.2-2.6,2.2h-9.7c-1.5,0-2.8,1-2.8,2.2v18.7C1091.8,188.8,1090.6,189.8,1089,189.7z"/>
			<path class="st0" d="M1045.1,190.5h-14.9c-1.4,0-2.6-0.8-2.7-1.8c-0.1-1.2,1.1-2.2,2.6-2.2h10c1.5,0,2.8-1,2.8-2.2v-66
				c0-1.2,1.2-2.2,2.8-2.2h14.9c1.5,0,2.8,1,2.8,2.2v53.9c0,1.2,1.2,2.2,2.8,2.2h3.7c1.5,0,2.8-1,2.8-2.2v-59.5
				c0-1.2,1.2-2.2,2.8-2.2h36.3c1.5,0,2.8,1,2.8,2.2v22.9c0,1.1-1,2.1-2.3,2.2c-1.5,0.1-2.8-0.8-2.8-2v-19c0-1.2-1.2-2.2-2.8-2.2
				h-26.1c-1.5,0-2.8,1-2.8,2.2v59.5c0,1.2-1.2,2.2-2.8,2.2h-13.9c-1.5,0-2.8-1-2.8-2.2v-53.9c0-1.2-1.2-2.2-2.8-2.2h-4.7
				c-1.5,0-2.8,1-2.8,2.2v66C1047.8,189.5,1046.6,190.5,1045.1,190.5z"/>
			<path class="st0" d="M1001.1,207.5h-13.9c-1.5,0-2.8-1-2.8-2.2V111c0-1.2-1.2-2.2-2.8-2.2H977c-1.5,0-2.8,1-2.8,2.2V147
				c0,1.2-1.2,2.2-2.8,2.2h-16c-1.5,0-2.8,1-2.8,2.2v24.8c0,1.2-1.2,2.2-2.8,2.2h-24.1c-1.5,0-2.8,1-2.8,2.2v13.4
				c0,1.2-1.2,2.2-2.8,2.2h-14.9c-1.5,0-2.8-1-2.8-2.2v-75.7c0-1.2,1.2-2.2,2.8-2.2h22.1c1.5,0,2.8,1,2.8,2.2v36.9
				c0,1.2,1.2,2.2,2.8,2.2h11.9c1.5,0,2.8-1,2.8-2.2v-7.8c0-1.2,1.2-2.2,2.8-2.2h16c1.5,0,2.8-1,2.8-2.2v-36.1
				c0-1.2,1.2-2.2,2.8-2.2h14.9c1.5,0,2.8,1,2.8,2.2v94.3c0,1.2,1.2,2.2,2.8,2.2h3.7c1.5,0,2.8-1,2.8-2.2v-42.1
				c0-1.2,1.2-2.2,2.8-2.2h43.7c1.4,0,2.6,0.8,2.7,1.8c0.1,1.2-1.1,2.2-2.6,2.2h-38.8c-1.5,0-2.8,1-2.8,2.2v42.1
				C1003.9,206.5,1002.6,207.5,1001.1,207.5z M910.5,192.1h4.7c1.5,0,2.8-1,2.8-2.2v-13.4c0-1.2,1.2-2.2,2.8-2.2h24.1
				c1.5,0,2.8-1,2.8-2.2v-8.6c0-1.2-1.2-2.2-2.8-2.2h-17c-1.5,0-2.8-1-2.8-2.2v-36.9c0-1.2-1.2-2.2-2.8-2.2h-11.9
				c-1.5,0-2.8,1-2.8,2.2v67.6C907.8,191.1,909,192.1,910.5,192.1z"/>
			<path class="st0" d="M868.2,207.5h-18.6c-1.4,0-2.6-0.8-2.7-1.8c-0.1-1.2,1.1-2.2,2.5-2.2h13.7c1.5,0,2.8-1,2.8-2.2v-24.8
				c0-1.2,1.2-2.2,2.8-2.2h2.7c1.5,0,2.8-1,2.8-2.2v-71.7c0-1.2,1.2-2.2,2.8-2.2h13.9c1.5,0,2.8,1,2.8,2.2v54.3
				c0,1.2,1.2,2.2,2.8,2.2h8.8c1.4,0,2.6,0.8,2.7,1.8c0.1,1.2-1.1,2.2-2.5,2.2h-14.1c-1.5,0-2.8-1-2.8-2.2v-54.3
				c0-1.2-1.2-2.2-2.8-2.2h-3.7c-1.5,0-2.8,1-2.8,2.2v71.7c0,1.2-1.2,2.2-2.8,2.2h-2.7c-1.5,0-2.8,1-2.8,2.2v24.8
				C870.9,206.5,869.7,207.5,868.2,207.5z"/>
		</g>
	</g>
</g>
</svg>
