<?xml version="1.0" encoding="utf-8"?>
<!-- Generator: Adobe Illustrator 22.0.1, SVG Export Plug-In . SVG Version: 6.00 Build 0)  -->
<svg version="1.1" id="Calque_1" xmlns="http://www.w3.org/2000/svg" xmlns:xlink="http://www.w3.org/1999/xlink" x="0px" y="0px"
	 viewBox="0 0 81.4 65.1" style="enable-background:new 0 0 81.4 65.1;" xml:space="preserve">
<style type="text/css">
	.st0{fill:#C5D6F0;}
	.st1{fill:#2B3037;}
</style>
<g>
	<path class="st0" d="M69.8,65H12.9c-6.6,0-12-5.4-12-12V12c0-6.6,5.4-12,12-12h56.9c6.6,0,12,5.4,12,12v41
		C81.8,59.6,76.4,65,69.8,65z"/>
	<g>
		<path class="st1" d="M76.1,35.2L49.3,53.1c-2.2,1.4-5.1-0.1-5.1-2.7V14.6c0-2.6,2.9-4.1,5.1-2.7l26.8,17.9
			C78,31.1,78,33.9,76.1,35.2z"/>
		<path class="st1" d="M6.5,29.8l26.8-17.9c2.2-1.4,5.1,0.1,5.1,2.7v35.7c0,2.6-2.9,4.1-5.1,2.7L6.5,35.2
			C4.6,33.9,4.6,31.1,6.5,29.8z"/>
	</g>
</g>
</svg>
