<?xml version="1.0" encoding="utf-8"?>
<!-- Generator: Adobe Illustrator 22.0.1, SVG Export Plug-In . SVG Version: 6.00 Build 0)  -->
<svg version="1.1" id="Calque_1" xmlns="http://www.w3.org/2000/svg" xmlns:xlink="http://www.w3.org/1999/xlink" x="0px" y="0px"
	 viewBox="0 0 67.7 66.6" style="enable-background:new 0 0 67.7 66.6;" xml:space="preserve">
<style type="text/css">
	.st0{fill:#C5D6F0;}
	.st1{fill:#2B3037;}
</style>
<g>
	<path class="st0" d="M55,66.1H12.8c-6.6,0-12-5.4-12-12V11.9c0-6.6,5.4-12,12-12H55c6.6,0,12,5.4,12,12v42.2
		C67,60.7,61.6,66.1,55,66.1z"/>
</g>
<path class="st1" d="M51.4,45.7c2,2.5,1.6,6.1-0.9,8.1c-1.1,0.9-2.3,1.3-3.6,1.3c-1.7,0-3.4-0.7-4.5-2.2l-8.5-10.7l-8.5,10.7
	c-2,2.5-5.6,2.9-8.1,0.9c-2.5-2-2.9-5.6-0.9-8.1L26.5,33L16.3,20.3c-2-2.5-1.6-6.1,0.9-8.1c1.1-0.9,2.3-1.3,3.6-1.3
	c1.7,0,3.4,0.7,4.5,2.2l8.5,10.7l8.5-10.7c2-2.5,5.6-2.9,8.1-0.9c1.4,1.1,2.2,2.8,2.2,4.5c0,1.3-0.4,2.5-1.3,3.6L41.3,33L51.4,45.7z
	"/>
</svg>
