<?xml version="1.0" encoding="utf-8"?>
<!-- Generator: Adobe Illustrator 22.0.1, SVG Export Plug-In . SVG Version: 6.00 Build 0)  -->
<svg version="1.1" id="Calque_1" xmlns="http://www.w3.org/2000/svg" xmlns:xlink="http://www.w3.org/1999/xlink" x="0px" y="0px"
	 viewBox="0 0 105 140" style="enable-background:new 0 0 105 140;" xml:space="preserve">
<style type="text/css">
	.st0{fill:#2C3271;}
	.st1{fill:#C3D5EF;}
</style>
<rect x="-2.1" y="-2.6" class="st0" width="110.5" height="147.9"/>
<g>
	<g>
		<path class="st1" d="M32.3,130.5c-0.1,0-0.2,0-0.3,0c-0.6-0.2-1-0.8-0.8-1.4l23.6-94.4c0.2-0.6,0.8-1,1.4-0.8
			c0.6,0.2,1,0.8,0.8,1.4l-23.6,94.4C33.3,130.1,32.8,130.5,32.3,130.5z"/>
		<path class="st1" d="M24.4,129.8c0,0-0.1,0-0.1,0c-0.3-0.1-0.4-0.3-0.4-0.6l23.6-94.4c0.1-0.3,0.3-0.4,0.6-0.4
			c0.3,0.1,0.4,0.3,0.4,0.6l-23.6,94.4C24.9,129.7,24.7,129.8,24.4,129.8z"/>
		<path class="st1" d="M90.3,67.8c-0.3,0-0.5-0.2-0.5-0.5v0c0-0.3,0.2-0.5,0.5-0.5s0.5,0.2,0.5,0.5S90.6,67.8,90.3,67.8z"/>
		<path class="st1" d="M83.2,105.7"/>
		<path class="st1" d="M87.6,105.7"/>
		<path class="st1" d="M78.9,105.7"/>
		<path class="st1" d="M74.6,105.7"/>
		<path class="st1" d="M93,75.9c-0.3,0-0.5-0.2-0.5-0.5v0c0-0.3,0.2-0.5,0.5-0.5c0.3,0,0.5,0.2,0.5,0.5S93.3,75.9,93,75.9z"/>
		<path class="st1" d="M16.6,129.8c0,0-0.1,0-0.1,0c-0.3-0.1-0.4-0.3-0.4-0.6l23.6-94.4c0.1-0.3,0.3-0.4,0.6-0.4
			c0.3,0.1,0.4,0.3,0.4,0.6L17,129.4C17,129.7,16.8,129.8,16.6,129.8z"/>
		<path class="st1" d="M101.2,139.9H3.5c-1.7,0-3-1.3-3-3v-5.7c0-1.7,1.3-3,3-3h97.8c1.7,0,3,1.3,3,3v5.7
			C104.2,138.6,102.9,139.9,101.2,139.9z M3.5,130.5c-0.4,0-0.7,0.3-0.7,0.7v5.7c0,0.4,0.3,0.7,0.7,0.7h97.8c0.4,0,0.7-0.3,0.7-0.7
			v-5.7c0-0.4-0.3-0.7-0.7-0.7H3.5z"/>
		<path class="st1" d="M50.1,59.2c-0.6,0-1.1-0.4-1.1-1c-0.1-0.6,0.4-1.2,1-1.3c24-2.6,27.7-16.6,28.3-20.9c0.1-0.6,0.7-1.1,1.3-1
			c0.6,0.1,1.1,0.7,1,1.3c-0.6,4.7-4.7,20-30.3,22.8C50.2,59.2,50.1,59.2,50.1,59.2z"/>
		<path class="st1" d="M51.5,53.1c-0.2,0-0.4-0.2-0.5-0.4c-0.1-0.3,0.1-0.5,0.4-0.6c16.3-3.2,21.5-12.2,23.1-17.4
			c0.1-0.3,0.4-0.4,0.6-0.3c0.3,0.1,0.4,0.4,0.3,0.6C73.7,40.4,68.3,49.8,51.5,53.1C51.5,53.1,51.5,53.1,51.5,53.1z"/>
		<path class="st1" d="M52.8,47.9c-0.2,0-0.4-0.1-0.5-0.3c-0.1-0.3,0-0.5,0.3-0.6c9.1-3.1,13.5-8.4,15.5-12.3
			c0.1-0.2,0.4-0.3,0.7-0.2c0.2,0.1,0.3,0.4,0.2,0.7c-2.1,4-6.6,9.5-16.1,12.7C52.9,47.9,52.8,47.9,52.8,47.9z"/>
		<path class="st1" d="M54.4,41.5c-0.2,0-0.3-0.1-0.4-0.2c-0.1-0.2-0.1-0.5,0.2-0.7c2.8-1.6,5.1-3.7,7-6c0.2-0.2,0.5-0.2,0.7-0.1
			c0.2,0.2,0.2,0.5,0.1,0.7c-1.9,2.4-4.4,4.5-7.3,6.2C54.5,41.5,54.5,41.5,54.4,41.5z"/>
		<path class="st1" d="M72.4,66.7c-8.1,0-8.2-5.8-8.2-5.9c0-0.6,0.5-1.1,1.1-1.1c0.6,0,1.1,0.5,1.1,1.1c0,0.4,0.3,3.6,5.9,3.6
			c5.9,0,5.9-3.4,5.9-3.6c0-0.6,0.5-1.1,1.1-1.1c0.6,0,1.1,0.5,1.1,1.1C80.6,60.9,80.6,66.7,72.4,66.7z"/>
		<path class="st1" d="M96,130.5H8.7c-0.4,0-0.7-0.2-0.9-0.4c-0.2-0.3-0.3-0.6-0.2-1l22.7-90.9c0.6-2.6,3-4.4,5.6-4.4h40.2
			c2.5,0,4.7,1.6,5.5,4l21.3,64c0.4,1.2,0.2,2.5-0.5,3.5c-0.7,1-1.9,1.6-3.2,1.6H72.4c-0.6,0-1.1-0.5-1.1-1.1c0-0.6,0.5-1.1,1.1-1.1
			h26.8c0.5,0,1-0.2,1.3-0.7c0.3-0.4,0.4-1,0.2-1.5l-21.3-64c-0.5-1.4-1.8-2.4-3.3-2.4H35.9c-1.6,0-3,1.1-3.4,2.7l-22.4,89.5h84.3
			l-5-15c-0.2-0.6,0.1-1.3,0.7-1.5c0.6-0.2,1.3,0.1,1.5,0.7l5.5,16.5c0.1,0.3,0.1,0.7-0.2,1C96.7,130.3,96.4,130.5,96,130.5z"/>
		<path class="st1" d="M90.5,113.9c-0.5,0-0.9-0.3-1.1-0.8l-2.4-7.1c-0.2-0.6,0.1-1.3,0.7-1.5c0.6-0.2,1.3,0.1,1.5,0.7l2.4,7.1
			c0.2,0.6-0.1,1.3-0.7,1.5C90.8,113.9,90.6,113.9,90.5,113.9z"/>
		<path class="st1" d="M39.5,35.6c-9.7,0-17.7-7.9-17.7-17.7S29.7,0.2,39.5,0.2s17.7,7.9,17.7,17.7S49.2,35.6,39.5,35.6z M39.5,2.5
			c-8.5,0-15.4,6.9-15.4,15.4S31,33.3,39.5,33.3c8.5,0,15.4-6.9,15.4-15.4S47.9,2.5,39.5,2.5z"/>
		<path class="st1" d="M39.5,30.2c-6.8,0-12.3-5.5-12.3-12.3S32.7,5.6,39.5,5.6s12.3,5.5,12.3,12.3S46.2,30.2,39.5,30.2z M39.5,6.6
			c-6.2,0-11.3,5.1-11.3,11.3s5.1,11.3,11.3,11.3s11.3-5.1,11.3-11.3S45.7,6.6,39.5,6.6z"/>
		<path class="st1" d="M39.5,25.5c-4.2,0-7.6-3.4-7.6-7.6s3.4-7.6,7.6-7.6s7.6,3.4,7.6,7.6S43.6,25.5,39.5,25.5z M39.5,11.3
			c-3.6,0-6.6,3-6.6,6.6s3,6.6,6.6,6.6c3.6,0,6.6-3,6.6-6.6S43.1,11.3,39.5,11.3z"/>
		<path class="st1" d="M39.5,19H11.1c-0.6,0-1.1-0.5-1.1-1.1c0-0.6,0.5-1.1,1.1-1.1h28.3c0.6,0,1.1,0.5,1.1,1.1
			C40.6,18.5,40.1,19,39.5,19z"/>
		<g>
			<path class="st1" d="M67.2,36.1c-5.2,0-9.4-4.2-9.4-9.4s4.2-9.4,9.4-9.4s9.4,4.2,9.4,9.4S72.4,36.1,67.2,36.1z M67.2,19.5
				c-3.9,0-7.1,3.2-7.1,7.1s3.2,7.1,7.1,7.1s7.1-3.2,7.1-7.1S71.1,19.5,67.2,19.5z"/>
			<path class="st1" d="M67.2,30.7c-2.2,0-4-1.8-4-4s1.8-4,4-4s4,1.8,4,4S69.4,30.7,67.2,30.7z M67.2,23.6c-1.7,0-3,1.4-3,3
				c0,1.7,1.4,3,3,3c1.7,0,3-1.4,3-3C70.2,25,68.9,23.6,67.2,23.6z"/>
			<path class="st1" d="M67.2,27.5c-0.3,0-0.5-0.1-0.7-0.4l-9.4-14.2c-0.3-0.4-0.1-0.9,0.2-1.1c0.4-0.3,0.9-0.1,1.1,0.2l9.4,14.2
				c0.3,0.4,0.1,0.9-0.2,1.1C67.5,27.4,67.4,27.5,67.2,27.5z"/>
		</g>
	</g>
	<path class="st1" d="M65.3,69.1c0,0-0.1,0-0.1,0C65,69,65,68.8,65,68.6l1.9-4.5c0.1-0.2,0.3-0.2,0.4-0.2c0.2,0.1,0.2,0.3,0.2,0.4
		l-1.9,4.5C65.6,69,65.5,69.1,65.3,69.1z"/>
	<path class="st1" d="M79.5,69.1c-0.1,0-0.2-0.1-0.3-0.2l-1.9-4.5c-0.1-0.2,0-0.4,0.2-0.4c0.2-0.1,0.4,0,0.4,0.2l1.9,4.5
		c0.1,0.2,0,0.4-0.2,0.4C79.6,69.1,79.5,69.1,79.5,69.1z"/>
	<path class="st1" d="M72.4,69.1c-0.2,0-0.3-0.1-0.3-0.3v-3.2c0-0.2,0.1-0.3,0.3-0.3s0.3,0.1,0.3,0.3v3.2
		C72.7,68.9,72.6,69.1,72.4,69.1z"/>
</g>
</svg>
