<?xml version="1.0" encoding="utf-8"?>
<!-- Generator: Adobe Illustrator 22.0.1, SVG Export Plug-In . SVG Version: 6.00 Build 0)  -->
<svg version="1.1" id="Calque_1" xmlns="http://www.w3.org/2000/svg" xmlns:xlink="http://www.w3.org/1999/xlink" x="0px" y="0px"
	 viewBox="0 0 105 140" style="enable-background:new 0 0 105 140;" xml:space="preserve">
<style type="text/css">
	.st0{fill:#2C3271;}
	.st1{fill:#E8486F;}
</style>
<rect x="-1.7" y="-4.3" class="st0" width="110.5" height="147.9"/>
<g>
	<path class="st1" d="M32.5,130.2c-0.1,0-0.2,0-0.3,0c-0.6-0.2-1-0.8-0.8-1.4L55,34c0.2-0.6,0.8-1,1.4-0.8c0.6,0.2,1,0.8,0.8,1.4
		l-23.7,94.7C33.4,129.8,33,130.2,32.5,130.2z"/>
	<path class="st1" d="M24.6,129.5c0,0-0.1,0-0.1,0c-0.3-0.1-0.4-0.3-0.4-0.6l23.7-94.7c0.1-0.3,0.3-0.4,0.6-0.4
		c0.3,0.1,0.4,0.3,0.4,0.6L25,129.1C25,129.4,24.8,129.5,24.6,129.5z"/>
	<path class="st1" d="M90.7,67.3c-0.3,0-0.5-0.2-0.5-0.5v0c0-0.3,0.2-0.5,0.5-0.5c0.3,0,0.5,0.2,0.5,0.5
		C91.1,67,90.9,67.3,90.7,67.3z"/>
	<path class="st1" d="M83.6,105.3"/>
	<path class="st1" d="M87.9,105.3"/>
	<path class="st1" d="M79.2,105.3"/>
	<path class="st1" d="M74.9,105.3"/>
	<path class="st1" d="M93.4,75.4c-0.3,0-0.5-0.2-0.5-0.5v0c0-0.3,0.2-0.5,0.5-0.5s0.5,0.2,0.5,0.5S93.6,75.4,93.4,75.4z"/>
	<path class="st1" d="M16.7,129.5c0,0-0.1,0-0.1,0c-0.3-0.1-0.4-0.3-0.4-0.6l23.7-94.7c0.1-0.3,0.3-0.4,0.6-0.4
		c0.3,0.1,0.4,0.3,0.4,0.6l-23.7,94.7C17.1,129.4,16.9,129.5,16.7,129.5z"/>
	<path class="st1" d="M101.6,139.6H3.5c-1.7,0-3-1.4-3-3v-5.7c0-1.7,1.4-3,3-3h98.1c1.7,0,3,1.4,3,3v5.7
		C104.7,138.3,103.3,139.6,101.6,139.6z M3.5,130.2c-0.4,0-0.7,0.3-0.7,0.7v5.7c0,0.4,0.3,0.7,0.7,0.7h98.1c0.4,0,0.7-0.3,0.7-0.7
		v-5.7c0-0.4-0.3-0.7-0.7-0.7H3.5z"/>
	<path class="st1" d="M50.3,58.7c-0.6,0-1.1-0.4-1.1-1c-0.1-0.6,0.4-1.2,1-1.3C74.3,53.8,78,39.7,78.6,35.5c0.1-0.6,0.7-1.1,1.3-1
		c0.6,0.1,1.1,0.7,1,1.3c-0.6,4.7-4.7,20.1-30.4,22.9C50.4,58.7,50.4,58.7,50.3,58.7z"/>
	<path class="st1" d="M51.7,52.5c-0.2,0-0.4-0.2-0.5-0.4c-0.1-0.3,0.1-0.5,0.4-0.6c16.3-3.2,21.5-12.3,23.2-17.4
		c0.1-0.3,0.4-0.4,0.6-0.3c0.3,0.1,0.4,0.4,0.3,0.6C74,39.8,68.6,49.2,51.7,52.5C51.8,52.5,51.7,52.5,51.7,52.5z"/>
	<path class="st1" d="M53,47.3c-0.2,0-0.4-0.1-0.5-0.3c-0.1-0.3,0-0.5,0.3-0.6c9.1-3.2,13.5-8.4,15.6-12.3c0.1-0.2,0.4-0.3,0.7-0.2
		c0.2,0.1,0.3,0.4,0.2,0.7c-2.1,4-6.7,9.5-16.1,12.8C53.1,47.3,53.1,47.3,53,47.3z"/>
	<path class="st1" d="M54.6,40.9c-0.2,0-0.3-0.1-0.4-0.2c-0.1-0.2-0.1-0.5,0.2-0.7c2.8-1.6,5.2-3.7,7-6c0.2-0.2,0.5-0.2,0.7-0.1
		c0.2,0.2,0.2,0.5,0.1,0.7c-1.9,2.4-4.4,4.5-7.3,6.2C54.8,40.9,54.7,40.9,54.6,40.9z"/>
	<path class="st1" d="M96.4,130.2H8.8c-0.4,0-0.7-0.2-0.9-0.4c-0.2-0.3-0.3-0.6-0.2-1l22.8-91.2c0.6-2.6,3-4.4,5.6-4.4h40.4
		c2.5,0,4.7,1.6,5.5,4l21.4,64.2c0.4,1.2,0.2,2.5-0.5,3.6c-0.8,1-1.9,1.6-3.2,1.6H72.7c-0.6,0-1.2-0.5-1.2-1.2s0.5-1.2,1.2-1.2h26.9
		c0.5,0,1-0.2,1.3-0.7c0.3-0.4,0.4-1,0.2-1.5L79.8,37.8c-0.5-1.4-1.8-2.4-3.3-2.4H36.1c-1.6,0-3,1.1-3.4,2.7l-22.4,89.8h84.6
		l-5-15.1c-0.2-0.6,0.1-1.3,0.7-1.5c0.6-0.2,1.3,0.1,1.5,0.7l5.5,16.6c0.1,0.4,0.1,0.7-0.2,1C97.1,130,96.8,130.2,96.4,130.2z"/>
	<path class="st1" d="M90.9,113.6c-0.5,0-0.9-0.3-1.1-0.8l-2.4-7.1c-0.2-0.6,0.1-1.3,0.7-1.5c0.6-0.2,1.3,0.1,1.5,0.7l2.4,7.1
		c0.2,0.6-0.1,1.3-0.7,1.5C91.1,113.6,91,113.6,90.9,113.6z"/>
	<path class="st1" d="M67.5,35.4c-5.2,0-9.4-4.2-9.4-9.4s4.2-9.4,9.4-9.4c5.2,0,9.4,4.2,9.4,9.4S72.7,35.4,67.5,35.4z M67.5,18.9
		c-3.9,0-7.1,3.2-7.1,7.1s3.2,7.1,7.1,7.1c3.9,0,7.1-3.2,7.1-7.1S71.4,18.9,67.5,18.9z"/>
	<path class="st1" d="M67.5,30c-2.2,0-4-1.8-4-4s1.8-4,4-4c2.2,0,4,1.8,4,4S69.7,30,67.5,30z M67.5,22.9c-1.7,0-3.1,1.4-3.1,3.1
		c0,1.7,1.4,3.1,3.1,3.1s3.1-1.4,3.1-3.1C70.5,24.3,69.2,22.9,67.5,22.9z"/>
	<path class="st1" d="M67.5,26.8c-0.3,0-0.5-0.1-0.7-0.4l-9.5-14.2c-0.3-0.4-0.1-0.9,0.2-1.1c0.4-0.3,0.9-0.1,1.1,0.2l9.5,14.2
		c0.3,0.4,0.1,0.9-0.2,1.1C67.8,26.8,67.6,26.8,67.5,26.8z"/>
	<path class="st1" d="M49.9,35.4c-5.2,0-9.4-4.2-9.4-9.4s4.2-9.4,9.4-9.4s9.4,4.2,9.4,9.4S55.1,35.4,49.9,35.4z M49.9,18.9
		c-3.9,0-7.1,3.2-7.1,7.1s3.2,7.1,7.1,7.1S57,29.9,57,26S53.8,18.9,49.9,18.9z"/>
	<path class="st1" d="M49.9,30c-2.2,0-4-1.8-4-4s1.8-4,4-4s4,1.8,4,4S52.1,30,49.9,30z M49.9,22.9c-1.7,0-3.1,1.4-3.1,3.1
		c0,1.7,1.4,3.1,3.1,3.1s3.1-1.4,3.1-3.1C52.9,24.3,51.5,22.9,49.9,22.9z"/>
	<path class="st1" d="M49.9,26.8c-0.3,0-0.5-0.1-0.7-0.4l-9.5-14.2c-0.3-0.4-0.1-0.9,0.2-1.1c0.4-0.3,0.9-0.1,1.1,0.2l9.5,14.2
		c0.3,0.4,0.1,0.9-0.2,1.1C50.2,26.8,50,26.8,49.9,26.8z"/>
	<path class="st1" d="M32.5,35.4c-5.2,0-9.4-4.2-9.4-9.4s4.2-9.4,9.4-9.4s9.4,4.2,9.4,9.4S37.7,35.4,32.5,35.4z M32.5,18.9
		c-3.9,0-7.1,3.2-7.1,7.1s3.2,7.1,7.1,7.1s7.1-3.2,7.1-7.1S36.4,18.9,32.5,18.9z"/>
	<path class="st1" d="M32.5,30c-2.2,0-4-1.8-4-4s1.8-4,4-4s4,1.8,4,4S34.7,30,32.5,30z M32.5,22.9c-1.7,0-3.1,1.4-3.1,3.1
		c0,1.7,1.4,3.1,3.1,3.1c1.7,0,3.1-1.4,3.1-3.1C35.6,24.3,34.2,22.9,32.5,22.9z"/>
	<path class="st1" d="M32.5,26.8c-0.3,0-0.5-0.1-0.7-0.4l-9.5-14.2c-0.3-0.4-0.1-0.9,0.2-1.1c0.4-0.3,0.9-0.1,1.1,0.2l9.5,14.2
		c0.3,0.4,0.1,0.9-0.2,1.1C32.8,26.8,32.7,26.8,32.5,26.8z"/>
	<path class="st1" d="M65.6,70.5c0,0-0.1,0-0.1,0c-0.2-0.1-0.2-0.3-0.2-0.4l1.9-4.5c0.1-0.2,0.3-0.2,0.4-0.2
		c0.2,0.1,0.2,0.3,0.2,0.4l-1.9,4.5C65.9,70.4,65.7,70.5,65.6,70.5z"/>
	<path class="st1" d="M79.8,70.5c-0.1,0-0.3-0.1-0.3-0.2l-1.9-4.5c-0.1-0.2,0-0.4,0.2-0.4c0.2-0.1,0.4,0,0.4,0.2l1.9,4.5
		c0.1,0.2,0,0.4-0.2,0.4C79.9,70.5,79.9,70.5,79.8,70.5z"/>
	<path class="st1" d="M72.7,70.5c-0.2,0-0.3-0.1-0.3-0.3V67c0-0.2,0.1-0.3,0.3-0.3s0.3,0.1,0.3,0.3v3.2
		C73.1,70.4,72.9,70.5,72.7,70.5z"/>
	<path class="st1" d="M79.8,66.8H65.6c-0.6,0-1.2-0.5-1.2-1.2s0.5-1.2,1.2-1.2h14.2c0.6,0,1.2,0.5,1.2,1.2S80.5,66.8,79.8,66.8z"/>
	<path class="st1" d="M79.8,62.1H65.6c-0.6,0-1.2-0.5-1.2-1.2c0-0.6,0.5-1.2,1.2-1.2h14.2c0.6,0,1.2,0.5,1.2,1.2
		C81,61.6,80.5,62.1,79.8,62.1z"/>
</g>
</svg>
