<?xml version="1.0" encoding="utf-8"?>
<!-- Generator: Adobe Illustrator 23.0.1, SVG Export Plug-In . SVG Version: 6.00 Build 0)  -->
<svg version="1.1" id="Calque_1" xmlns="http://www.w3.org/2000/svg" xmlns:xlink="http://www.w3.org/1999/xlink" x="0px" y="0px"
	 viewBox="0 0 400 400" style="enable-background:new 0 0 400 400;" xml:space="preserve">
<style type="text/css">
	.st0{fill:#2E3272;}
	.st1{fill:#C2D7FF;}
	.st2{fill:#F9466E;}
	.st3{fill:#53B0AE;}
</style>
<rect x="1" y="-0.01" class="st0" width="399" height="400.01"/>
<g>
	<path class="st1" d="M522.46-24.17c-0.2,0-0.4-0.02-0.6-0.07c-1.32-0.33-2.12-1.67-1.79-2.99l50.64-202.56
		c0.33-1.32,1.67-2.12,2.99-1.79c1.32,0.33,2.12,1.67,1.79,2.99L524.84-26.03C524.56-24.92,523.56-24.17,522.46-24.17z"/>
	<path class="st1" d="M505.58-25.58c-0.08,0-0.17-0.01-0.26-0.03c-0.57-0.14-0.91-0.71-0.77-1.28l50.64-202.56
		c0.14-0.56,0.71-0.91,1.28-0.77c0.57,0.14,0.91,0.71,0.77,1.28L506.6-26.38C506.48-25.9,506.05-25.58,505.58-25.58z"/>
	<path class="st1" d="M646.88-158.7c-0.58,0-1.05-0.47-1.05-1.05v-0.01c0-0.58,0.47-1.06,1.05-1.06c0.58,0,1.06,0.47,1.06,1.06
		S647.47-158.7,646.88-158.7z"/>
	<path class="st1" d="M627.96-61.38c-0.06,0-0.11-0.01-0.17-0.02c-0.38-0.09-0.61-0.48-0.51-0.85l3.8-15.19
		c0.09-0.38,0.48-0.61,0.85-0.51c0.38,0.09,0.61,0.48,0.51,0.85l-3.8,15.19C628.56-61.59,628.27-61.38,627.96-61.38z"/>
	<path class="st1" d="M637.24-61.38c-0.06,0-0.11-0.01-0.17-0.02c-0.38-0.09-0.61-0.48-0.51-0.85l3.8-15.19
		c0.09-0.38,0.48-0.61,0.85-0.51c0.38,0.09,0.61,0.48,0.51,0.85l-3.8,15.19C637.84-61.59,637.56-61.38,637.24-61.38z"/>
	<path class="st1" d="M618.67-61.38c-0.06,0-0.11-0.01-0.17-0.02c-0.38-0.09-0.61-0.48-0.51-0.85l3.8-15.19
		c0.09-0.38,0.48-0.61,0.85-0.51c0.38,0.09,0.61,0.48,0.51,0.85l-3.8,15.19C619.28-61.59,618.99-61.38,618.67-61.38z"/>
	<path class="st1" d="M609.39-61.38c-0.06,0-0.11-0.01-0.17-0.02c-0.38-0.09-0.61-0.48-0.51-0.85l3.8-15.19
		c0.09-0.38,0.48-0.61,0.85-0.51c0.38,0.09,0.61,0.48,0.51,0.85l-3.8,15.19C609.99-61.59,609.7-61.38,609.39-61.38z"/>
	<path class="st1" d="M652.67-141.33c-0.58,0-1.06-0.47-1.06-1.05v-0.01c0-0.58,0.47-1.06,1.06-1.06s1.06,0.47,1.06,1.06
		S653.26-141.33,652.67-141.33z"/>
	<path class="st1" d="M488.69-25.58c-0.08,0-0.17-0.01-0.26-0.03c-0.57-0.14-0.91-0.71-0.77-1.28l50.64-202.56
		c0.14-0.56,0.71-0.91,1.28-0.77c0.57,0.14,0.91,0.71,0.77,1.28L489.72-26.38C489.6-25.9,489.17-25.58,488.69-25.58z"/>
	<path class="st1" d="M670.39-3.91H460.61c-3.56,0-6.45-2.89-6.45-6.45v-12.28c0-3.56,2.89-6.45,6.45-6.45h209.78
		c3.56,0,6.45,2.89,6.45,6.45v12.28C676.84-6.81,673.95-3.91,670.39-3.91z M460.61-24.17c-0.84,0-1.53,0.68-1.53,1.53v12.28
		c0,0.84,0.68,1.53,1.53,1.53h209.78c0.84,0,1.53-0.68,1.53-1.53v-12.28c0-0.84-0.68-1.53-1.53-1.53H460.61z"/>
	<path class="st1" d="M638.93-226.74h-126.6c-4.15,0-7.53-3.38-7.53-7.53s3.38-7.53,7.53-7.53h126.6c4.15,0,7.53,3.38,7.53,7.53
		S643.08-226.74,638.93-226.74z M512.33-236.86c-1.44,0-2.6,1.17-2.6,2.6c0,1.44,1.17,2.6,2.6,2.6h126.6c1.44,0,2.6-1.17,2.6-2.6
		c0-1.43-1.17-2.6-2.6-2.6H512.33z"/>
	<path class="st1" d="M623.74-236.86c-1.36,0-2.46-1.1-2.46-2.46v-48.81c0-5.24-4.26-9.5-9.5-9.5h-77.36c-5.24,0-9.5,4.26-9.5,9.5
		v48.81c0,1.36-1.1,2.46-2.46,2.46c-1.36,0-2.46-1.1-2.46-2.46v-48.81c0-7.95,6.47-14.42,14.42-14.42h77.36
		c7.95,0,14.42,6.47,14.42,14.42v48.81C626.2-237.97,625.1-236.86,623.74-236.86z"/>
	<path class="st1" d="M560.66-177.01c-1.24,0-2.31-0.93-2.44-2.2c-0.15-1.35,0.83-2.57,2.18-2.71
		c25.05-2.73,43.52-11.85,53.42-26.38c7.37-10.82,7.46-20.8,7.46-20.9c0-1.36,1.1-2.46,2.46-2.46c1.36,0,2.46,1.1,2.46,2.46
		c0,0.47-0.09,11.61-8.31,23.67c-7.48,10.99-23.44,24.85-56.95,28.5C560.84-177.02,560.75-177.01,560.66-177.01z"/>
	<path class="st1" d="M563.61-190.17c-0.49,0-0.94-0.35-1.03-0.85c-0.11-0.57,0.26-1.13,0.83-1.24
		c34.9-6.85,46.05-26.28,49.58-37.26c0.18-0.56,0.78-0.86,1.33-0.68c0.55,0.18,0.86,0.77,0.68,1.33
		c-3.68,11.41-15.22,31.62-51.18,38.68C563.74-190.18,563.67-190.17,563.61-190.17z"/>
	<path class="st1" d="M566.39-201.29c-0.44,0-0.85-0.27-1-0.71c-0.19-0.55,0.1-1.15,0.65-1.34c19.56-6.74,28.91-18.04,33.3-26.34
		c0.27-0.51,0.91-0.71,1.43-0.44c0.52,0.27,0.71,0.91,0.44,1.43c-4.57,8.64-14.26,20.39-34.48,27.35
		C566.62-201.31,566.5-201.29,566.39-201.29z"/>
	<path class="st1" d="M569.83-215.09c-0.36,0-0.71-0.19-0.91-0.52c-0.3-0.5-0.13-1.15,0.37-1.44c6-3.53,11.05-7.83,15.02-12.8
		c0.36-0.46,1.03-0.53,1.48-0.17c0.46,0.36,0.53,1.03,0.17,1.48c-4.13,5.17-9.38,9.65-15.6,13.3
		C570.2-215.13,570.02-215.09,569.83-215.09z"/>
	<path class="st1" d="M608.55-160.9c-17.45,0-17.65-12.46-17.65-12.59c0-1.36,1.1-2.46,2.46-2.46c1.36,0,2.46,1.1,2.46,2.46
		c0.02,0.76,0.55,7.67,12.73,7.67c12.59,0,12.73-7.35,12.73-7.67c0-1.36,1.1-2.46,2.46-2.46c1.36,0,2.46,1.1,2.46,2.46
		C626.2-173.37,626-160.9,608.55-160.9z"/>
	<path class="st1" d="M659.19-24.17H471.81c-0.76,0-1.47-0.35-1.94-0.95c-0.47-0.6-0.63-1.38-0.45-2.11l50.64-202.56
		c0.27-1.1,1.26-1.86,2.39-1.86h101.28c1.06,0,2,0.68,2.34,1.68l48.02,144.05c0.87,2.61,0.45,5.38-1.16,7.61
		c-1.61,2.23-4.1,3.51-6.85,3.51h-20.36l3.98,11.95c0,0,0,0,0,0.01l11.81,35.44c0.25,0.75,0.12,1.58-0.34,2.22
		C660.72-24.55,659.98-24.17,659.19-24.17z M474.97-29.09h180.8L645.6-59.62h-47.18c-1.36,0-2.46-1.1-2.46-2.46
		c0-6.11,2.63-17.65,12.59-17.65h33.7c0.04,0,0.08,0,0.11,0h23.72c1.15,0,2.19-0.53,2.85-1.46c0.67-0.93,0.85-2.08,0.48-3.17
		l-47.46-142.37h-97.59L474.97-29.09z M601.07-64.54h42.89l-3.42-10.27h-31.99C603.1-74.81,601.52-68.25,601.07-64.54z"/>
	<path class="st1" d="M609.81-285.26c-1.78,0-3.24-1.45-3.24-3.24c0-1.78,1.45-3.24,3.24-3.24c1.78,0,3.24,1.45,3.24,3.24
		C613.05-286.71,611.6-285.26,609.81-285.26z M609.81-290.32c-1.01,0-1.83,0.82-1.83,1.83c0,1.01,0.82,1.83,1.83,1.83
		c1.01,0,1.83-0.82,1.83-1.83C611.64-289.5,610.82-290.32,609.81-290.32z"/>
	<path class="st1" d="M599.68-285.26h-15.19c-1.78,0-3.24-1.45-3.24-3.24c0-1.78,1.45-3.24,3.24-3.24h15.19
		c1.78,0,3.24,1.45,3.24,3.24C602.92-286.71,601.47-285.26,599.68-285.26z M584.49-290.32c-1.01,0-1.83,0.82-1.83,1.83
		c0,1.01,0.82,1.83,1.83,1.83h15.19c1.01,0,1.83-0.82,1.83-1.83c0-1.01-0.82-1.83-1.83-1.83H584.49z"/>
</g>
<g>
	<g>
		<path class="st1" d="M824.15,1.83c-0.2,0-0.4-0.02-0.6-0.07c-1.32-0.33-2.12-1.67-1.79-2.99l50.64-202.56
			c0.33-1.32,1.67-2.12,2.99-1.79c1.32,0.33,2.12,1.67,1.79,2.99L826.54-0.03C826.26,1.08,825.26,1.83,824.15,1.83z"/>
		<path class="st1" d="M807.27,0.42c-0.08,0-0.17-0.01-0.26-0.03c-0.57-0.14-0.91-0.71-0.77-1.28l50.64-202.56
			c0.14-0.57,0.71-0.91,1.28-0.77c0.57,0.14,0.91,0.71,0.77,1.28L808.3-0.38C808.18,0.1,807.74,0.42,807.27,0.42z"/>
		<path class="st1" d="M948.58-132.7c-0.58,0-1.06-0.47-1.06-1.05v-0.01c0-0.58,0.47-1.06,1.06-1.06s1.05,0.47,1.05,1.06
			S949.16-132.7,948.58-132.7z"/>
		<path class="st1" d="M933.45-51.27"/>
		<path class="st1" d="M942.74-51.27"/>
		<path class="st1" d="M924.17-51.27"/>
		<path class="st1" d="M914.88-51.27"/>
		<path class="st1" d="M954.37-115.33c-0.58,0-1.06-0.47-1.06-1.05v-0.01c0-0.58,0.47-1.06,1.06-1.06s1.05,0.47,1.05,1.06
			C955.43-115.81,954.95-115.33,954.37-115.33z"/>
		<path class="st1" d="M790.39,0.42c-0.08,0-0.17-0.01-0.26-0.03c-0.57-0.14-0.91-0.71-0.77-1.28l50.64-202.56
			c0.14-0.57,0.71-0.91,1.28-0.77c0.57,0.14,0.91,0.71,0.77,1.28L791.41-0.38C791.3,0.1,790.86,0.42,790.39,0.42z"/>
		<path class="st1" d="M972.09,22.09H762.31c-3.56,0-6.45-2.89-6.45-6.45V3.36c0-3.56,2.89-6.45,6.45-6.45h209.78
			c3.56,0,6.45,2.89,6.45,6.45v12.28C978.54,19.19,975.64,22.09,972.09,22.09z M762.31,1.83c-0.84,0-1.53,0.68-1.53,1.53v12.28
			c0,0.84,0.68,1.53,1.53,1.53h209.78c0.84,0,1.53-0.68,1.53-1.53V3.36c0-0.84-0.68-1.53-1.53-1.53H762.31z"/>
		<path class="st1" d="M862.36-151.01c-1.24,0-2.31-0.93-2.44-2.2c-0.15-1.35,0.83-2.57,2.18-2.71
			c51.47-5.61,59.44-35.69,60.66-44.78c0.18-1.35,1.41-2.29,2.77-2.11c1.35,0.18,2.29,1.42,2.11,2.77
			c-1.34,9.98-9.98,43.02-65,49.02C862.54-151.02,862.45-151.01,862.36-151.01z"/>
		<path class="st1" d="M865.3-164.17c-0.49,0-0.93-0.35-1.03-0.85c-0.11-0.57,0.26-1.13,0.83-1.24
			c34.9-6.85,46.05-26.28,49.58-37.26c0.18-0.55,0.77-0.86,1.33-0.68c0.55,0.18,0.86,0.77,0.68,1.33
			c-3.68,11.41-15.22,31.62-51.18,38.68C865.44-164.18,865.37-164.17,865.3-164.17z"/>
		<path class="st1" d="M868.08-175.29c-0.44,0-0.85-0.27-1-0.71c-0.19-0.55,0.1-1.15,0.65-1.34c19.56-6.74,28.9-18.04,33.3-26.34
			c0.27-0.52,0.91-0.71,1.43-0.44c0.51,0.27,0.71,0.91,0.44,1.43c-4.57,8.64-14.26,20.39-34.48,27.35
			C868.31-175.31,868.2-175.29,868.08-175.29z"/>
		<path class="st1" d="M871.53-189.09c-0.36,0-0.71-0.19-0.91-0.52c-0.3-0.5-0.13-1.15,0.38-1.44c6-3.53,11.05-7.83,15.02-12.8
			c0.36-0.46,1.03-0.53,1.48-0.17c0.46,0.36,0.53,1.03,0.17,1.48c-4.13,5.17-9.38,9.65-15.6,13.3
			C871.9-189.13,871.71-189.09,871.53-189.09z"/>
		<path class="st1" d="M910.24-134.9c-17.45,0-17.65-12.46-17.65-12.59c0-1.36,1.1-2.46,2.46-2.46s2.46,1.1,2.46,2.46
			c0.02,0.76,0.55,7.67,12.73,7.67c12.59,0,12.73-7.35,12.73-7.67c0-1.36,1.1-2.46,2.46-2.46s2.46,1.1,2.46,2.46
			C927.9-147.37,927.69-134.9,910.24-134.9z"/>
		<path class="st1" d="M960.88,1.83H773.51c-0.76,0-1.47-0.35-1.94-0.95c-0.47-0.6-0.63-1.38-0.45-2.11l48.75-195.01
			c1.39-5.54,6.35-9.42,12.06-9.42h86.31c5.36,0,10.1,3.42,11.79,8.5l45.74,137.23c0.87,2.61,0.45,5.38-1.16,7.61
			c-1.61,2.23-4.1,3.51-6.85,3.51h-57.54c-1.36,0-2.46-1.1-2.46-2.46s1.1-2.46,2.46-2.46h57.54c1.15,0,2.19-0.53,2.86-1.46
			c0.67-0.93,0.85-2.08,0.48-3.17L925.37-195.6c-1.02-3.07-3.89-5.13-7.12-5.13h-86.31c-3.45,0-6.45,2.34-7.28,5.69L776.66-3.09
			h180.8L946.73-35.3c-0.43-1.29,0.27-2.68,1.56-3.11c1.29-0.43,2.68,0.27,3.11,1.56l11.82,35.45c0.25,0.75,0.12,1.58-0.34,2.22
			C962.42,1.45,961.67,1.83,960.88,1.83z"/>
		<path class="st1" d="M949.07-33.62c-1.03,0-1.99-0.65-2.33-1.68l-5.06-15.19c-0.43-1.29,0.27-2.68,1.56-3.11
			c1.29-0.43,2.68,0.27,3.11,1.56l5.06,15.19c0.43,1.29-0.27,2.68-1.56,3.11C949.59-33.66,949.32-33.62,949.07-33.62z"/>
		<path class="st1" d="M839.53-201.8c-20.9,0-37.91-17.01-37.91-37.91s17.01-37.91,37.91-37.91s37.91,17.01,37.91,37.91
			S860.43-201.8,839.53-201.8z M839.53-272.69c-18.19,0-32.99,14.8-32.99,32.99s14.8,32.99,32.99,32.99
			c18.19,0,32.99-14.8,32.99-32.99S857.72-272.69,839.53-272.69z"/>
		<path class="st1" d="M839.53-213.33c-14.54,0-26.38-11.83-26.38-26.38s11.83-26.38,26.38-26.38s26.38,11.83,26.38,26.38
			S854.07-213.33,839.53-213.33z M839.53-263.97c-13.38,0-24.27,10.89-24.27,24.27s10.89,24.27,24.27,24.27s24.27-10.89,24.27-24.27
			S852.91-263.97,839.53-263.97z"/>
		<path class="st1" d="M839.53-223.46c-8.96,0-16.25-7.29-16.25-16.25s7.29-16.25,16.25-16.25s16.25,7.29,16.25,16.25
			S848.49-223.46,839.53-223.46z M839.53-253.84c-7.8,0-14.14,6.34-14.14,14.14s6.34,14.14,14.14,14.14
			c7.8,0,14.14-6.34,14.14-14.14S847.32-253.84,839.53-253.84z"/>
		<path class="st1" d="M839.53-237.24h-60.77c-1.36,0-2.46-1.1-2.46-2.46s1.1-2.46,2.46-2.46h60.77c1.36,0,2.46,1.1,2.46,2.46
			S840.89-237.24,839.53-237.24z"/>
		<g>
			<path class="st1" d="M899.03-200.74c-11.13,0-20.19-9.06-20.19-20.19s9.06-20.19,20.19-20.19s20.19,9.06,20.19,20.19
				S910.16-200.74,899.03-200.74z M899.03-236.18c-8.42,0-15.26,6.85-15.26,15.26s6.85,15.26,15.26,15.26
				c8.42,0,15.26-6.85,15.26-15.26S907.45-236.18,899.03-236.18z"/>
			<path class="st1" d="M899.03-212.27c-4.77,0-8.65-3.88-8.65-8.65s3.88-8.65,8.65-8.65s8.65,3.88,8.65,8.65
				S903.8-212.27,899.03-212.27z M899.03-227.46c-3.61,0-6.54,2.93-6.54,6.54c0,3.61,2.93,6.54,6.54,6.54s6.54-2.93,6.54-6.54
				C905.57-224.53,902.64-227.46,899.03-227.46z"/>
			<path class="st1" d="M899.03-219.16c-0.57,0-1.13-0.28-1.46-0.78l-20.26-30.38c-0.54-0.81-0.32-1.9,0.49-2.44
				c0.81-0.54,1.9-0.32,2.44,0.49l20.26,30.38c0.54,0.81,0.32,1.9-0.49,2.44C899.71-219.26,899.37-219.16,899.03-219.16z"/>
		</g>
	</g>
	<path class="st1" d="M895.05-129.9c-0.09,0-0.18-0.02-0.27-0.05c-0.36-0.15-0.53-0.56-0.38-0.92l4.07-9.7
		c0.15-0.36,0.57-0.53,0.92-0.38c0.36,0.15,0.53,0.56,0.38,0.92l-4.07,9.7C895.59-130.06,895.32-129.9,895.05-129.9z"/>
	<path class="st1" d="M925.43-129.9c-0.27,0-0.54-0.16-0.65-0.43l-4.07-9.7c-0.15-0.36,0.02-0.77,0.38-0.92
		c0.36-0.15,0.77,0.02,0.92,0.38l4.07,9.7c0.15,0.36-0.02,0.77-0.38,0.92C925.62-129.92,925.53-129.9,925.43-129.9z"/>
	<path class="st1" d="M910.24-129.9c-0.39,0-0.7-0.31-0.7-0.7v-6.76c0-0.39,0.31-0.7,0.7-0.7c0.39,0,0.7,0.31,0.7,0.7v6.76
		C910.95-130.22,910.63-129.9,910.24-129.9z"/>
</g>
<g>
	<path class="st2" d="M572.46,361.06c-0.2,0-0.4-0.02-0.6-0.07c-1.32-0.33-2.12-1.67-1.79-2.99l50.64-202.56
		c0.33-1.32,1.67-2.12,2.99-1.79c1.32,0.33,2.12,1.67,1.79,2.99L574.84,359.2C574.56,360.31,573.56,361.06,572.46,361.06z"/>
	<path class="st2" d="M555.58,359.65c-0.08,0-0.17-0.01-0.26-0.03c-0.57-0.14-0.91-0.71-0.77-1.28l50.64-202.56
		c0.14-0.57,0.71-0.91,1.28-0.77c0.57,0.14,0.91,0.71,0.77,1.28L556.6,358.85C556.48,359.33,556.05,359.65,555.58,359.65z"/>
	<path class="st2" d="M696.88,226.53c-0.58,0-1.05-0.47-1.05-1.05v-0.01c0-0.58,0.47-1.06,1.05-1.06s1.06,0.47,1.06,1.06
		C697.94,226.06,697.47,226.53,696.88,226.53z"/>
	<path class="st2" d="M677.96,323.85c-0.06,0-0.11-0.01-0.17-0.02c-0.38-0.09-0.61-0.48-0.51-0.85l3.8-15.19
		c0.09-0.38,0.48-0.61,0.85-0.51c0.38,0.09,0.61,0.48,0.51,0.85l-3.8,15.19C678.56,323.64,678.27,323.85,677.96,323.85z"/>
	<path class="st2" d="M687.24,323.85c-0.06,0-0.11-0.01-0.17-0.02c-0.38-0.09-0.61-0.48-0.51-0.85l3.8-15.19
		c0.09-0.38,0.47-0.61,0.85-0.51c0.38,0.09,0.61,0.48,0.51,0.85l-3.8,15.19C687.84,323.64,687.56,323.85,687.24,323.85z"/>
	<path class="st2" d="M668.67,323.85c-0.06,0-0.11-0.01-0.17-0.02c-0.38-0.09-0.61-0.48-0.51-0.85l3.8-15.19
		c0.09-0.38,0.47-0.61,0.85-0.51c0.38,0.09,0.61,0.48,0.51,0.85l-3.8,15.19C669.28,323.64,668.99,323.85,668.67,323.85z"/>
	<path class="st2" d="M659.39,323.85c-0.06,0-0.11-0.01-0.17-0.02c-0.38-0.09-0.61-0.48-0.51-0.85l3.8-15.19
		c0.09-0.38,0.48-0.61,0.85-0.51c0.38,0.09,0.61,0.48,0.51,0.85l-3.8,15.19C659.99,323.64,659.7,323.85,659.39,323.85z"/>
	<path class="st2" d="M702.67,243.9c-0.58,0-1.06-0.47-1.06-1.05v-0.01c0-0.58,0.47-1.06,1.06-1.06s1.05,0.47,1.05,1.06
		C703.73,243.42,703.26,243.9,702.67,243.9z"/>
	<path class="st2" d="M538.69,359.65c-0.08,0-0.17-0.01-0.26-0.03c-0.57-0.14-0.91-0.71-0.77-1.28l50.64-202.56
		c0.14-0.57,0.71-0.91,1.28-0.77c0.57,0.14,0.91,0.71,0.77,1.28l-50.64,202.57C539.6,359.33,539.17,359.65,538.69,359.65z"/>
	<path class="st2" d="M720.39,381.32H510.61c-3.56,0-6.45-2.89-6.45-6.45v-12.28c0-3.56,2.89-6.45,6.45-6.45h209.78
		c3.56,0,6.45,2.89,6.45,6.45v12.28C726.84,378.42,723.95,381.32,720.39,381.32z M510.61,361.06c-0.84,0-1.53,0.68-1.53,1.53v12.28
		c0,0.84,0.68,1.53,1.53,1.53h209.78c0.84,0,1.53-0.68,1.53-1.53v-12.28c0-0.84-0.68-1.53-1.53-1.53H510.61z"/>
	<path class="st2" d="M688.93,158.5h-126.6c-4.15,0-7.53-3.38-7.53-7.53c0-4.15,3.38-7.53,7.53-7.53h126.6
		c4.15,0,7.53,3.38,7.53,7.53C696.46,155.12,693.08,158.5,688.93,158.5z M562.33,148.37c-1.43,0-2.6,1.17-2.6,2.6
		c0,1.44,1.17,2.6,2.6,2.6h126.6c1.43,0,2.6-1.17,2.6-2.6c0-1.43-1.17-2.6-2.6-2.6H562.33z"/>
	<path class="st2" d="M673.74,148.37c-1.36,0-2.46-1.1-2.46-2.46v-10.13c0-26.57-21.61-48.18-48.18-48.18s-48.18,21.61-48.18,48.18
		v10.13c0,1.36-1.1,2.46-2.46,2.46c-1.36,0-2.46-1.1-2.46-2.46v-10.13c0-29.28,23.82-53.1,53.1-53.1c29.28,0,53.1,23.82,53.1,53.1
		v10.13C676.2,147.26,675.1,148.37,673.74,148.37z"/>
	<path class="st2" d="M610.67,208.22c-1.24,0-2.31-0.93-2.44-2.2c-0.15-1.35,0.83-2.57,2.18-2.71
		c25.05-2.73,43.52-11.85,53.42-26.38c7.37-10.82,7.46-20.8,7.46-20.9c0-1.36,1.1-2.46,2.46-2.46s2.46,1.1,2.46,2.46
		c0,0.47-0.09,11.61-8.31,23.67c-7.48,10.99-23.44,24.85-56.95,28.5C610.84,208.21,610.75,208.22,610.67,208.22z"/>
	<path class="st2" d="M613.61,195.06c-0.49,0-0.93-0.35-1.03-0.85c-0.11-0.57,0.26-1.13,0.83-1.24
		c34.9-6.85,46.05-26.28,49.58-37.26c0.18-0.55,0.77-0.86,1.33-0.68c0.55,0.18,0.86,0.77,0.68,1.33
		c-3.68,11.41-15.22,31.62-51.18,38.68C613.74,195.05,613.67,195.06,613.61,195.06z"/>
	<path class="st2" d="M616.39,183.94c-0.44,0-0.85-0.27-1-0.71c-0.19-0.55,0.1-1.15,0.65-1.34c19.56-6.74,28.9-18.04,33.3-26.34
		c0.27-0.52,0.91-0.71,1.43-0.44c0.51,0.27,0.71,0.91,0.44,1.43c-4.57,8.64-14.26,20.39-34.48,27.35
		C616.62,183.92,616.5,183.94,616.39,183.94z"/>
	<path class="st2" d="M619.83,170.14c-0.36,0-0.71-0.19-0.91-0.52c-0.3-0.5-0.13-1.15,0.38-1.44c6-3.53,11.05-7.83,15.02-12.8
		c0.36-0.46,1.03-0.53,1.48-0.17c0.46,0.36,0.53,1.03,0.17,1.48c-4.13,5.17-9.38,9.65-15.6,13.3
		C620.2,170.1,620.02,170.14,619.83,170.14z"/>
	<path class="st2" d="M709.19,361.06H521.81c-0.76,0-1.47-0.35-1.94-0.95c-0.47-0.6-0.63-1.38-0.45-2.11l50.64-202.56
		c0.27-1.1,1.26-1.86,2.39-1.86h101.28c1.06,0,2,0.68,2.34,1.68l48.02,144.05c0.87,2.61,0.45,5.38-1.16,7.61s-4.1,3.51-6.85,3.51
		h-20.36l15.8,47.4c0.25,0.75,0.12,1.58-0.34,2.22C710.72,360.68,709.98,361.06,709.19,361.06z M524.97,356.14h180.8l-10.18-30.53
		h-47.18c-1.36,0-2.46-1.1-2.46-2.46c0-6.11,2.63-17.65,12.59-17.65h33.7c0.04,0,0.08,0,0.11,0h23.72c1.15,0,2.19-0.53,2.86-1.46
		c0.67-0.93,0.85-2.08,0.48-3.17L671.96,158.5h-97.59L524.97,356.14z M651.07,320.69h42.89l-3.42-10.27h-31.99
		C653.1,310.42,651.52,316.98,651.07,320.69z"/>
	<path class="st2" d="M673.81,225.57h-30.38c-1.36,0-2.46-1.1-2.46-2.46c0-1.36,1.1-2.46,2.46-2.46h30.38c1.36,0,2.46,1.1,2.46,2.46
		C676.27,224.47,675.17,225.57,673.81,225.57z"/>
	<path class="st2" d="M673.81,215.45h-30.38c-1.36,0-2.46-1.1-2.46-2.46c0-1.36,1.1-2.46,2.46-2.46h30.38c1.36,0,2.46,1.1,2.46,2.46
		C676.27,214.34,675.17,215.45,673.81,215.45z"/>
</g>
<g>
	<path class="st2" d="M157.46,379.74c-0.2,0-0.4-0.02-0.6-0.07c-1.32-0.33-2.12-1.67-1.79-2.99l50.64-202.56
		c0.33-1.32,1.67-2.12,2.99-1.79c1.32,0.33,2.12,1.67,1.79,2.99l-50.64,202.56C159.56,379,158.56,379.74,157.46,379.74z"/>
	<path class="st2" d="M140.58,378.34c-0.08,0-0.17-0.01-0.26-0.03c-0.57-0.14-0.91-0.71-0.77-1.28l50.64-202.56
		c0.14-0.57,0.71-0.91,1.28-0.77c0.57,0.14,0.91,0.71,0.77,1.28L141.6,377.54C141.48,378.02,141.05,378.34,140.58,378.34z"/>
	<path class="st2" d="M281.88,245.22c-0.58,0-1.06-0.47-1.06-1.05v-0.01c0-0.58,0.47-1.06,1.06-1.06c0.58,0,1.06,0.47,1.06,1.06
		C282.94,244.74,282.47,245.22,281.88,245.22z"/>
	<path class="st2" d="M266.76,326.64"/>
	<path class="st2" d="M276.04,326.64"/>
	<path class="st2" d="M257.47,326.64"/>
	<path class="st2" d="M248.19,326.64"/>
	<path class="st2" d="M287.67,262.58c-0.58,0-1.06-0.47-1.06-1.05v-0.01c0-0.58,0.47-1.06,1.06-1.06c0.58,0,1.06,0.47,1.06,1.06
		S288.26,262.58,287.67,262.58z"/>
	<path class="st2" d="M123.7,378.34c-0.08,0-0.17-0.01-0.26-0.03c-0.57-0.14-0.91-0.71-0.77-1.28l50.64-202.56
		c0.14-0.57,0.71-0.91,1.28-0.77c0.57,0.14,0.91,0.71,0.77,1.28l-50.64,202.57C124.6,378.02,124.17,378.34,123.7,378.34z"/>
	<path class="st2" d="M305.39,400H95.61c-3.56,0-6.45-2.89-6.45-6.45v-12.28c0-3.56,2.89-6.45,6.45-6.45h209.78
		c3.56,0,6.45,2.89,6.45,6.45v12.28C311.84,397.11,308.95,400,305.39,400z M95.61,379.74c-0.84,0-1.53,0.68-1.53,1.53v12.28
		c0,0.84,0.68,1.53,1.53,1.53h209.78c0.84,0,1.53-0.68,1.53-1.53v-12.28c0-0.84-0.68-1.53-1.53-1.53H95.61z"/>
	<path class="st2" d="M195.67,226.9c-1.24,0-2.31-0.93-2.44-2.2c-0.15-1.35,0.83-2.57,2.18-2.71c51.46-5.61,59.44-35.69,60.66-44.78
		c0.18-1.35,1.43-2.3,2.77-2.11c1.35,0.18,2.29,1.42,2.11,2.77c-1.34,9.98-9.98,43.02-65,49.02
		C195.84,226.89,195.75,226.9,195.67,226.9z"/>
	<path class="st2" d="M198.61,213.74c-0.49,0-0.93-0.35-1.03-0.85c-0.11-0.57,0.26-1.13,0.83-1.24
		c34.9-6.85,46.04-26.28,49.58-37.26c0.18-0.55,0.77-0.86,1.33-0.68c0.55,0.18,0.86,0.77,0.68,1.33
		c-3.68,11.41-15.22,31.62-51.18,38.68C198.74,213.73,198.67,213.74,198.61,213.74z"/>
	<path class="st2" d="M201.39,202.62c-0.44,0-0.85-0.27-1-0.71c-0.19-0.55,0.1-1.15,0.65-1.34c19.56-6.74,28.9-18.04,33.3-26.34
		c0.27-0.52,0.91-0.71,1.43-0.44c0.51,0.27,0.71,0.91,0.44,1.43c-4.57,8.64-14.26,20.39-34.48,27.35
		C201.62,202.6,201.5,202.62,201.39,202.62z"/>
	<path class="st2" d="M204.83,188.83c-0.36,0-0.71-0.19-0.91-0.52c-0.3-0.5-0.13-1.15,0.38-1.44c6-3.53,11.05-7.83,15.02-12.8
		c0.36-0.46,1.03-0.53,1.48-0.17c0.46,0.36,0.53,1.03,0.17,1.48c-4.13,5.17-9.38,9.65-15.6,13.3
		C205.2,188.78,205.02,188.83,204.83,188.83z"/>
	<path class="st2" d="M294.19,379.74H106.81c-0.76,0-1.47-0.35-1.94-0.95c-0.47-0.6-0.63-1.38-0.45-2.11l48.75-195.01
		c1.39-5.54,6.34-9.42,12.06-9.42h86.31c5.36,0,10.1,3.42,11.79,8.5l45.74,137.23c0.87,2.61,0.45,5.38-1.16,7.61
		s-4.1,3.51-6.85,3.51h-57.54c-1.36,0-2.46-1.1-2.46-2.46c0-1.36,1.1-2.46,2.46-2.46h57.54c1.14,0,2.19-0.53,2.86-1.46
		c0.67-0.93,0.85-2.08,0.48-3.17l-45.74-137.23c-1.02-3.07-3.89-5.13-7.12-5.13h-86.31c-3.45,0-6.45,2.34-7.28,5.69l-47.99,191.96
		h180.8l-10.74-32.21c-0.43-1.29,0.27-2.68,1.56-3.11c1.29-0.43,2.68,0.27,3.11,1.56l11.82,35.45c0.25,0.75,0.12,1.58-0.34,2.22
		C295.72,379.36,294.98,379.74,294.19,379.74z"/>
	<path class="st2" d="M282.37,344.3c-1.03,0-1.99-0.65-2.33-1.68l-5.06-15.19c-0.43-1.29,0.27-2.68,1.56-3.11
		c1.29-0.43,2.68,0.27,3.11,1.56l5.06,15.19c0.43,1.29-0.27,2.68-1.56,3.11C282.89,344.25,282.63,344.3,282.37,344.3z"/>
	<path class="st2" d="M232.33,177.18c-11.13,0-20.19-9.06-20.19-20.19s9.06-20.19,20.19-20.19s20.19,9.06,20.19,20.19
		S243.46,177.18,232.33,177.18z M232.33,141.73c-8.42,0-15.26,6.85-15.26,15.26c0,8.42,6.85,15.26,15.26,15.26
		c8.42,0,15.26-6.85,15.26-15.26C247.6,148.58,240.75,141.73,232.33,141.73z"/>
	<path class="st2" d="M232.33,165.64c-4.77,0-8.65-3.88-8.65-8.65c0-4.77,3.88-8.65,8.65-8.65c4.77,0,8.65,3.88,8.65,8.65
		C240.98,161.76,237.1,165.64,232.33,165.64z M232.33,150.45c-3.61,0-6.54,2.93-6.54,6.54c0,3.61,2.93,6.54,6.54,6.54
		c3.61,0,6.54-2.93,6.54-6.54C238.87,153.39,235.94,150.45,232.33,150.45z"/>
	<path class="st2" d="M232.34,158.75c-0.57,0-1.13-0.28-1.46-0.78l-20.26-30.38c-0.54-0.81-0.32-1.9,0.49-2.44
		c0.81-0.54,1.9-0.32,2.44,0.49l20.26,30.38c0.54,0.81,0.32,1.9-0.49,2.44C233.01,158.66,232.67,158.75,232.34,158.75z"/>
	<path class="st2" d="M194.66,177.18c-11.13,0-20.19-9.06-20.19-20.19s9.06-20.19,20.19-20.19s20.19,9.06,20.19,20.19
		S205.79,177.18,194.66,177.18z M194.66,141.73c-8.42,0-15.26,6.85-15.26,15.26c0,8.42,6.85,15.26,15.26,15.26
		s15.26-6.85,15.26-15.26C209.92,148.58,203.08,141.73,194.66,141.73z"/>
	<path class="st2" d="M194.66,165.64c-4.77,0-8.65-3.88-8.65-8.65c0-4.77,3.88-8.65,8.65-8.65c4.77,0,8.65,3.88,8.65,8.65
		C203.31,161.76,199.43,165.64,194.66,165.64z M194.66,150.45c-3.61,0-6.54,2.93-6.54,6.54c0,3.61,2.93,6.54,6.54,6.54
		s6.54-2.93,6.54-6.54C201.2,153.39,198.27,150.45,194.66,150.45z"/>
	<path class="st2" d="M194.66,158.75c-0.57,0-1.13-0.28-1.46-0.78l-20.26-30.38c-0.54-0.81-0.32-1.9,0.49-2.44
		c0.81-0.54,1.9-0.32,2.44,0.49l20.26,30.38c0.54,0.81,0.32,1.9-0.49,2.44C195.34,158.66,195,158.75,194.66,158.75z"/>
	<path class="st2" d="M157.53,177.18c-11.13,0-20.19-9.06-20.19-20.19s9.06-20.19,20.19-20.19s20.19,9.06,20.19,20.19
		S168.66,177.18,157.53,177.18z M157.53,141.73c-8.42,0-15.26,6.85-15.26,15.26c0,8.42,6.85,15.26,15.26,15.26
		s15.26-6.85,15.26-15.26C172.79,148.58,165.94,141.73,157.53,141.73z"/>
	<path class="st2" d="M157.53,165.64c-4.77,0-8.65-3.88-8.65-8.65c0-4.77,3.88-8.65,8.65-8.65s8.65,3.88,8.65,8.65
		C166.18,161.76,162.3,165.64,157.53,165.64z M157.53,150.45c-3.61,0-6.54,2.93-6.54,6.54c0,3.61,2.93,6.54,6.54,6.54
		s6.54-2.93,6.54-6.54C164.07,153.39,161.13,150.45,157.53,150.45z"/>
	<path class="st2" d="M157.53,158.75c-0.57,0-1.13-0.28-1.46-0.78l-20.26-30.38c-0.54-0.81-0.32-1.9,0.49-2.44
		c0.81-0.54,1.9-0.32,2.44,0.49l20.26,30.38c0.54,0.81,0.32,1.9-0.49,2.44C158.2,158.66,157.86,158.75,157.53,158.75z"/>
	<path class="st2" d="M228.35,252.19c-0.09,0-0.18-0.02-0.27-0.05c-0.36-0.15-0.53-0.56-0.38-0.92l4.07-9.7
		c0.15-0.36,0.56-0.53,0.92-0.38c0.36,0.15,0.53,0.56,0.38,0.92l-4.07,9.7C228.89,252.03,228.63,252.19,228.35,252.19z"/>
	<path class="st2" d="M258.74,252.19c-0.27,0-0.54-0.16-0.65-0.43l-4.07-9.7c-0.15-0.36,0.02-0.77,0.38-0.92
		c0.36-0.15,0.77,0.02,0.92,0.38l4.07,9.7c0.15,0.36-0.02,0.77-0.38,0.92C258.92,252.18,258.83,252.19,258.74,252.19z"/>
	<path class="st2" d="M243.54,252.19c-0.39,0-0.7-0.31-0.7-0.7v-6.76c0-0.39,0.31-0.7,0.7-0.7s0.7,0.31,0.7,0.7v6.76
		C244.25,251.88,243.93,252.19,243.54,252.19z"/>
	<path class="st2" d="M258.74,244.26h-30.38c-1.36,0-2.46-1.1-2.46-2.46c0-1.36,1.1-2.46,2.46-2.46h30.38c1.36,0,2.46,1.1,2.46,2.46
		C261.2,243.15,260.1,244.26,258.74,244.26z"/>
	<path class="st2" d="M258.74,234.13h-30.38c-1.36,0-2.46-1.1-2.46-2.46c0-1.36,1.1-2.46,2.46-2.46h30.38c1.36,0,2.46,1.1,2.46,2.46
		C261.2,233.03,260.1,234.13,258.74,234.13z"/>
</g>
<path class="st3" d="M948.58,695.22c-0.58,0-1.06-0.47-1.06-1.05v-0.01c0-0.58,0.47-1.05,1.06-1.05s1.05,0.47,1.05,1.05
	S949.16,695.22,948.58,695.22z"/>
<path class="st3" d="M933.45,776.64"/>
<path class="st3" d="M942.74,776.64"/>
<path class="st3" d="M924.17,776.64"/>
<path class="st3" d="M914.88,776.64"/>
<path class="st3" d="M954.37,712.58c-0.58,0-1.05-0.47-1.05-1.05v-0.01c0-0.58,0.47-1.05,1.05-1.05s1.06,0.47,1.06,1.05
	S954.95,712.58,954.37,712.58z"/>
<path class="st3" d="M949.07,794.3c-1.03,0-1.99-0.65-2.33-1.68l-5.06-15.19c-0.43-1.29,0.27-2.68,1.56-3.11
	c1.29-0.43,2.68,0.27,3.11,1.56l5.06,15.19c0.43,1.29-0.27,2.68-1.56,3.11C949.59,794.25,949.32,794.3,949.07,794.3z"/>
<path class="st3" d="M912.63,604.15c-4.16,0-8.32-1.58-11.49-4.75c-6.33-6.34-6.33-16.64,0-22.98c6.33-6.33,16.64-6.33,22.98,0
	c6.33,6.33,6.33,16.64,0,22.98l0,0C920.95,602.56,916.79,604.15,912.63,604.15z M912.63,573.78c-3.62,0-7.24,1.38-10,4.13
	c-5.51,5.51-5.51,14.48,0,19.99c5.51,5.51,14.48,5.51,19.99,0c5.51-5.51,5.51-14.48,0-19.99
	C919.87,575.15,916.25,573.78,912.63,573.78z M923.37,598.65L923.37,598.65L923.37,598.65z"/>
<g>
	<path class="st3" d="M525.3,829.74c-0.2,0-0.4-0.02-0.6-0.07c-1.32-0.33-2.12-1.67-1.79-2.99l50.64-202.56
		c0.33-1.32,1.66-2.12,2.99-1.79c1.32,0.33,2.12,1.67,1.79,2.99l-50.64,202.56C527.4,829,526.4,829.74,525.3,829.74z"/>
	<path class="st3" d="M508.42,828.34c-0.08,0-0.17-0.01-0.26-0.03c-0.57-0.14-0.91-0.71-0.77-1.28l50.64-202.56
		c0.14-0.57,0.71-0.91,1.28-0.77c0.57,0.14,0.91,0.71,0.77,1.28l-50.64,202.57C509.32,828.02,508.89,828.34,508.42,828.34z"/>
	<path class="st3" d="M649.73,695.22c-0.58,0-1.06-0.47-1.06-1.05v-0.01c0-0.58,0.47-1.05,1.06-1.05s1.06,0.47,1.06,1.05
		S650.31,695.22,649.73,695.22z"/>
	<path class="st3" d="M630.8,792.54c-0.06,0-0.11-0.01-0.17-0.02c-0.38-0.09-0.61-0.48-0.51-0.85l3.8-15.19
		c0.09-0.38,0.47-0.61,0.85-0.51c0.38,0.09,0.61,0.48,0.51,0.85l-3.8,15.19C631.4,792.32,631.11,792.54,630.8,792.54z"/>
	<path class="st3" d="M640.08,792.54c-0.06,0-0.11-0.01-0.17-0.02c-0.38-0.09-0.61-0.48-0.51-0.85l3.8-15.19
		c0.09-0.38,0.47-0.61,0.85-0.51c0.38,0.09,0.61,0.48,0.51,0.85l-3.8,15.19C640.68,792.32,640.4,792.54,640.08,792.54z"/>
	<path class="st3" d="M621.51,792.54c-0.06,0-0.11-0.01-0.17-0.02c-0.38-0.09-0.61-0.48-0.51-0.85l3.8-15.19
		c0.09-0.38,0.48-0.61,0.85-0.51c0.38,0.09,0.61,0.48,0.51,0.85L622.2,792C622.12,792.32,621.83,792.54,621.51,792.54z"/>
	<path class="st3" d="M612.23,792.54c-0.06,0-0.11-0.01-0.17-0.02c-0.38-0.09-0.61-0.48-0.51-0.85l3.8-15.19
		c0.09-0.38,0.48-0.61,0.85-0.51c0.38,0.09,0.61,0.48,0.51,0.85l-3.8,15.19C612.83,792.32,612.55,792.54,612.23,792.54z"/>
	<path class="st3" d="M655.51,712.58c-0.58,0-1.05-0.47-1.05-1.05v-0.01c0-0.58,0.47-1.05,1.05-1.05s1.06,0.47,1.06,1.05
		S656.1,712.58,655.51,712.58z"/>
	<path class="st3" d="M491.54,828.34c-0.08,0-0.17-0.01-0.26-0.03c-0.57-0.14-0.91-0.71-0.77-1.28l50.64-202.56
		c0.14-0.57,0.71-0.91,1.28-0.77c0.57,0.14,0.91,0.71,0.77,1.28l-50.64,202.57C492.44,828.02,492.01,828.34,491.54,828.34z"/>
	<path class="st3" d="M673.23,850H463.45c-3.56,0-6.45-2.89-6.45-6.45v-12.28c0-3.56,2.89-6.45,6.45-6.45h209.78
		c3.56,0,6.45,2.89,6.45,6.45v12.28C679.68,847.11,676.79,850,673.23,850z M463.45,829.74c-0.84,0-1.53,0.68-1.53,1.53v12.28
		c0,0.84,0.68,1.53,1.53,1.53h209.78c0.84,0,1.53-0.68,1.53-1.53v-12.28c0-0.84-0.68-1.53-1.53-1.53H463.45z"/>
	<path class="st3" d="M641.77,627.18h-126.6c-4.15,0-7.53-3.38-7.53-7.53c0-4.15,3.38-7.53,7.53-7.53h126.6
		c4.15,0,7.53,3.38,7.53,7.53C649.3,623.8,645.92,627.18,641.77,627.18z M515.17,617.05c-1.43,0-2.6,1.17-2.6,2.6
		c0,1.44,1.17,2.6,2.6,2.6h126.6c1.43,0,2.6-1.17,2.6-2.6c0-1.43-1.17-2.6-2.6-2.6H515.17z"/>
	<path class="st3" d="M626.58,598.04H525.3c-4.15,0-7.53-3.38-7.53-7.53c0-4.15,3.38-7.53,7.53-7.53h101.28
		c4.15,0,7.53,3.38,7.53,7.53C634.1,594.66,630.73,598.04,626.58,598.04z M525.3,587.91c-1.43,0-2.6,1.17-2.6,2.6
		c0,1.44,1.17,2.6,2.6,2.6h101.28c1.43,0,2.6-1.17,2.6-2.6c0-1.43-1.17-2.6-2.6-2.6H525.3z"/>
	<path class="st3" d="M626.58,587.91c-1.36,0-2.46-1.1-2.46-2.46v-19.67c0-5.24-4.26-9.5-9.5-9.5h-77.35c-5.24,0-9.5,4.26-9.5,9.5
		v19.67c0,1.36-1.1,2.46-2.46,2.46s-2.46-1.1-2.46-2.46v-19.67c0-7.95,6.47-14.43,14.43-14.43h77.35c7.95,0,14.43,6.47,14.43,14.43
		v19.67C629.04,586.81,627.94,587.91,626.58,587.91z"/>
	<path class="st3" d="M525.3,617.05c-1.36,0-2.46-1.1-2.46-2.46v-19.01c0-1.36,1.1-2.46,2.46-2.46s2.46,1.1,2.46,2.46v19.01
		C527.76,615.95,526.65,617.05,525.3,617.05z"/>
	<path class="st3" d="M626.58,617.05c-1.36,0-2.46-1.1-2.46-2.46v-19.01c0-1.36,1.1-2.46,2.46-2.46s2.46,1.1,2.46,2.46v19.01
		C629.04,615.95,627.94,617.05,626.58,617.05z"/>
	<path class="st3" d="M563.51,676.9c-1.24,0-2.31-0.93-2.44-2.2c-0.15-1.35,0.83-2.57,2.18-2.71c25.05-2.73,43.52-11.85,53.42-26.38
		c7.37-10.82,7.46-20.8,7.46-20.9c0-1.36,1.1-2.46,2.46-2.46s2.46,1.1,2.46,2.46c0,0.47-0.09,11.61-8.31,23.67
		c-7.48,10.99-23.44,24.85-56.95,28.5C563.68,676.89,563.59,676.9,563.51,676.9z"/>
	<path class="st3" d="M566.45,663.74c-0.49,0-0.93-0.35-1.03-0.85c-0.11-0.57,0.26-1.13,0.83-1.24
		c34.9-6.85,46.04-26.28,49.58-37.26c0.18-0.55,0.77-0.86,1.33-0.68c0.55,0.18,0.86,0.77,0.68,1.33
		c-3.68,11.41-15.22,31.62-51.18,38.68C566.58,663.73,566.51,663.74,566.45,663.74z"/>
	<path class="st3" d="M569.23,652.62c-0.44,0-0.85-0.27-1-0.71c-0.19-0.55,0.1-1.15,0.65-1.34c19.56-6.74,28.91-18.04,33.3-26.34
		c0.27-0.52,0.91-0.71,1.43-0.44c0.51,0.27,0.71,0.91,0.44,1.43c-4.57,8.64-14.26,20.39-34.48,27.35
		C569.46,652.6,569.34,652.62,569.23,652.62z"/>
	<path class="st3" d="M572.67,638.83c-0.36,0-0.71-0.19-0.91-0.52c-0.3-0.5-0.13-1.15,0.38-1.44c6-3.52,11.05-7.83,15.02-12.8
		c0.36-0.46,1.03-0.53,1.48-0.17c0.46,0.36,0.53,1.03,0.17,1.48c-4.13,5.17-9.38,9.65-15.6,13.3
		C573.04,638.78,572.86,638.83,572.67,638.83z"/>
	<path class="st3" d="M662.03,829.74H474.65c-0.76,0-1.47-0.35-1.94-0.95c-0.47-0.6-0.63-1.38-0.45-2.11l50.64-202.56
		c0.27-1.1,1.26-1.86,2.39-1.86h101.28c1.06,0,2,0.68,2.34,1.68l48.02,144.05c0.87,2.61,0.45,5.38-1.16,7.61
		c-1.61,2.23-4.1,3.51-6.85,3.51h-20.36l3.98,11.95c0,0,0,0,0,0.01l11.81,35.44c0.25,0.75,0.12,1.58-0.34,2.22
		C663.56,829.36,662.82,829.74,662.03,829.74z M477.81,824.82h180.81l-10.18-30.53h-47.18c-1.36,0-2.46-1.1-2.46-2.46
		c0-6.11,2.63-17.65,12.59-17.65h33.7c0.04,0,0.07,0,0.11,0h23.72c1.14,0,2.18-0.53,2.85-1.46c0.67-0.93,0.85-2.08,0.48-3.17
		L624.8,627.18h-97.59L477.81,824.82z M603.91,789.37h42.89l-3.42-10.27h-31.99C605.94,779.1,604.36,785.67,603.91,789.37z"/>
	<path class="st3" d="M824.15,829.74c-0.2,0-0.4-0.02-0.6-0.07c-1.32-0.33-2.12-1.67-1.79-2.99l50.64-202.56
		c0.33-1.32,1.67-2.12,2.99-1.79c1.32,0.33,2.12,1.67,1.79,2.99l-50.64,202.56C826.26,829,825.26,829.74,824.15,829.74z"/>
	<path class="st3" d="M807.27,828.34c-0.08,0-0.17-0.01-0.26-0.03c-0.57-0.14-0.91-0.71-0.77-1.28l50.64-202.56
		c0.14-0.57,0.71-0.91,1.28-0.77c0.57,0.14,0.91,0.71,0.77,1.28l-50.64,202.57C808.18,828.02,807.74,828.34,807.27,828.34z"/>
	<path class="st3" d="M790.39,828.34c-0.08,0-0.17-0.01-0.26-0.03c-0.57-0.14-0.91-0.71-0.77-1.28l50.64-202.56
		c0.14-0.57,0.71-0.91,1.28-0.77c0.57,0.14,0.91,0.71,0.77,1.28l-50.64,202.57C791.29,828.02,790.86,828.34,790.39,828.34z"/>
	<path class="st3" d="M972.09,850H762.31c-3.56,0-6.45-2.89-6.45-6.45v-12.28c0-3.56,2.89-6.45,6.45-6.45h209.78
		c3.56,0,6.45,2.89,6.45,6.45v12.28C978.54,847.11,975.64,850,972.09,850z M762.31,829.74c-0.84,0-1.53,0.68-1.53,1.53v12.28
		c0,0.84,0.68,1.53,1.53,1.53h209.78c0.84,0,1.53-0.68,1.53-1.53v-12.28c0-0.84-0.68-1.53-1.53-1.53H762.31z"/>
	<path class="st3" d="M862.36,676.9c-1.24,0-2.31-0.93-2.44-2.2c-0.15-1.35,0.83-2.57,2.18-2.71c51.47-5.61,59.44-35.69,60.66-44.78
		c0.18-1.35,1.41-2.29,2.77-2.11c1.35,0.18,2.29,1.42,2.11,2.77c-1.34,9.98-9.98,43.02-65,49.02
		C862.54,676.89,862.45,676.9,862.36,676.9z"/>
	<path class="st3" d="M865.3,663.74c-0.49,0-0.93-0.35-1.03-0.85c-0.11-0.57,0.26-1.13,0.83-1.24c34.9-6.85,46.05-26.28,49.58-37.26
		c0.18-0.55,0.77-0.86,1.33-0.68c0.55,0.18,0.86,0.77,0.68,1.33c-3.68,11.41-15.22,31.62-51.18,38.68
		C865.44,663.73,865.37,663.74,865.3,663.74z"/>
	<path class="st3" d="M868.08,652.62c-0.44,0-0.85-0.27-1-0.71c-0.19-0.55,0.1-1.15,0.65-1.34c19.56-6.74,28.9-18.04,33.3-26.34
		c0.27-0.52,0.91-0.71,1.43-0.44c0.51,0.27,0.71,0.91,0.44,1.43c-4.57,8.64-14.26,20.39-34.48,27.35
		C868.31,652.6,868.2,652.62,868.08,652.62z"/>
	<path class="st3" d="M871.53,638.83c-0.36,0-0.71-0.19-0.91-0.52c-0.3-0.5-0.13-1.15,0.38-1.44c6-3.53,11.05-7.83,15.02-12.8
		c0.36-0.46,1.03-0.53,1.48-0.17c0.46,0.36,0.53,1.03,0.17,1.48c-4.13,5.17-9.38,9.65-15.6,13.3
		C871.9,638.78,871.71,638.83,871.53,638.83z"/>
	<path class="st3" d="M960.88,829.74H773.51c-0.76,0-1.47-0.35-1.94-0.95c-0.47-0.6-0.63-1.38-0.45-2.11l48.75-195.01
		c1.39-5.54,6.34-9.42,12.06-9.42h86.31c5.36,0,10.1,3.42,11.79,8.5l45.75,137.23c0.87,2.61,0.45,5.38-1.16,7.61
		c-1.61,2.23-4.1,3.51-6.85,3.51h-57.53c-1.36,0-2.46-1.1-2.46-2.46s1.1-2.46,2.46-2.46h57.53c1.15,0,2.19-0.53,2.86-1.46
		c0.67-0.93,0.85-2.08,0.48-3.17l-45.75-137.23c-1.02-3.07-3.89-5.13-7.12-5.13h-86.31c-3.45,0-6.45,2.34-7.28,5.69l-47.99,191.96
		h180.8l-10.74-32.21c-0.43-1.29,0.27-2.68,1.56-3.11c1.29-0.43,2.68,0.27,3.11,1.56l11.82,35.45c0.25,0.75,0.12,1.58-0.34,2.22
		C962.42,829.36,961.67,829.74,960.88,829.74z"/>
	<path class="st3" d="M839.53,626.12c-20.9,0-37.91-17.01-37.91-37.91s17.01-37.91,37.91-37.91s37.91,17.01,37.91,37.91
		S860.43,626.12,839.53,626.12z M839.53,555.22c-18.19,0-32.99,14.8-32.99,32.99c0,18.19,14.8,32.99,32.99,32.99
		c18.19,0,32.99-14.8,32.99-32.99C872.51,570.02,857.72,555.22,839.53,555.22z"/>
	<path class="st3" d="M839.53,614.58c-14.54,0-26.38-11.83-26.38-26.38s11.83-26.38,26.38-26.38s26.38,11.83,26.38,26.38
		S854.07,614.58,839.53,614.58z M839.53,563.94c-13.38,0-24.27,10.89-24.27,24.27s10.89,24.27,24.27,24.27s24.27-10.89,24.27-24.27
		S852.91,563.94,839.53,563.94z"/>
	<path class="st3" d="M839.53,604.45c-8.96,0-16.25-7.29-16.25-16.25s7.29-16.25,16.25-16.25s16.25,7.29,16.25,16.25
		S848.49,604.45,839.53,604.45z M839.53,574.07c-7.8,0-14.14,6.34-14.14,14.14s6.34,14.14,14.14,14.14c7.8,0,14.14-6.34,14.14-14.14
		S847.32,574.07,839.53,574.07z"/>
	<path class="st3" d="M839.53,590.67h-60.77c-1.36,0-2.46-1.1-2.46-2.46c0-1.36,1.1-2.46,2.46-2.46h60.77c1.36,0,2.46,1.1,2.46,2.46
		C841.99,589.57,840.89,590.67,839.53,590.67z"/>
	<path class="st3" d="M912.63,625.82c-10.13,0-19.65-3.94-26.81-11.1c-7.16-7.16-11.1-16.68-11.1-26.81
		c0-10.13,3.94-19.65,11.1-26.81c7.16-7.16,16.68-11.1,26.81-11.1s19.65,3.94,26.81,11.1c14.78,14.78,14.78,38.83,0,53.61v0
		C932.27,621.87,922.75,625.82,912.63,625.82z M912.63,554.92c-8.81,0-17.09,3.43-23.33,9.66c-6.23,6.23-9.66,14.51-9.66,23.33
		c0,8.81,3.43,17.1,9.66,23.33c6.23,6.23,14.51,9.66,23.33,9.66c8.81,0,17.1-3.43,23.33-9.66c12.86-12.86,12.86-33.79,0-46.65
		C929.72,558.35,921.44,554.92,912.63,554.92z M937.69,612.97L937.69,612.97L937.69,612.97z"/>
	<path class="st3" d="M912.63,614.28c-7.05,0-13.67-2.74-18.65-7.73c-10.28-10.28-10.28-27.02,0-37.3
		c4.98-4.98,11.61-7.73,18.65-7.73s13.67,2.74,18.65,7.73c10.28,10.28,10.28,27.02,0,37.3C926.3,611.54,919.67,614.28,912.63,614.28
		z M912.63,563.64c-6.48,0-12.58,2.52-17.16,7.11c-9.46,9.46-9.46,24.86,0,34.32c4.58,4.58,10.68,7.11,17.16,7.11
		c6.48,0,12.58-2.52,17.16-7.11l0,0c9.46-9.46,9.46-24.86,0-34.32C925.2,566.17,919.11,563.64,912.63,563.64z"/>
	<path class="st3" d="M912.63,590.37c-0.63,0-1.26-0.24-1.74-0.72l-42.97-42.97c-0.96-0.96-0.96-2.52,0-3.48
		c0.96-0.96,2.52-0.96,3.48,0l42.97,42.97c0.96,0.96,0.96,2.52,0,3.48C913.89,590.13,913.26,590.37,912.63,590.37z"/>
	<path class="st3" d="M596.19,694.26c-1.03,0-1.99-0.65-2.33-1.68c-0.43-1.29,0.27-2.68,1.56-3.11l21.59-7.2l-16.23-3.25
		c-1.33-0.27-2.2-1.56-1.93-2.9c0.27-1.33,1.57-2.2,2.9-1.93l25.32,5.06c1.09,0.22,1.9,1.15,1.97,2.26
		c0.07,1.11-0.62,2.14-1.68,2.49l-30.38,10.13C596.71,694.22,596.45,694.26,596.19,694.26z"/>
	<g>
		<g>
			<path class="st3" d="M897.14,700.85c-0.02,0-0.05,0-0.07,0c-0.39-0.04-0.67-0.38-0.63-0.77l1.05-10.46
				c0.04-0.39,0.38-0.66,0.77-0.63c0.39,0.04,0.67,0.38,0.63,0.77l-1.05,10.46C897.8,700.58,897.5,700.85,897.14,700.85z"/>
			<path class="st3" d="M926.19,691.94c-0.2,0-0.4-0.09-0.54-0.25l-6.73-8.08c-0.25-0.3-0.21-0.74,0.09-0.99
				c0.3-0.25,0.74-0.21,0.99,0.09l6.73,8.08c0.25,0.3,0.21,0.74-0.09,0.99C926.51,691.89,926.35,691.94,926.19,691.94z"/>
			<path class="st3" d="M911.66,696.39c-0.3,0-0.58-0.19-0.67-0.5l-1.98-6.46c-0.11-0.37,0.09-0.76,0.47-0.88
				c0.37-0.12,0.76,0.09,0.88,0.47l1.98,6.46c0.11,0.37-0.09,0.76-0.47,0.88C911.8,696.38,911.73,696.39,911.66,696.39z"/>
		</g>
		<path class="st3" d="M894.98,694.26c-1.03,0-1.99-0.65-2.33-1.68c-0.43-1.29,0.27-2.68,1.56-3.11l21.59-7.2l-16.23-3.25
			c-1.33-0.27-2.2-1.56-1.93-2.9c0.27-1.33,1.57-2.2,2.9-1.93l25.32,5.06c1.09,0.22,1.9,1.15,1.97,2.26
			c0.07,1.11-0.62,2.14-1.68,2.49l-30.38,10.13C895.5,694.22,895.23,694.26,894.98,694.26z"/>
	</g>
	<path class="st3" d="M626.58,598.04H525.3c-1.36,0-2.46-1.1-2.46-2.46c0-1.36,1.1-2.46,2.46-2.46h101.28c1.36,0,2.46,1.1,2.46,2.46
		C629.04,596.94,627.94,598.04,626.58,598.04z"/>
</g>
</svg>
