<?xml version="1.0" encoding="utf-8"?>
<!-- Generator: Adobe Illustrator 22.0.1, SVG Export Plug-In . SVG Version: 6.00 Build 0)  -->
<svg version="1.1" id="Calque_1" xmlns="http://www.w3.org/2000/svg" xmlns:xlink="http://www.w3.org/1999/xlink" x="0px" y="0px"
	 viewBox="0 0 105 145" style="enable-background:new 0 0 105 145;" xml:space="preserve">
<style type="text/css">
	.st0{fill:#2C3271;}
	.st1{fill:#53AFAD;}
</style>
<rect x="-1.8" y="-1" class="st0" width="110.5" height="147.9"/>
<path class="st1" d="M90.6,72.8c-0.3,0-0.5-0.2-0.5-0.5v0c0-0.3,0.2-0.5,0.5-0.5s0.5,0.2,0.5,0.5C91.1,72.6,90.9,72.8,90.6,72.8z"/>
<path class="st1" d="M83.5,110.9"/>
<path class="st1" d="M87.9,110.9"/>
<path class="st1" d="M79.2,110.9"/>
<path class="st1" d="M74.9,110.9"/>
<path class="st1" d="M93.3,80.9c-0.3,0-0.5-0.2-0.5-0.5v0c0-0.3,0.2-0.5,0.5-0.5s0.5,0.2,0.5,0.5C93.8,80.7,93.6,80.9,93.3,80.9z"/>
<path class="st1" d="M90.8,119.1c-0.5,0-0.9-0.3-1.1-0.8l-2.4-7.1c-0.2-0.6,0.1-1.3,0.7-1.5c0.6-0.2,1.3,0.1,1.5,0.7l2.4,7.1
	c0.2,0.6-0.1,1.3-0.7,1.5C91.1,119.1,91,119.1,90.8,119.1z"/>
<path class="st1" d="M73.8,30.2c-1.9,0-3.9-0.7-5.4-2.2c-3-3-3-7.8,0-10.7c3-3,7.8-3,10.7,0c3,3,3,7.8,0,10.7l0,0
	C77.7,29.5,75.8,30.2,73.8,30.2z M73.8,16c-1.7,0-3.4,0.6-4.7,1.9c-2.6,2.6-2.6,6.8,0,9.4c2.6,2.6,6.8,2.6,9.4,0
	c2.6-2.6,2.6-6.8,0-9.4C77.2,16.7,75.5,16,73.8,16z M78.8,27.6L78.8,27.6L78.8,27.6z"/>
<path class="st1" d="M32.2,135.4c-0.1,0-0.2,0-0.3,0c-0.6-0.2-1-0.8-0.8-1.4l23.7-94.7c0.2-0.6,0.8-1,1.4-0.8c0.6,0.2,1,0.8,0.8,1.4
	l-23.7,94.7C33.2,135,32.7,135.4,32.2,135.4z"/>
<path class="st1" d="M24.3,134.7c0,0-0.1,0-0.1,0c-0.3-0.1-0.4-0.3-0.4-0.6l23.7-94.7c0.1-0.3,0.3-0.4,0.6-0.4
	c0.3,0.1,0.4,0.3,0.4,0.6l-23.7,94.7C24.7,134.6,24.5,134.7,24.3,134.7z"/>
<path class="st1" d="M16.4,134.7c0,0-0.1,0-0.1,0c-0.3-0.1-0.4-0.3-0.4-0.6l23.7-94.7c0.1-0.3,0.3-0.4,0.6-0.4
	c0.3,0.1,0.4,0.3,0.4,0.6l-23.7,94.7C16.8,134.6,16.6,134.7,16.4,134.7z"/>
<path class="st1" d="M101.4,144.8H3.3c-1.7,0-3-1.4-3-3v-5.7c0-1.7,1.4-3,3-3h98.1c1.7,0,3,1.4,3,3v5.7
	C104.4,143.5,103,144.8,101.4,144.8z M3.3,135.4c-0.4,0-0.7,0.3-0.7,0.7v5.7c0,0.4,0.3,0.7,0.7,0.7h98.1c0.4,0,0.7-0.3,0.7-0.7v-5.7
	c0-0.4-0.3-0.7-0.7-0.7H3.3z"/>
<path class="st1" d="M50.1,63.9c-0.6,0-1.1-0.4-1.1-1c-0.1-0.6,0.4-1.2,1-1.3C74,59,77.7,44.9,78.3,40.6c0.1-0.6,0.7-1.1,1.3-1
	c0.6,0.1,1.1,0.7,1,1.3c-0.6,4.7-4.7,20.1-30.4,22.9C50.1,63.9,50.1,63.9,50.1,63.9z"/>
<path class="st1" d="M51.4,57.7c-0.2,0-0.4-0.2-0.5-0.4c-0.1-0.3,0.1-0.5,0.4-0.6c16.3-3.2,21.5-12.3,23.2-17.4
	c0.1-0.3,0.4-0.4,0.6-0.3c0.3,0.1,0.4,0.4,0.3,0.6C73.7,45,68.3,54.4,51.4,57.7C51.5,57.7,51.5,57.7,51.4,57.7z"/>
<path class="st1" d="M52.7,52.5c-0.2,0-0.4-0.1-0.5-0.3c-0.1-0.3,0-0.5,0.3-0.6c9.1-3.2,13.5-8.4,15.6-12.3c0.1-0.2,0.4-0.3,0.7-0.2
	c0.2,0.1,0.3,0.4,0.2,0.7c-2.1,4-6.7,9.5-16.1,12.8C52.8,52.5,52.8,52.5,52.7,52.5z"/>
<path class="st1" d="M54.3,46.1c-0.2,0-0.3-0.1-0.4-0.2c-0.1-0.2-0.1-0.5,0.2-0.7c2.8-1.6,5.2-3.7,7-6c0.2-0.2,0.5-0.2,0.7-0.1
	c0.2,0.2,0.2,0.5,0.1,0.7c-1.9,2.4-4.4,4.5-7.3,6.2C54.5,46.1,54.4,46.1,54.3,46.1z"/>
<path class="st1" d="M96.1,135.4H8.5c-0.4,0-0.7-0.2-0.9-0.4c-0.2-0.3-0.3-0.6-0.2-1l22.8-91.2c0.6-2.6,3-4.4,5.6-4.4h40.4
	c2.5,0,4.7,1.6,5.5,4l21.4,64.2c0.4,1.2,0.2,2.5-0.5,3.6s-1.9,1.6-3.2,1.6H72.4c-0.6,0-1.2-0.5-1.2-1.2s0.5-1.2,1.2-1.2h26.9
	c0.5,0,1-0.2,1.3-0.7c0.3-0.4,0.4-1,0.2-1.5L79.5,43c-0.5-1.4-1.8-2.4-3.3-2.4H35.8c-1.6,0-3,1.1-3.4,2.7L10,133.1h84.6l-5-15.1
	c-0.2-0.6,0.1-1.3,0.7-1.5c0.6-0.2,1.3,0.1,1.5,0.7l5.5,16.6c0.1,0.4,0.1,0.7-0.2,1C96.8,135.2,96.5,135.4,96.1,135.4z"/>
<path class="st1" d="M39.4,40.1c-9.8,0-17.7-8-17.7-17.7s8-17.7,17.7-17.7s17.7,8,17.7,17.7S49.2,40.1,39.4,40.1z M39.4,7
	C30.9,7,24,13.9,24,22.4s6.9,15.4,15.4,15.4c8.5,0,15.4-6.9,15.4-15.4S47.9,7,39.4,7z"/>
<path class="st1" d="M39.4,34.7c-6.8,0-12.3-5.5-12.3-12.3s5.5-12.3,12.3-12.3s12.3,5.5,12.3,12.3S46.2,34.7,39.4,34.7z M39.4,11.1
	c-6.3,0-11.3,5.1-11.3,11.3s5.1,11.3,11.3,11.3s11.3-5.1,11.3-11.3S45.6,11.1,39.4,11.1z"/>
<path class="st1" d="M39.4,30c-4.2,0-7.6-3.4-7.6-7.6s3.4-7.6,7.6-7.6s7.6,3.4,7.6,7.6S43.6,30,39.4,30z M39.4,15.8
	c-3.6,0-6.6,3-6.6,6.6s3,6.6,6.6,6.6c3.6,0,6.6-3,6.6-6.6S43,15.8,39.4,15.8z"/>
<path class="st1" d="M39.4,23.6H11c-0.6,0-1.2-0.5-1.2-1.2c0-0.6,0.5-1.2,1.2-1.2h28.4c0.6,0,1.2,0.5,1.2,1.2
	C40.5,23,40,23.6,39.4,23.6z"/>
<path class="st1" d="M73.6,40c-4.7,0-9.2-1.8-12.5-5.2c-3.3-3.3-5.2-7.8-5.2-12.5c0-4.7,1.8-9.2,5.2-12.5c3.3-3.3,7.8-5.2,12.5-5.2
	c4.7,0,9.2,1.8,12.5,5.2c6.9,6.9,6.9,18.2,0,25.1v0C82.8,38.1,78.3,40,73.6,40z M73.6,6.8c-4.1,0-8,1.6-10.9,4.5
	c-2.9,2.9-4.5,6.8-4.5,10.9c0,4.1,1.6,8,4.5,10.9c2.9,2.9,6.8,4.5,10.9,4.5c4.1,0,8-1.6,10.9-4.5c6-6,6-15.8,0-21.8
	C81.6,8.4,77.7,6.8,73.6,6.8z M85.3,34L85.3,34L85.3,34z"/>
<path class="st1" d="M73.6,34.6c-3.3,0-6.4-1.3-8.7-3.6c-4.8-4.8-4.8-12.6,0-17.4c2.3-2.3,5.4-3.6,8.7-3.6c3.3,0,6.4,1.3,8.7,3.6
	c4.8,4.8,4.8,12.6,0,17.4C80,33.3,76.9,34.6,73.6,34.6z M73.6,10.9c-3,0-5.9,1.2-8,3.3c-4.4,4.4-4.4,11.6,0,16c2.1,2.1,5,3.3,8,3.3
	c3,0,5.9-1.2,8-3.3l0,0c4.4-4.4,4.4-11.6,0-16C79.4,12.1,76.6,10.9,73.6,10.9z"/>
<path class="st1" d="M73.6,23.4c-0.3,0-0.6-0.1-0.8-0.3L52.7,3c-0.4-0.4-0.4-1.2,0-1.6c0.4-0.4,1.2-0.4,1.6,0l20.1,20.1
	c0.4,0.4,0.4,1.2,0,1.6C74.2,23.3,73.9,23.4,73.6,23.4z"/>
<g>
	<g>
		<path class="st1" d="M66.3,75.1C66.3,75.1,66.3,75.1,66.3,75.1c-0.2,0-0.3-0.2-0.3-0.4l0.5-4.9c0-0.2,0.2-0.3,0.4-0.3
			c0.2,0,0.3,0.2,0.3,0.4l-0.5,4.9C66.6,75,66.5,75.1,66.3,75.1z"/>
		<path class="st1" d="M79.9,70.9c-0.1,0-0.2,0-0.3-0.1L76.5,67c-0.1-0.1-0.1-0.3,0-0.5c0.1-0.1,0.3-0.1,0.5,0l3.1,3.8
			c0.1,0.1,0.1,0.3,0,0.5C80.1,70.9,80,70.9,79.9,70.9z"/>
		<path class="st1" d="M73.1,73c-0.1,0-0.3-0.1-0.3-0.2l-0.9-3c-0.1-0.2,0-0.4,0.2-0.4c0.2-0.1,0.4,0,0.4,0.2l0.9,3
			C73.5,72.7,73.4,72.9,73.1,73C73.2,73,73.1,73,73.1,73z"/>
	</g>
	<path class="st1" d="M65.3,72c-0.5,0-0.9-0.3-1.1-0.8c-0.2-0.6,0.1-1.3,0.7-1.5L75,66.4l-7.6-1.5c-0.6-0.1-1-0.7-0.9-1.4
		c0.1-0.6,0.7-1,1.4-0.9L79.7,65c0.5,0.1,0.9,0.5,0.9,1.1c0,0.5-0.3,1-0.8,1.2l-14.2,4.7C65.6,72,65.4,72,65.3,72z"/>
</g>
</svg>
