<?xml version="1.0" encoding="utf-8"?>
<!-- Generator: Adobe Illustrator 22.0.1, SVG Export Plug-In . SVG Version: 6.00 Build 0)  -->
<svg version="1.1" id="Calque_1" xmlns="http://www.w3.org/2000/svg" xmlns:xlink="http://www.w3.org/1999/xlink" x="0px" y="0px"
	 viewBox="0 0 105 140" style="enable-background:new 0 0 105 140;" xml:space="preserve">
<style type="text/css">
	.st0{fill:#2D3271;}
	.st1{fill:#C5D6F0;}
</style>
<rect x="-3" y="-3.3" class="st0" width="110.5" height="147.9"/>
<g>
	<g>
		<g>
			<path class="st1" d="M32.3,130.4c-0.1,0-0.2,0-0.3,0c-0.6-0.2-1-0.8-0.8-1.4l23.7-94.7c0.2-0.6,0.8-1,1.4-0.8
				c0.6,0.2,1,0.8,0.8,1.4l-23.7,94.7C33.3,130.1,32.8,130.4,32.3,130.4z"/>
			<path class="st1" d="M24.4,129.8c0,0-0.1,0-0.1,0c-0.3-0.1-0.4-0.3-0.4-0.6l23.7-94.7c0.1-0.3,0.3-0.4,0.6-0.4
				c0.3,0.1,0.4,0.3,0.4,0.6l-23.7,94.7C24.9,129.6,24.7,129.8,24.4,129.8z"/>
			<path class="st1" d="M90.5,67.5c-0.3,0-0.5-0.2-0.5-0.5v0c0-0.3,0.2-0.5,0.5-0.5c0.3,0,0.5,0.2,0.5,0.5
				C91,67.3,90.8,67.5,90.5,67.5z"/>
			<path class="st1" d="M81.7,113C81.6,113,81.6,113,81.7,113c-0.3-0.1-0.4-0.2-0.3-0.4l1.8-7.1c0-0.2,0.2-0.3,0.4-0.2
				c0.2,0,0.3,0.2,0.2,0.4l-1.8,7.1C82,112.9,81.8,113,81.7,113z"/>
			<path class="st1" d="M86,113C86,113,86,113,86,113c-0.3-0.1-0.4-0.2-0.3-0.4l1.8-7.1c0-0.2,0.2-0.3,0.4-0.2
				c0.2,0,0.3,0.2,0.2,0.4l-1.8,7.1C86.3,112.9,86.2,113,86,113z"/>
			<path class="st1" d="M77.3,113C77.3,113,77.3,113,77.3,113c-0.3-0.1-0.4-0.2-0.3-0.4l1.8-7.1c0-0.2,0.2-0.3,0.4-0.2
				c0.2,0,0.3,0.2,0.2,0.4l-1.8,7.1C77.6,112.9,77.5,113,77.3,113z"/>
			<path class="st1" d="M73,113C73,113,72.9,113,73,113c-0.3-0.1-0.4-0.2-0.3-0.4l1.8-7.1c0-0.2,0.2-0.3,0.4-0.2
				c0.2,0,0.3,0.2,0.2,0.4l-1.8,7.1C73.3,112.9,73.1,113,73,113z"/>
			<path class="st1" d="M93.2,75.6c-0.3,0-0.5-0.2-0.5-0.5v0c0-0.3,0.2-0.5,0.5-0.5c0.3,0,0.5,0.2,0.5,0.5
				C93.7,75.4,93.5,75.6,93.2,75.6z"/>
			<path class="st1" d="M16.5,129.8c0,0-0.1,0-0.1,0c-0.3-0.1-0.4-0.3-0.4-0.6l23.7-94.7c0.1-0.3,0.3-0.4,0.6-0.4
				c0.3,0.1,0.4,0.3,0.4,0.6L17,129.4C17,129.6,16.8,129.8,16.5,129.8z"/>
			<path class="st1" d="M101.5,139.9H3.4c-1.7,0-3-1.4-3-3v-5.7c0-1.7,1.4-3,3-3h98.1c1.7,0,3,1.4,3,3v5.7
				C104.5,138.6,103.2,139.9,101.5,139.9z M3.4,130.4c-0.4,0-0.7,0.3-0.7,0.7v5.7c0,0.4,0.3,0.7,0.7,0.7h98.1c0.4,0,0.7-0.3,0.7-0.7
				v-5.7c0-0.4-0.3-0.7-0.7-0.7H3.4z"/>
			<path class="st1" d="M86.8,35.7H27.6c-1.9,0-3.5-1.6-3.5-3.5s1.6-3.5,3.5-3.5h59.2c1.9,0,3.5,1.6,3.5,3.5S88.7,35.7,86.8,35.7z
				 M27.6,31c-0.7,0-1.2,0.5-1.2,1.2c0,0.7,0.5,1.2,1.2,1.2h59.2c0.7,0,1.2-0.5,1.2-1.2c0-0.7-0.5-1.2-1.2-1.2H27.6z"/>
			<path class="st1" d="M79.7,31c-0.6,0-1.2-0.5-1.2-1.2V7c0-2.4-2-4.4-4.4-4.4H37.9c-2.4,0-4.4,2-4.4,4.4v22.8
				c0,0.6-0.5,1.2-1.2,1.2s-1.2-0.5-1.2-1.2V7c0-3.7,3-6.7,6.7-6.7h36.2c3.7,0,6.7,3,6.7,6.7v22.8C80.8,30.5,80.3,31,79.7,31z"/>
			<path class="st1" d="M50.2,59c-0.6,0-1.1-0.4-1.1-1c-0.1-0.6,0.4-1.2,1-1.3c11.7-1.3,20.4-5.5,25-12.3c3.4-5.1,3.5-9.7,3.5-9.8
				c0-0.6,0.5-1.2,1.2-1.2s1.2,0.5,1.2,1.2c0,0.2,0,5.4-3.9,11.1C73.5,50.8,66,57.2,50.3,59C50.3,59,50.2,59,50.2,59z"/>
			<path class="st1" d="M51.6,52.8c-0.2,0-0.4-0.2-0.5-0.4c-0.1-0.3,0.1-0.5,0.4-0.6C67.8,48.6,73,39.5,74.7,34.4
				c0.1-0.3,0.4-0.4,0.6-0.3c0.3,0.1,0.4,0.4,0.3,0.6C73.9,40,68.5,49.5,51.6,52.8C51.6,52.8,51.6,52.8,51.6,52.8z"/>
			<path class="st1" d="M52.9,47.6c-0.2,0-0.4-0.1-0.5-0.3c-0.1-0.3,0-0.5,0.3-0.6c9.1-3.2,13.5-8.4,15.6-12.3
				c0.1-0.2,0.4-0.3,0.7-0.2c0.2,0.1,0.3,0.4,0.2,0.7c-2.1,4-6.7,9.5-16.1,12.8C53,47.6,52.9,47.6,52.9,47.6z"/>
			<path class="st1" d="M54.5,41.2c-0.2,0-0.3-0.1-0.4-0.2c-0.1-0.2-0.1-0.5,0.2-0.7c2.8-1.6,5.2-3.7,7-6c0.2-0.2,0.5-0.2,0.7-0.1
				c0.2,0.2,0.2,0.5,0.1,0.7c-1.9,2.4-4.4,4.5-7.3,6.2C54.7,41.1,54.6,41.2,54.5,41.2z"/>
			<path class="st1" d="M72.6,66.5c-8.2,0-8.3-5.8-8.3-5.9c0-0.6,0.5-1.2,1.2-1.2s1.2,0.5,1.2,1.2c0,0.4,0.3,3.6,6,3.6
				c5.9,0,6-3.4,6-3.6c0-0.6,0.5-1.2,1.2-1.2s1.2,0.5,1.2,1.2C80.8,60.7,80.8,66.5,72.6,66.5z"/>
			<path class="st1" d="M96.3,130.4H8.6c-0.4,0-0.7-0.2-0.9-0.4c-0.2-0.3-0.3-0.6-0.2-1l23.7-94.7c0.1-0.5,0.6-0.9,1.1-0.9h47.4
				c0.5,0,0.9,0.3,1.1,0.8l22.5,67.4c0.4,1.2,0.2,2.5-0.5,3.6c-0.8,1-1.9,1.6-3.2,1.6H90l1.9,5.6c0,0,0,0,0,0l5.5,16.6
				c0.1,0.4,0.1,0.7-0.2,1C97,130.3,96.6,130.4,96.3,130.4z M10.1,128.1h84.6l-4.8-14.3H67.9c-0.6,0-1.2-0.5-1.2-1.2
				c0-2.9,1.2-8.3,5.9-8.3h15.8c0,0,0,0,0.1,0h11.1c0.5,0,1-0.2,1.3-0.7c0.3-0.4,0.4-1,0.2-1.5L78.9,35.7H33.2L10.1,128.1z
				 M69.1,111.6h20.1l-1.6-4.8h-15C70,106.8,69.3,109.8,69.1,111.6z"/>
			<path class="st1" d="M73.2,8.3c-0.8,0-1.5-0.7-1.5-1.5c0-0.8,0.7-1.5,1.5-1.5c0.8,0,1.5,0.7,1.5,1.5C74.7,7.7,74,8.3,73.2,8.3z
				 M73.2,6c-0.5,0-0.9,0.4-0.9,0.9s0.4,0.9,0.9,0.9S74,7.3,74,6.8S73.7,6,73.2,6z"/>
			<path class="st1" d="M68.4,8.3h-7.1c-0.8,0-1.5-0.7-1.5-1.5c0-0.8,0.7-1.5,1.5-1.5h7.1C69.3,5.3,70,6,70,6.8
				C70,7.7,69.3,8.3,68.4,8.3z M61.3,6c-0.5,0-0.9,0.4-0.9,0.9s0.4,0.9,0.9,0.9h7.1c0.5,0,0.9-0.4,0.9-0.9S68.9,6,68.4,6H61.3z"/>
		</g>
	</g>
</g>
</svg>
