<?xml version="1.0" encoding="utf-8"?>
<!-- Generator: Adobe Illustrator 22.0.1, SVG Export Plug-In . SVG Version: 6.00 Build 0)  -->
<svg version="1.1" id="Calque_1" xmlns="http://www.w3.org/2000/svg" xmlns:xlink="http://www.w3.org/1999/xlink" x="0px" y="0px"
	 viewBox="0 0 105 140" style="enable-background:new 0 0 105 140;" xml:space="preserve">
<style type="text/css">
	.st0{fill:#2C3271;}
	.st1{fill:#E8486F;}
</style>
<rect x="-2.1" y="-3.4" class="st0" width="110.5" height="147.9"/>
<g>
	<path class="st1" d="M32.5,130.4c-0.1,0-0.2,0-0.3,0c-0.6-0.2-1-0.8-0.8-1.4L55,34.3c0.2-0.6,0.8-1,1.4-0.8c0.6,0.2,1,0.8,0.8,1.4
		l-23.7,94.7C33.4,130.1,33,130.4,32.5,130.4z"/>
	<path class="st1" d="M24.6,129.8c0,0-0.1,0-0.1,0c-0.3-0.1-0.4-0.3-0.4-0.6l23.7-94.7c0.1-0.3,0.3-0.4,0.6-0.4
		c0.3,0.1,0.4,0.3,0.4,0.6L25,129.4C25,129.6,24.8,129.8,24.6,129.8z"/>
	<path class="st1" d="M90.7,67.5c-0.3,0-0.5-0.2-0.5-0.5v0c0-0.3,0.2-0.5,0.5-0.5c0.3,0,0.5,0.2,0.5,0.5
		C91.1,67.3,90.9,67.5,90.7,67.5z"/>
	<path class="st1" d="M81.8,113C81.8,113,81.7,113,81.8,113c-0.3-0.1-0.4-0.2-0.3-0.4l1.8-7.1c0-0.2,0.2-0.3,0.4-0.2
		c0.2,0,0.3,0.2,0.2,0.4l-1.8,7.1C82.1,112.9,82,113,81.8,113z"/>
	<path class="st1" d="M86.1,113C86.1,113,86.1,113,86.1,113c-0.3-0.1-0.4-0.2-0.3-0.4l1.8-7.1c0-0.2,0.2-0.3,0.4-0.2
		c0.2,0,0.3,0.2,0.2,0.4l-1.8,7.1C86.4,112.9,86.3,113,86.1,113z"/>
	<path class="st1" d="M77.5,113C77.4,113,77.4,113,77.5,113c-0.3-0.1-0.4-0.2-0.3-0.4l1.8-7.1c0-0.2,0.2-0.3,0.4-0.2
		c0.2,0,0.3,0.2,0.2,0.4l-1.8,7.1C77.7,112.9,77.6,113,77.5,113z"/>
	<path class="st1" d="M73.1,113C73.1,113,73.1,113,73.1,113c-0.3-0.1-0.4-0.2-0.3-0.4l1.8-7.1c0-0.2,0.2-0.3,0.4-0.2
		c0.2,0,0.3,0.2,0.2,0.4l-1.8,7.1C73.4,112.9,73.3,113,73.1,113z"/>
	<path class="st1" d="M93.4,75.7c-0.3,0-0.5-0.2-0.5-0.5v0c0-0.3,0.2-0.5,0.5-0.5c0.3,0,0.5,0.2,0.5,0.5
		C93.9,75.4,93.6,75.7,93.4,75.7z"/>
	<path class="st1" d="M16.7,129.8c0,0-0.1,0-0.1,0c-0.3-0.1-0.4-0.3-0.4-0.6l23.7-94.7c0.1-0.3,0.3-0.4,0.6-0.4
		c0.3,0.1,0.4,0.3,0.4,0.6l-23.7,94.7C17.1,129.6,16.9,129.8,16.7,129.8z"/>
	<path class="st1" d="M101.6,139.9H3.5c-1.7,0-3-1.4-3-3v-5.7c0-1.7,1.4-3,3-3h98.1c1.7,0,3,1.4,3,3v5.7
		C104.7,138.6,103.3,139.9,101.6,139.9z M3.5,130.4c-0.4,0-0.7,0.3-0.7,0.7v5.7c0,0.4,0.3,0.7,0.7,0.7h98.1c0.4,0,0.7-0.3,0.7-0.7
		v-5.7c0-0.4-0.3-0.7-0.7-0.7H3.5z"/>
	<path class="st1" d="M86.9,35.7H27.7c-1.9,0-3.5-1.6-3.5-3.5s1.6-3.5,3.5-3.5h59.2c1.9,0,3.5,1.6,3.5,3.5S88.9,35.7,86.9,35.7z
		 M27.7,31c-0.7,0-1.2,0.5-1.2,1.2c0,0.7,0.5,1.2,1.2,1.2h59.2c0.7,0,1.2-0.5,1.2-1.2c0-0.7-0.5-1.2-1.2-1.2H27.7z"/>
	<path class="st1" d="M79.8,31c-0.6,0-1.2-0.5-1.2-1.2v-4.7c0-12.4-10.1-22.5-22.5-22.5S33.6,12.7,33.6,25.1v4.7
		c0,0.6-0.5,1.2-1.2,1.2c-0.6,0-1.2-0.5-1.2-1.2v-4.7c0-13.7,11.1-24.8,24.8-24.8S81,11.4,81,25.1v4.7C81,30.5,80.5,31,79.8,31z"/>
	<path class="st1" d="M50.3,59c-0.6,0-1.1-0.4-1.1-1c-0.1-0.6,0.4-1.2,1-1.3c11.7-1.3,20.4-5.5,25-12.3c3.4-5.1,3.5-9.7,3.5-9.8
		c0-0.6,0.5-1.2,1.2-1.2s1.2,0.5,1.2,1.2c0,0.2,0,5.4-3.9,11.1c-3.5,5.1-11,11.6-26.6,13.3C50.4,59,50.4,59,50.3,59z"/>
	<path class="st1" d="M51.7,52.8c-0.2,0-0.4-0.2-0.5-0.4c-0.1-0.3,0.1-0.5,0.4-0.6c16.3-3.2,21.5-12.3,23.2-17.4
		c0.1-0.3,0.4-0.4,0.6-0.3c0.3,0.1,0.4,0.4,0.3,0.6C74,40,68.6,49.5,51.7,52.8C51.8,52.8,51.7,52.8,51.7,52.8z"/>
	<path class="st1" d="M53,47.6c-0.2,0-0.4-0.1-0.5-0.3c-0.1-0.3,0-0.5,0.3-0.6c9.1-3.2,13.5-8.4,15.6-12.3c0.1-0.2,0.4-0.3,0.7-0.2
		c0.2,0.1,0.3,0.4,0.2,0.7c-2.1,4-6.7,9.5-16.1,12.8C53.1,47.6,53.1,47.6,53,47.6z"/>
	<path class="st1" d="M54.6,41.2c-0.2,0-0.3-0.1-0.4-0.2c-0.1-0.2-0.1-0.5,0.2-0.7c2.8-1.6,5.2-3.7,7-6c0.2-0.2,0.5-0.2,0.7-0.1
		c0.2,0.2,0.2,0.5,0.1,0.7c-1.9,2.4-4.4,4.5-7.3,6.2C54.8,41.1,54.7,41.2,54.6,41.2z"/>
	<path class="st1" d="M96.4,130.4H8.8c-0.4,0-0.7-0.2-0.9-0.4c-0.2-0.3-0.3-0.6-0.2-1l23.7-94.7c0.1-0.5,0.6-0.9,1.1-0.9h47.4
		c0.5,0,0.9,0.3,1.1,0.8l22.5,67.4c0.4,1.2,0.2,2.5-0.5,3.6s-1.9,1.6-3.2,1.6h-9.5l7.4,22.2c0.1,0.4,0.1,0.7-0.2,1
		C97.1,130.3,96.8,130.4,96.4,130.4z M10.3,128.1h84.6l-4.8-14.3H68c-0.6,0-1.2-0.5-1.2-1.2c0-2.9,1.2-8.3,5.9-8.3h15.8
		c0,0,0,0,0.1,0h11.1c0.5,0,1-0.2,1.3-0.7c0.3-0.4,0.4-1,0.2-1.5L79,35.7H33.4L10.3,128.1z M69.2,111.6h20.1l-1.6-4.8h-15
		C70.2,106.8,69.4,109.8,69.2,111.6z"/>
	<path class="st1" d="M79.9,67.1H65.7c-0.6,0-1.2-0.5-1.2-1.2s0.5-1.2,1.2-1.2h14.2c0.6,0,1.2,0.5,1.2,1.2S80.5,67.1,79.9,67.1z"/>
	<path class="st1" d="M79.9,62.3H65.7c-0.6,0-1.2-0.5-1.2-1.2c0-0.6,0.5-1.2,1.2-1.2h14.2c0.6,0,1.2,0.5,1.2,1.2
		C81,61.8,80.5,62.3,79.9,62.3z"/>
</g>
</svg>
