<?xml version="1.0" encoding="utf-8"?>
<!-- Generator: Adobe Illustrator 22.0.1, SVG Export Plug-In . SVG Version: 6.00 Build 0)  -->
<svg version="1.1" id="Calque_1" xmlns="http://www.w3.org/2000/svg" xmlns:xlink="http://www.w3.org/1999/xlink" x="0px" y="0px"
	 viewBox="0 0 105 140" style="enable-background:new 0 0 105 140;" xml:space="preserve">
<style type="text/css">
	.st0{fill:#2C3271;}
	.st1{fill:#53AFAD;}
</style>
<rect x="-2.7" y="-2.8" class="st0" width="110.5" height="147.9"/>
<g>
	<path class="st1" d="M32.4,130.3c-0.1,0-0.2,0-0.3,0c-0.6-0.2-1-0.8-0.8-1.4L55,34.1c0.2-0.6,0.8-1,1.4-0.8c0.6,0.2,1,0.8,0.8,1.4
		l-23.7,94.7C33.4,130,32.9,130.3,32.4,130.3z"/>
	<path class="st1" d="M24.5,129.6c0,0-0.1,0-0.1,0c-0.3-0.1-0.4-0.3-0.4-0.6l23.7-94.7c0.1-0.3,0.3-0.4,0.6-0.4
		c0.3,0.1,0.4,0.3,0.4,0.6L25,129.3C25,129.5,24.8,129.6,24.5,129.6z"/>
	<path class="st1" d="M90.6,67.4c-0.3,0-0.5-0.2-0.5-0.5v0c0-0.3,0.2-0.5,0.5-0.5s0.5,0.2,0.5,0.5S90.9,67.4,90.6,67.4z"/>
	<path class="st1" d="M81.8,112.9C81.7,112.9,81.7,112.9,81.8,112.9c-0.3-0.1-0.4-0.2-0.3-0.4l1.8-7.1c0-0.2,0.2-0.3,0.4-0.2
		c0.2,0,0.3,0.2,0.2,0.4l-1.8,7.1C82,112.8,81.9,112.9,81.8,112.9z"/>
	<path class="st1" d="M86.1,112.9C86.1,112.9,86.1,112.9,86.1,112.9c-0.3-0.1-0.4-0.2-0.3-0.4l1.8-7.1c0-0.2,0.2-0.3,0.4-0.2
		c0.2,0,0.3,0.2,0.2,0.4l-1.8,7.1C86.4,112.8,86.3,112.9,86.1,112.9z"/>
	<path class="st1" d="M77.4,112.9C77.4,112.9,77.4,112.9,77.4,112.9c-0.3-0.1-0.4-0.2-0.3-0.4l1.8-7.1c0-0.2,0.2-0.3,0.4-0.2
		c0.2,0,0.3,0.2,0.2,0.4l-1.8,7.1C77.7,112.8,77.6,112.9,77.4,112.9z"/>
	<path class="st1" d="M73.1,112.9C73.1,112.9,73,112.9,73.1,112.9c-0.3-0.1-0.4-0.2-0.3-0.4l1.8-7.1c0-0.2,0.2-0.3,0.4-0.2
		c0.2,0,0.3,0.2,0.2,0.4l-1.8,7.1C73.4,112.8,73.2,112.9,73.1,112.9z"/>
	<path class="st1" d="M93.3,75.5c-0.3,0-0.5-0.2-0.5-0.5v0c0-0.3,0.2-0.5,0.5-0.5c0.3,0,0.5,0.2,0.5,0.5
		C93.8,75.3,93.6,75.5,93.3,75.5z"/>
	<path class="st1" d="M16.6,129.6c0,0-0.1,0-0.1,0c-0.3-0.1-0.4-0.3-0.4-0.6l23.7-94.7c0.1-0.3,0.3-0.4,0.6-0.4
		c0.3,0.1,0.4,0.3,0.4,0.6l-23.7,94.7C17.1,129.5,16.9,129.6,16.6,129.6z"/>
	<path class="st1" d="M101.6,139.8H3.5c-1.7,0-3-1.4-3-3V131c0-1.7,1.4-3,3-3h98.1c1.7,0,3,1.4,3,3v5.7
		C104.6,138.4,103.3,139.8,101.6,139.8z M3.5,130.3c-0.4,0-0.7,0.3-0.7,0.7v5.7c0,0.4,0.3,0.7,0.7,0.7h98.1c0.4,0,0.7-0.3,0.7-0.7
		V131c0-0.4-0.3-0.7-0.7-0.7H3.5z"/>
	<path class="st1" d="M86.9,35.6H27.7c-1.9,0-3.5-1.6-3.5-3.5s1.6-3.5,3.5-3.5h59.2c1.9,0,3.5,1.6,3.5,3.5S88.8,35.6,86.9,35.6z
		 M27.7,30.8c-0.7,0-1.2,0.5-1.2,1.2c0,0.7,0.5,1.2,1.2,1.2h59.2c0.7,0,1.2-0.5,1.2-1.2c0-0.7-0.5-1.2-1.2-1.2H27.7z"/>
	<path class="st1" d="M79.8,21.9H32.4c-1.9,0-3.5-1.6-3.5-3.5s1.6-3.5,3.5-3.5h47.4c1.9,0,3.5,1.6,3.5,3.5S81.7,21.9,79.8,21.9z
		 M32.4,17.2c-0.7,0-1.2,0.5-1.2,1.2c0,0.7,0.5,1.2,1.2,1.2h47.4c0.7,0,1.2-0.5,1.2-1.2c0-0.7-0.5-1.2-1.2-1.2H32.4z"/>
	<path class="st1" d="M79.8,17.2c-0.6,0-1.2-0.5-1.2-1.2V6.9c0-2.5-2-4.4-4.4-4.4H38c-2.5,0-4.4,2-4.4,4.4v9.2
		c0,0.6-0.5,1.2-1.2,1.2s-1.2-0.5-1.2-1.2V6.9c0-3.7,3-6.7,6.7-6.7h36.2c3.7,0,6.7,3,6.7,6.7v9.2C80.9,16.7,80.4,17.2,79.8,17.2z"/>
	<path class="st1" d="M32.4,30.8c-0.6,0-1.2-0.5-1.2-1.2v-8.9c0-0.6,0.5-1.2,1.2-1.2s1.2,0.5,1.2,1.2v8.9
		C33.6,30.3,33.1,30.8,32.4,30.8z"/>
	<path class="st1" d="M79.8,30.8c-0.6,0-1.2-0.5-1.2-1.2v-8.9c0-0.6,0.5-1.2,1.2-1.2s1.2,0.5,1.2,1.2v8.9
		C80.9,30.3,80.4,30.8,79.8,30.8z"/>
	<path class="st1" d="M50.3,58.8c-0.6,0-1.1-0.4-1.1-1c-0.1-0.6,0.4-1.2,1-1.3c11.7-1.3,20.4-5.5,25-12.3c3.4-5.1,3.5-9.7,3.5-9.8
		c0-0.6,0.5-1.2,1.2-1.2s1.2,0.5,1.2,1.2c0,0.2,0,5.4-3.9,11.1c-3.5,5.1-11,11.6-26.6,13.3C50.4,58.8,50.3,58.8,50.3,58.8z"/>
	<path class="st1" d="M51.7,52.7c-0.2,0-0.4-0.2-0.5-0.4c-0.1-0.3,0.1-0.5,0.4-0.6c16.3-3.2,21.5-12.3,23.2-17.4
		c0.1-0.3,0.4-0.4,0.6-0.3c0.3,0.1,0.4,0.4,0.3,0.6C74,39.9,68.6,49.4,51.7,52.7C51.7,52.7,51.7,52.7,51.7,52.7z"/>
	<path class="st1" d="M53,47.5c-0.2,0-0.4-0.1-0.5-0.3c-0.1-0.3,0-0.5,0.3-0.6c9.1-3.2,13.5-8.4,15.6-12.3c0.1-0.2,0.4-0.3,0.7-0.2
		c0.2,0.1,0.3,0.4,0.2,0.7c-2.1,4-6.7,9.5-16.1,12.8C53.1,47.5,53,47.5,53,47.5z"/>
	<path class="st1" d="M54.6,41c-0.2,0-0.3-0.1-0.4-0.2c-0.1-0.2-0.1-0.5,0.2-0.7c2.8-1.6,5.2-3.7,7-6c0.2-0.2,0.5-0.2,0.7-0.1
		c0.2,0.2,0.2,0.5,0.1,0.7c-1.9,2.4-4.4,4.5-7.3,6.2C54.8,41,54.7,41,54.6,41z"/>
	<path class="st1" d="M96.4,130.3H8.7c-0.4,0-0.7-0.2-0.9-0.4c-0.2-0.3-0.3-0.6-0.2-1l23.7-94.7c0.1-0.5,0.6-0.9,1.1-0.9h47.4
		c0.5,0,0.9,0.3,1.1,0.8l22.5,67.4c0.4,1.2,0.2,2.5-0.5,3.6c-0.8,1-1.9,1.6-3.2,1.6h-9.5l1.9,5.6c0,0,0,0,0,0l5.5,16.6
		c0.1,0.4,0.1,0.7-0.2,1C97.1,130.1,96.7,130.3,96.4,130.3z M10.2,128h84.6L90,113.7H67.9c-0.6,0-1.2-0.5-1.2-1.2
		c0-2.9,1.2-8.3,5.9-8.3h15.8c0,0,0,0,0.1,0h11.1c0.5,0,1-0.2,1.3-0.7c0.3-0.4,0.4-1,0.2-1.5L79,35.6H33.3L10.2,128z M69.2,111.4
		h20.1l-1.6-4.8h-15C70.1,106.6,69.4,109.7,69.2,111.4z"/>
	<path class="st1" d="M65.6,66.9c-0.5,0-0.9-0.3-1.1-0.8c-0.2-0.6,0.1-1.3,0.7-1.5l10.1-3.4l-7.6-1.5c-0.6-0.1-1-0.7-0.9-1.4
		c0.1-0.6,0.7-1,1.4-0.9L80,59.9c0.5,0.1,0.9,0.5,0.9,1.1c0,0.5-0.3,1-0.8,1.2l-14.2,4.7C65.8,66.9,65.7,66.9,65.6,66.9z"/>
	<path class="st1" d="M79.8,21.9H32.4c-0.6,0-1.2-0.5-1.2-1.2s0.5-1.2,1.2-1.2h47.4c0.6,0,1.2,0.5,1.2,1.2S80.4,21.9,79.8,21.9z"/>
</g>
</svg>
