<?xml version="1.0" encoding="utf-8"?>
<!-- Generator: Adobe Illustrator 22.0.1, SVG Export Plug-In . SVG Version: 6.00 Build 0)  -->
<svg version="1.1" id="Calque_1" xmlns="http://www.w3.org/2000/svg" xmlns:xlink="http://www.w3.org/1999/xlink" x="0px" y="0px"
	 viewBox="0 0 114.7 51.4" style="enable-background:new 0 0 114.7 51.4;" xml:space="preserve">
<style type="text/css">
	.st0{fill:#C3D5EF;}
	.st1{fill:#2B3037;}
</style>
<path class="st0" d="M-23.3-26.7V74.7h191.1V-26.7H-23.3z"/>
<path class="st1" d="M12.3,1.2v6.9H6.1V1.2H2.6v18.3h3.5v-8h6.1v8h3.5V1.2H12.3z"/>
<path class="st1" d="M22.4,1c-0.4-0.4-0.9-0.6-1.5-0.6c-0.6,0-1.1,0.2-1.5,0.6C19,1.5,18.8,2,18.8,2.6c0,0.6,0.2,1.2,0.6,1.6
	c0.4,0.4,0.9,0.6,1.5,0.6c0.6,0,1.1-0.2,1.5-0.6c0.4-0.4,0.6-0.9,0.6-1.6C23.1,2,22.9,1.5,22.4,1z M19.2,6v13.5h3.4V6H19.2z"/>
<path class="st1" d="M33.8,13.8c-0.1-0.2-0.2-0.4-0.3-0.5c-0.5-0.7-1.4-1.3-2.7-2l-1.2-0.6c-0.5-0.3-0.9-0.5-1-0.6
	c-0.1-0.2-0.2-0.3-0.2-0.5c0-0.2,0.1-0.4,0.3-0.6c0.2-0.2,0.5-0.2,0.9-0.2c0.7,0,1.5,0.4,2.3,1.3L34,7.9c-0.5-0.7-1.2-1.3-2-1.7
	c-0.8-0.4-1.6-0.6-2.5-0.6c-1.3,0-2.3,0.4-3.2,1.1c-0.8,0.8-1.2,1.7-1.2,2.7c0,1.7,1.1,3,3.3,4.1l0.3,0.2l0.8,0.4
	c1,0.5,1.5,1,1.5,1.5c0,0.1,0,0.1,0,0.2c0,0.2-0.2,0.4-0.4,0.6c-0.3,0.2-0.6,0.3-1.1,0.3c-0.4,0-0.9-0.1-1.4-0.4
	c-0.3-0.1-0.5-0.3-0.7-0.5c-0.2-0.2-0.5-0.4-0.7-0.7l-0.6,0.7l-1.5,1.6c0.1,0.2,0.3,0.4,0.4,0.5c1.1,1.2,2.6,1.8,4.3,1.8
	c1.5,0,2.7-0.4,3.6-1.2c0.2-0.2,0.4-0.4,0.5-0.6c0.5-0.6,0.7-1.3,0.8-2.1c0-0.1,0-0.2,0-0.3C34.2,15,34.1,14.4,33.8,13.8z"/>
<path class="st1" d="M40.7,6V1h-3.4v5h-1.7v2.9h1.7v10.6h3.4V8.9h2V6H40.7z"/>
<path class="st1" d="M57.2,9.2c-0.6-1.1-1.5-2-2.6-2.6c-1.1-0.6-2.3-1-3.6-1c-1.8,0-3.3,0.6-4.7,1.8c-1.6,1.4-2.3,3.2-2.3,5.3
	c0,0.4,0,0.7,0.1,1.1c0.1,0.8,0.3,1.5,0.6,2.1c0.3,0.7,0.8,1.3,1.3,1.9c0.1,0.1,0.2,0.2,0.3,0.3c1.3,1.2,2.9,1.8,4.7,1.8
	c1.3,0,2.5-0.3,3.6-0.9c0.4-0.2,0.8-0.5,1.2-0.9c0.5-0.5,1-1.1,1.4-1.7c0.1-0.1,0.1-0.3,0.2-0.4c0.3-0.7,0.6-1.4,0.7-2.1
	c0.1-0.4,0.1-0.7,0.1-1.1C58.1,11.5,57.8,10.3,57.2,9.2z M53.6,15.6c-0.1,0.1-0.2,0.2-0.4,0.3c-0.6,0.5-1.4,0.8-2.3,0.8
	c-0.9,0-1.7-0.3-2.3-0.8c-0.1-0.1-0.2-0.2-0.4-0.3c-0.5-0.5-0.8-1.1-0.9-1.8c-0.1-0.3-0.1-0.7-0.1-1.1c0-1.1,0.4-2.1,1.1-2.8
	C49,9.2,49.9,8.8,51,8.8c1.1,0,2,0.4,2.7,1.1c0.7,0.7,1,1.7,1,2.8c0,0.4,0,0.7-0.1,1.1C54.4,14.5,54.1,15.1,53.6,15.6z"/>
<path class="st1" d="M63.7,1c-0.4-0.4-0.9-0.6-1.5-0.6c-0.6,0-1.1,0.2-1.5,0.6c-0.4,0.4-0.6,0.9-0.6,1.5c0,0.6,0.2,1.2,0.6,1.6
	c0.4,0.4,0.9,0.6,1.5,0.6c0.6,0,1.1-0.2,1.5-0.6c0.4-0.4,0.6-0.9,0.6-1.6C64.4,2,64.2,1.5,63.7,1z M60.5,6v13.5h3.4V6H60.5z"/>
<path class="st1" d="M72.1,5.6c-0.6,0-1.2,0.2-1.7,0.5c-0.5,0.4-0.9,0.9-1.3,1.5V6h-2.9v13.5h3.4V14l0-0.2l0-0.4
	c0-1.9,0.2-3.2,0.5-3.8c0.4-0.6,0.8-1,1.3-1c0.3,0,0.6,0.1,1,0.3L73.5,6C73,5.7,72.5,5.6,72.1,5.6z"/>
<path class="st1" d="M88.7,13.1c0-2.2-0.7-4-2-5.4c-1.3-1.4-3.1-2-5.2-2c-2,0-3.7,0.7-5,2c-1.3,1.4-2,3.1-2,5.2c0,0.3,0,0.7,0.1,1
	c0.1,0.8,0.3,1.5,0.6,2.1c0.3,0.7,0.8,1.3,1.4,1.9c0.1,0.1,0.1,0.1,0.2,0.2c1.3,1.2,3,1.8,5,1.8c1.4,0,2.6-0.2,3.5-0.7
	c0.6-0.3,1.1-0.6,1.6-1.1c0.4-0.3,0.7-0.7,1-1.2l-2-1L85,15.5c-0.1,0.1-0.3,0.3-0.5,0.4c-0.8,0.6-1.8,0.9-2.8,0.9
	c-1.1,0-1.9-0.3-2.6-0.9c0,0-0.1-0.1-0.1-0.1c-0.6-0.5-1-1.2-1.1-2.1c0,0,0-0.1,0-0.1h10.9L88.7,13.1z M78,11
	c0.4-0.8,0.8-1.4,1.2-1.8c0.7-0.5,1.5-0.8,2.5-0.8c0.9,0,1.6,0.2,2.3,0.7c0.7,0.5,1.1,1.1,1.3,1.8H78z"/>
<path class="st1" d="M102.2,9.4v3.9c-0.3-0.4-0.7-0.6-1.1-0.8c-0.4-0.2-0.9-0.3-1.3-0.3c-1,0-1.9,0.4-2.6,1.2
	c-0.7,0.8-1.1,1.8-1.1,3c0,0.2,0,0.4,0,0.6c0,0.4,0.2,0.8,0.3,1.2c0.2,0.4,0.4,0.8,0.7,1.1c0,0,0.1,0.1,0.1,0.1c0.7,0.7,1.5,1,2.5,1
	c0.5,0,0.9-0.1,1.3-0.2c0.4-0.2,0.8-0.4,1.2-0.8v0.8h2V9.4H102.2z M101.6,18c-0.1,0.1-0.1,0.1-0.2,0.2c-0.4,0.3-0.8,0.5-1.4,0.5
	c-0.5,0-0.9-0.2-1.3-0.5c-0.1-0.1-0.1-0.1-0.2-0.2c-0.3-0.3-0.5-0.6-0.5-1c0-0.2-0.1-0.4-0.1-0.6c0-0.7,0.2-1.2,0.6-1.7
	c0.4-0.4,0.9-0.6,1.5-0.6c0.6,0,1.1,0.2,1.5,0.6c0.4,0.4,0.6,1,0.6,1.7c0,0.2,0,0.4-0.1,0.6C102.1,17.4,101.9,17.7,101.6,18z"/>
<path class="st1" d="M114,16.5c0-1.3-0.4-2.3-1.2-3.1c-0.8-0.8-1.8-1.2-3-1.2c-1.2,0-2.1,0.4-2.9,1.2c-0.8,0.8-1.2,1.8-1.2,3
	c0,0.2,0,0.4,0,0.6c0.1,0.4,0.2,0.9,0.3,1.2c0.2,0.4,0.4,0.8,0.8,1.1c0,0,0.1,0.1,0.1,0.1c0.8,0.7,1.7,1,2.9,1
	c0.8,0,1.5-0.1,2.1-0.4c0.3-0.2,0.6-0.4,0.9-0.6c0.2-0.2,0.4-0.4,0.6-0.7l-1.2-0.6l-0.5-0.2c-0.1,0.1-0.2,0.2-0.3,0.2
	c-0.5,0.4-1,0.5-1.6,0.5c-0.6,0-1.1-0.2-1.5-0.5c0,0,0,0-0.1,0c-0.4-0.3-0.6-0.7-0.7-1.2c0,0,0,0,0,0h6.3L114,16.5z M107.7,15.3
	c0.2-0.5,0.5-0.8,0.7-1c0.4-0.3,0.9-0.5,1.4-0.5c0.5,0,0.9,0.1,1.3,0.4c0.4,0.3,0.6,0.6,0.8,1.1H107.7z"/>
<path class="st1" d="M14.8,40c-0.3,0.3-0.6,0.6-0.9,0.8c-0.8,0.6-1.9,0.9-3.1,0.9c-1.2,0-2.2-0.3-3-0.9c-0.1-0.1-0.2-0.2-0.4-0.3
	c-0.6-0.6-1-1.3-1.2-2.1C6.1,38.1,6,37.8,6,37.4C6,36,6.5,34.9,7.4,34s2.1-1.3,3.5-1.3c0.8,0,1.5,0.1,2.1,0.4
	c0.6,0.2,1.2,0.7,1.8,1.3l3.2-1.8c-0.8-1.1-1.8-2-3-2.6c-1.2-0.6-2.6-0.9-4.1-0.9c-1.7,0-3.2,0.4-4.5,1.1c-1.3,0.7-2.4,1.7-3.1,3
	c-0.7,1.3-1.1,2.6-1.1,4.1c0,0.4,0,0.8,0.1,1.2c0.1,0.9,0.4,1.7,0.7,2.4c0.4,0.7,0.9,1.4,1.5,2.1c0.1,0.1,0.2,0.2,0.4,0.4
	c1.5,1.4,3.5,2,6,2c2.4,0,4.4-0.7,5.9-2c0.4-0.3,0.8-0.7,1.1-1.2L16,40.9L14.8,40z"/>
<path class="st1" d="M35.8,33.2c-0.7-1.2-1.7-2.2-3-3c-1.3-0.7-2.7-1.1-4.1-1.1c-2,0-3.8,0.7-5.3,2.1c-1.8,1.6-2.6,3.6-2.6,6
	c0,0.4,0,0.8,0.1,1.2c0.1,0.9,0.4,1.7,0.7,2.4c0.4,0.8,0.9,1.5,1.5,2.1c0.1,0.1,0.2,0.2,0.3,0.3c1.5,1.4,3.3,2,5.3,2
	c1.5,0,2.9-0.4,4.1-1.1c0.5-0.3,1-0.6,1.4-1c0.6-0.6,1.2-1.2,1.6-2c0.1-0.1,0.2-0.3,0.2-0.4c0.4-0.8,0.6-1.6,0.8-2.4
	c0.1-0.4,0.1-0.8,0.1-1.2C36.9,35.8,36.5,34.5,35.8,33.2z M31.8,40.5c-0.1,0.1-0.3,0.3-0.4,0.4c-0.7,0.6-1.6,0.9-2.6,0.9
	c-1,0-1.9-0.3-2.6-0.9c-0.1-0.1-0.3-0.2-0.4-0.4c-0.5-0.6-0.9-1.2-1.1-2c-0.1-0.4-0.1-0.8-0.1-1.2c0-1.3,0.4-2.4,1.2-3.2
	c0.8-0.8,1.8-1.3,3-1.3c1.2,0,2.2,0.4,3,1.2c0.8,0.8,1.2,1.9,1.2,3.2c0,0.4,0,0.8-0.1,1.2C32.7,39.3,32.3,39.9,31.8,40.5z"/>
<path class="st1" d="M49.7,29.5v7.6c0,0.5,0,1,0,1.4c0,0.7-0.1,1.2-0.2,1.5c-0.1,0.4-0.3,0.7-0.5,0.9c-0.1,0.2-0.3,0.3-0.5,0.4
	c-0.5,0.3-1,0.5-1.6,0.5c-0.6,0-1.2-0.2-1.6-0.5c-0.2-0.1-0.3-0.3-0.4-0.4c-0.2-0.3-0.4-0.5-0.5-0.9c-0.1-0.3-0.2-0.8-0.2-1.5
	c0-0.4,0-0.9,0-1.5v-7.4H40V36c0,1,0,1.8,0.1,2.5c0.1,1,0.2,1.8,0.3,2.4c0,0.1,0,0.1,0.1,0.2c0.3,0.9,0.7,1.6,1.2,2.2
	c0.3,0.3,0.6,0.6,1,0.9c1,0.8,2.4,1.1,4.1,1.1c1.6,0,2.8-0.3,3.9-1c0.5-0.3,0.9-0.7,1.2-1.1c0.4-0.5,0.8-1.1,1.1-1.7
	c0.1-0.2,0.2-0.4,0.2-0.7c0.2-0.6,0.3-1.4,0.3-2.4c0-0.7,0.1-1.5,0.1-2.4v-6.5H49.7z"/>
<path class="st1" d="M71.3,31.4c-1.4-1.5-3.1-2.3-5.1-2.3c-0.9,0-1.8,0.2-2.6,0.5c-0.8,0.4-1.6,0.9-2.3,1.6v-1.7h-3.8v21.1h3.8v-7.3
	c0.8,0.7,1.5,1.2,2.3,1.6c0.8,0.3,1.6,0.5,2.5,0.5c1.9,0,3.5-0.7,4.9-2c0.1-0.1,0.2-0.2,0.3-0.3c0.6-0.7,1.1-1.4,1.5-2.2
	c0.3-0.7,0.6-1.6,0.7-2.4c0-0.4,0.1-0.8,0.1-1.2C73.4,34.9,72.7,33,71.3,31.4z M68.4,40.5c-0.1,0.1-0.2,0.2-0.4,0.4
	c-0.7,0.6-1.6,0.9-2.6,0.9c-1,0-1.9-0.3-2.7-0.9c-0.1-0.1-0.2-0.2-0.4-0.3c-0.5-0.6-0.9-1.3-1.1-2.1c-0.1-0.4-0.1-0.8-0.1-1.3
	c0-1.3,0.4-2.4,1.2-3.3c0.8-0.8,1.8-1.2,3-1.2c1.2,0,2.2,0.4,3,1.3c0.8,0.8,1.2,1.9,1.2,3.3c0,0.4,0,0.8-0.1,1.2
	C69.3,39.3,68.9,40,68.4,40.5z"/>
<path class="st1" d="M76.2,23.6V45h3.9V23.6H76.2z"/>
<path class="st1" d="M98.5,34.3L98.5,34.3c-0.4-1.1-1-2-1.8-2.8c-1.5-1.6-3.5-2.3-5.9-2.3c-2.3,0-4.2,0.8-5.7,2.3
	c-1.5,1.6-2.3,3.5-2.3,5.9c0,0.4,0,0.8,0.1,1.1c0.1,0.9,0.3,1.7,0.7,2.4c0.4,0.8,0.9,1.5,1.6,2.2c0.1,0.1,0.2,0.2,0.2,0.2
	c1.5,1.4,3.4,2,5.7,2c1.6,0,2.9-0.3,4-0.8c0.6-0.3,1.2-0.7,1.8-1.2c0.4-0.4,0.8-0.8,1.2-1.3l-3.3-1.5c-1,1-2.3,1.5-3.7,1.5
	c-1.2,0-2.2-0.3-3-1c-0.2-0.2-0.4-0.4-0.6-0.6c-0.4-0.5-0.7-1.2-0.8-1.9c0,0,0-0.1,0-0.1H99l0-0.3l0-0.5
	C99.1,36.4,98.9,35.3,98.5,34.3z M86.8,35.3c0.4-1,0.9-1.6,1.4-2c0.8-0.6,1.8-0.9,2.8-0.9c1,0,1.9,0.3,2.6,0.8
	c0.8,0.5,1.3,1.2,1.5,2.1H86.8z"/>
<path class="st1" d="M111.5,38.6c-0.1-0.2-0.2-0.5-0.4-0.7c0,0,0,0,0-0.1c-0.6-0.8-1.6-1.5-3.1-2.3l-0.7-0.3l-0.7-0.4
	c-0.6-0.3-1-0.5-1.2-0.7c-0.2-0.2-0.2-0.4-0.2-0.6c0-0.3,0.1-0.5,0.4-0.7c0.2-0.2,0.6-0.3,1-0.3c0.3,0,0.7,0.1,1,0.3
	c0.5,0.2,1,0.6,1.6,1.2l2.4-2.4c0-0.1-0.1-0.1-0.1-0.2c-0.6-0.7-1.3-1.3-2.1-1.7c-0.6-0.3-1.1-0.5-1.7-0.6c-0.4-0.1-0.7-0.1-1.1-0.1
	c-1.5,0-2.7,0.4-3.6,1.3c-0.1,0.1-0.1,0.1-0.2,0.2c-0.8,0.8-1.3,1.8-1.3,3c0,0.7,0.2,1.3,0.5,1.9c0.6,1.1,1.6,2,3.2,2.8l0.6,0.3
	l0.7,0.4c1.1,0.6,1.7,1.2,1.7,1.7c0,0.3-0.2,0.6-0.5,0.9c-0.3,0.2-0.7,0.4-1.2,0.4c-0.5,0-1-0.2-1.6-0.5c-0.4-0.2-0.7-0.4-1-0.7
	c-0.2-0.2-0.4-0.4-0.6-0.6l-2.1,2.3l-0.3,0.3c1,1.3,2.3,2.1,3.8,2.5c0.5,0.1,1.1,0.2,1.6,0.2c1.7,0,3-0.5,4-1.4
	c0.4-0.3,0.7-0.7,0.9-1.1c0.4-0.7,0.6-1.5,0.6-2.4C111.9,39.8,111.8,39.2,111.5,38.6z"/>
</svg>
