<?xml version="1.0" encoding="utf-8"?>
<!-- Generator: Adobe Illustrator 22.0.1, SVG Export Plug-In . SVG Version: 6.00 Build 0)  -->
<svg version="1.1" id="Calque_1" xmlns="http://www.w3.org/2000/svg" xmlns:xlink="http://www.w3.org/1999/xlink" x="0px" y="0px"
	 viewBox="0 0 35 51.4" style="enable-background:new 0 0 35 51.4;" xml:space="preserve">
<style type="text/css">
	.st0{fill:#2B3037;}
</style>
<g>
	<g>
		<path class="st0" d="M24,44.3C24.1,44.3,24.1,44.3,24,44.3c0.3-0.1,0.4-0.3,0.4-0.5l-7.9-31.5c-0.1-0.2-0.3-0.3-0.5-0.3
			c-0.2,0.1-0.3,0.3-0.3,0.5L23.7,44C23.7,44.2,23.9,44.3,24,44.3z"/>
		<path class="st0" d="M26.7,44.1C26.7,44.1,26.7,44.1,26.7,44.1c0.1,0,0.2-0.1,0.2-0.2l-7.9-31.5c0-0.1-0.1-0.1-0.2-0.1
			c-0.1,0-0.1,0.1-0.1,0.2L26.5,44C26.5,44,26.6,44.1,26.7,44.1z"/>
		<path class="st0" d="M4.7,23.4c0.1,0,0.2-0.1,0.2-0.2v0c0-0.1-0.1-0.2-0.2-0.2s-0.2,0.1-0.2,0.2C4.5,23.3,4.6,23.4,4.7,23.4z"/>
		<path class="st0" d="M7,36"/>
		<path class="st0" d="M5.6,36"/>
		<path class="st0" d="M8.5,36"/>
		<path class="st0" d="M9.9,36"/>
		<path class="st0" d="M3.8,26.1c0.1,0,0.2-0.1,0.2-0.2v0c0-0.1-0.1-0.2-0.2-0.2c-0.1,0-0.2,0.1-0.2,0.2C3.6,26,3.7,26.1,3.8,26.1z"
			/>
		<path class="st0" d="M29.3,44.1C29.3,44.1,29.3,44.1,29.3,44.1c0.1,0,0.2-0.1,0.2-0.2l-7.9-31.5c0-0.1-0.1-0.1-0.2-0.1
			c-0.1,0-0.1,0.1-0.1,0.2L29.1,44C29.1,44,29.2,44.1,29.3,44.1z"/>
		<path class="st0" d="M0,46.5v-1.9c0-0.6,0.4-1,1-1h32.6c0.6,0,1,0.4,1,1v1.9c0,0.6-0.4,1-1,1H1C0.5,47.5,0,47,0,46.5z M1,44.3
			c-0.1,0-0.2,0.1-0.2,0.2v1.9c0,0.1,0.1,0.2,0.2,0.2h32.6c0.1,0,0.2-0.1,0.2-0.2v-1.9c0-0.1-0.1-0.2-0.2-0.2H1z"/>
		<path class="st0" d="M18.1,20.5c0.2,0,0.4-0.1,0.4-0.3c0-0.2-0.1-0.4-0.3-0.4c-8-0.9-9.2-5.5-9.4-7c0-0.2-0.2-0.4-0.4-0.3
			c-0.2,0-0.4,0.2-0.3,0.4C8.1,14.5,9.5,19.6,18.1,20.5C18.1,20.5,18.1,20.5,18.1,20.5z"/>
		<path class="st0" d="M17.6,18.5c0.1,0,0.1-0.1,0.2-0.1c0-0.1,0-0.2-0.1-0.2c-5.4-1.1-7.2-4.1-7.7-5.8c0-0.1-0.1-0.1-0.2-0.1
			c-0.1,0-0.1,0.1-0.1,0.2C10.2,14.3,12,17.4,17.6,18.5C17.6,18.5,17.6,18.5,17.6,18.5z"/>
		<path class="st0" d="M17.2,16.8c0.1,0,0.1,0,0.2-0.1c0-0.1,0-0.2-0.1-0.2c-3-1-4.5-2.8-5.2-4.1c0-0.1-0.1-0.1-0.2-0.1
			c-0.1,0-0.1,0.1-0.1,0.2C12.5,13.8,14,15.7,17.2,16.8C17.2,16.8,17.2,16.8,17.2,16.8z"/>
		<path class="st0" d="M16.7,14.6c0.1,0,0.1,0,0.1-0.1c0-0.1,0-0.2-0.1-0.2c-0.9-0.5-1.7-1.2-2.3-2c-0.1-0.1-0.2-0.1-0.2,0
			c-0.1,0.1-0.1,0.2,0,0.2C14.8,13.3,15.6,14,16.7,14.6C16.6,14.6,16.6,14.6,16.7,14.6z"/>
		<path class="st0" d="M10.6,23c2.7,0,2.7-1.9,2.7-2c0-0.2-0.2-0.4-0.4-0.4s-0.4,0.2-0.4,0.4c0,0.1-0.1,1.2-2,1.2c-2,0-2-1.1-2-1.2
			c0-0.2-0.2-0.4-0.4-0.4s-0.4,0.2-0.4,0.4C7.9,21.1,7.9,23,10.6,23z"/>
		<path class="st0" d="M2.8,44.3h29.1c0.1,0,0.2-0.1,0.3-0.1c0.1-0.1,0.1-0.2,0.1-0.3l-7.6-30.3c-0.2-0.9-1-1.5-1.9-1.5H9.4
			c-0.8,0-1.6,0.5-1.8,1.3L0.5,34.7c-0.1,0.4-0.1,0.8,0.2,1.2c0.2,0.3,0.6,0.5,1.1,0.5h8.9c0.2,0,0.4-0.2,0.4-0.4
			c0-0.2-0.2-0.4-0.4-0.4H1.7c-0.2,0-0.3-0.1-0.4-0.2c-0.1-0.1-0.1-0.3-0.1-0.5l7.1-21.3c0.2-0.5,0.6-0.8,1.1-0.8h13.4
			c0.5,0,1,0.4,1.1,0.9l7.5,29.8H3.3l1.7-5c0.1-0.2,0-0.4-0.2-0.5c-0.2-0.1-0.4,0-0.5,0.2l-1.8,5.5c0,0.1,0,0.2,0.1,0.3
			C2.5,44.2,2.6,44.3,2.8,44.3z"/>
		<path class="st0" d="M4.6,38.8c0.2,0,0.3-0.1,0.4-0.3l0.8-2.4c0.1-0.2,0-0.4-0.2-0.5c-0.2-0.1-0.4,0-0.5,0.2l-0.8,2.4
			c-0.1,0.2,0,0.4,0.2,0.5C4.5,38.8,4.6,38.8,4.6,38.8z"/>
		<path class="st0" d="M15.7,6.7c0-3.3,2.6-5.9,5.9-5.9s5.9,2.6,5.9,5.9s-2.6,5.9-5.9,5.9S15.7,10,15.7,6.7z M16.5,6.7
			c0,2.8,2.3,5.1,5.1,5.1c2.8,0,5.1-2.3,5.1-5.1s-2.3-5.1-5.1-5.1C18.8,1.6,16.5,3.9,16.5,6.7z"/>
		<path class="st0" d="M17.5,6.7c0-2.3,1.8-4.1,4.1-4.1s4.1,1.8,4.1,4.1s-1.8,4.1-4.1,4.1S17.5,9,17.5,6.7z M17.9,6.7
			c0,2.1,1.7,3.8,3.8,3.8s3.8-1.7,3.8-3.8S23.7,3,21.6,3S17.9,4.7,17.9,6.7z"/>
		<path class="st0" d="M19.1,6.7c0-1.4,1.1-2.5,2.5-2.5s2.5,1.1,2.5,2.5S23,9.3,21.6,9.3S19.1,8.1,19.1,6.7z M19.4,6.7
			c0,1.2,1,2.2,2.2,2.2c1.2,0,2.2-1,2.2-2.2s-1-2.2-2.2-2.2C20.4,4.6,19.4,5.5,19.4,6.7z"/>
		<path class="st0" d="M21.6,7.1h9.4c0.2,0,0.4-0.2,0.4-0.4s-0.2-0.4-0.4-0.4h-9.4c-0.2,0-0.4,0.2-0.4,0.4S21.4,7.1,21.6,7.1z"/>
		<g>
			<path class="st0" d="M9.2,9.7c0-1.7,1.4-3.1,3.1-3.1s3.1,1.4,3.1,3.1s-1.4,3.1-3.1,3.1S9.2,11.4,9.2,9.7z M10,9.7
				c0,1.3,1.1,2.4,2.4,2.4s2.4-1.1,2.4-2.4s-1.1-2.4-2.4-2.4S10,8.4,10,9.7z"/>
			<path class="st0" d="M11,9.7c0-0.7,0.6-1.3,1.3-1.3s1.3,0.6,1.3,1.3S13.1,11,12.4,11S11,10.4,11,9.7z M11.4,9.7c0,0.6,0.5,1,1,1
				c0.6,0,1-0.5,1-1c0-0.6-0.5-1-1-1C11.8,8.7,11.4,9.1,11.4,9.7z"/>
			<path class="st0" d="M12.4,9.9c0.1,0,0.2,0,0.2-0.1l3.1-4.7c0.1-0.1,0-0.3-0.1-0.4c-0.1-0.1-0.3,0-0.4,0.1l-3.1,4.7
				c-0.1,0.1,0,0.3,0.1,0.4C12.3,9.9,12.3,9.9,12.4,9.9z"/>
		</g>
	</g>
	<path class="st0" d="M25.7,9.2C25.7,9.2,25.7,9.2,25.7,9.2c0.2-0.1,0.2-0.2,0.2-0.2l-1-2.4c0-0.1-0.1-0.1-0.2-0.1
		c-0.1,0-0.1,0.1-0.1,0.2l1,2.4C25.6,9.2,25.6,9.2,25.7,9.2z"/>
	<path class="st0" d="M18.3,9.2c0.1,0,0.1,0,0.2-0.1l1-2.4c0-0.1,0-0.2-0.1-0.2c-0.1,0-0.2,0-0.2,0.1l-1,2.4
		C18.1,9.1,18.1,9.2,18.3,9.2C18.2,9.2,18.2,9.2,18.3,9.2z"/>
	<path class="st0" d="M22,9.2c0.1,0,0.2-0.1,0.2-0.2V7.4c0-0.1-0.1-0.2-0.2-0.2s-0.2,0.1-0.2,0.2V9C21.8,9.1,21.9,9.2,22,9.2z"/>
</g>
</svg>
