<?xml version="1.0" encoding="utf-8"?>
<!-- Generator: Adobe Illustrator 22.0.1, SVG Export Plug-In . SVG Version: 6.00 Build 0)  -->
<svg version="1.1" id="Calque_1" xmlns="http://www.w3.org/2000/svg" xmlns:xlink="http://www.w3.org/1999/xlink" x="0px" y="0px"
	 viewBox="0 0 35 51.4" style="enable-background:new 0 0 35 51.4;" xml:space="preserve">
<style type="text/css">
	.st0{fill:#2B3037;}
</style>
<g>
	<path class="st0" d="M11.2,44.3C11.1,44.3,11.1,44.3,11.2,44.3c-0.3-0.1-0.4-0.3-0.4-0.5l7.8-31.2c0.1-0.2,0.3-0.3,0.5-0.3
		c0.2,0.1,0.3,0.3,0.3,0.5L11.5,44C11.5,44.2,11.3,44.3,11.2,44.3z"/>
	<path class="st0" d="M8.6,44.1C8.6,44.1,8.5,44.1,8.6,44.1c-0.1,0-0.2-0.1-0.2-0.2l7.8-31.2c0-0.1,0.1-0.1,0.2-0.1
		c0.1,0,0.1,0.1,0.1,0.2L8.7,43.9C8.7,44,8.6,44.1,8.6,44.1z"/>
	<path class="st0" d="M30.4,23.5c-0.1,0-0.2-0.1-0.2-0.2v0c0-0.1,0.1-0.2,0.2-0.2c0.1,0,0.2,0.1,0.2,0.2S30.4,23.5,30.4,23.5z"/>
	<path class="st0" d="M27.4,38.5C27.4,38.5,27.4,38.5,27.4,38.5c-0.1,0-0.1-0.1-0.1-0.1l0.6-2.3C27.9,36,28,36,28,36
		c0.1,0,0.1,0.1,0.1,0.1l-0.6,2.3C27.5,38.5,27.5,38.5,27.4,38.5z"/>
	<path class="st0" d="M28.9,38.5C28.9,38.5,28.8,38.5,28.9,38.5c-0.1,0-0.1-0.1-0.1-0.1l0.6-2.3c0-0.1,0.1-0.1,0.1-0.1
		c0.1,0,0.1,0.1,0.1,0.1L29,38.5C29,38.5,28.9,38.5,28.9,38.5z"/>
	<path class="st0" d="M26,38.5C26,38.5,26,38.5,26,38.5c-0.1,0-0.1-0.1-0.1-0.1l0.6-2.3c0-0.1,0.1-0.1,0.1-0.1
		c0.1,0,0.1,0.1,0.1,0.1l-0.6,2.3C26.1,38.5,26.1,38.5,26,38.5z"/>
	<path class="st0" d="M24.6,38.5C24.6,38.5,24.6,38.5,24.6,38.5c-0.1,0-0.1-0.1-0.1-0.1l0.6-2.3c0-0.1,0.1-0.1,0.1-0.1
		c0.1,0,0.1,0.1,0.1,0.1l-0.6,2.3C24.7,38.5,24.6,38.5,24.6,38.5z"/>
	<path class="st0" d="M31.2,26.2c-0.1,0-0.2-0.1-0.2-0.2v0c0-0.1,0.1-0.2,0.2-0.2s0.2,0.1,0.2,0.2S31.3,26.2,31.2,26.2z"/>
	<path class="st0" d="M6,44.1C6,44.1,5.9,44.1,6,44.1c-0.1,0-0.2-0.1-0.2-0.2l7.8-31.2c0-0.1,0.1-0.1,0.2-0.1c0.1,0,0.1,0.1,0.1,0.2
		L6.1,43.9C6.1,44,6,44.1,6,44.1z"/>
	<path class="st0" d="M34,47.4H1.6c-0.5,0-1-0.4-1-1v-1.9c0-0.5,0.4-1,1-1H34c0.5,0,1,0.4,1,1v1.9C35,47,34.5,47.4,34,47.4z
		 M1.6,44.3c-0.1,0-0.2,0.1-0.2,0.2v1.9c0,0.1,0.1,0.2,0.2,0.2H34c0.1,0,0.2-0.1,0.2-0.2v-1.9c0-0.1-0.1-0.2-0.2-0.2H1.6z"/>
	<path class="st0" d="M29.1,13.1H9.6c-0.6,0-1.2-0.5-1.2-1.2s0.5-1.2,1.2-1.2h19.5c0.6,0,1.2,0.5,1.2,1.2S29.8,13.1,29.1,13.1z
		 M9.6,11.5c-0.2,0-0.4,0.2-0.4,0.4c0,0.2,0.2,0.4,0.4,0.4h19.5c0.2,0,0.4-0.2,0.4-0.4c0-0.2-0.2-0.4-0.4-0.4H9.6z"/>
	<path class="st0" d="M26.8,11.5c-0.2,0-0.4-0.2-0.4-0.4V3.6c0-0.8-0.7-1.5-1.5-1.5H13c-0.8,0-1.5,0.7-1.5,1.5v7.5
		c0,0.2-0.2,0.4-0.4,0.4c-0.2,0-0.4-0.2-0.4-0.4V3.6c0-1.2,1-2.2,2.2-2.2h11.9c1.2,0,2.2,1,2.2,2.2v7.5C27.2,11.3,27,11.5,26.8,11.5
		z"/>
	<path class="st0" d="M17.1,20.7c-0.2,0-0.4-0.1-0.4-0.3c0-0.2,0.1-0.4,0.3-0.4c3.9-0.4,6.7-1.8,8.2-4.1c1.1-1.7,1.1-3.2,1.1-3.2
		c0-0.2,0.2-0.4,0.4-0.4c0.2,0,0.4,0.2,0.4,0.4c0,0.1,0,1.8-1.3,3.6C24.7,18,22.3,20.2,17.1,20.7C17.1,20.7,17.1,20.7,17.1,20.7z"/>
	<path class="st0" d="M17.5,18.7c-0.1,0-0.1-0.1-0.2-0.1c0-0.1,0-0.2,0.1-0.2c5.4-1.1,7.1-4.1,7.6-5.7c0-0.1,0.1-0.1,0.2-0.1
		c0.1,0,0.1,0.1,0.1,0.2C24.9,14.5,23.1,17.6,17.5,18.7C17.5,18.7,17.5,18.7,17.5,18.7z"/>
	<path class="st0" d="M17.9,17c-0.1,0-0.1,0-0.2-0.1c0-0.1,0-0.2,0.1-0.2c3-1,4.5-2.8,5.1-4.1c0-0.1,0.1-0.1,0.2-0.1
		c0.1,0,0.1,0.1,0.1,0.2C22.6,14.1,21.1,15.9,17.9,17C18,17,18,17,17.9,17z"/>
	<path class="st0" d="M18.5,14.9c-0.1,0-0.1,0-0.1-0.1c0-0.1,0-0.2,0.1-0.2c0.9-0.5,1.7-1.2,2.3-2c0.1-0.1,0.2-0.1,0.2,0
		c0.1,0.1,0.1,0.2,0,0.2C20.3,13.6,19.5,14.3,18.5,14.9C18.5,14.9,18.5,14.9,18.5,14.9z"/>
	<path class="st0" d="M24.4,23.2c-2.7,0-2.7-1.9-2.7-1.9c0-0.2,0.2-0.4,0.4-0.4s0.4,0.2,0.4,0.4c0,0.1,0.1,1.2,2,1.2
		c1.9,0,2-1.1,2-1.2c0-0.2,0.2-0.4,0.4-0.4c0.2,0,0.4,0.2,0.4,0.4C27.2,21.3,27.1,23.2,24.4,23.2z"/>
	<path class="st0" d="M32.2,44.3H3.4c-0.1,0-0.2-0.1-0.3-0.1C3,44,3,43.9,3,43.8l7.8-31.2c0-0.2,0.2-0.3,0.4-0.3h15.6
		c0.2,0,0.3,0.1,0.4,0.3l7.4,22.2c0.1,0.4,0.1,0.8-0.2,1.2s-0.6,0.5-1.1,0.5h-3.1l0.6,1.8c0,0,0,0,0,0l1.8,5.5c0,0.1,0,0.2-0.1,0.3
		C32.5,44.2,32.4,44.3,32.2,44.3z M3.9,43.5h27.9l-1.6-4.7h-7.3c-0.2,0-0.4-0.2-0.4-0.4c0-0.9,0.4-2.7,1.9-2.7h5.2c0,0,0,0,0,0h3.7
		c0.2,0,0.3-0.1,0.4-0.2c0.1-0.1,0.1-0.3,0.1-0.5l-7.3-21.9h-15L3.9,43.5z M23.3,38.1h6.6l-0.5-1.6h-4.9
		C23.6,36.5,23.4,37.5,23.3,38.1z"/>
	<path class="st0" d="M24.6,4c-0.3,0-0.5-0.2-0.5-0.5c0-0.3,0.2-0.5,0.5-0.5s0.5,0.2,0.5,0.5C25.1,3.8,24.9,4,24.6,4z M24.6,3.3
		c-0.2,0-0.3,0.1-0.3,0.3c0,0.2,0.1,0.3,0.3,0.3s0.3-0.1,0.3-0.3C24.9,3.4,24.8,3.3,24.6,3.3z"/>
	<path class="st0" d="M23.1,4h-2.3c-0.3,0-0.5-0.2-0.5-0.5c0-0.3,0.2-0.5,0.5-0.5h2.3c0.3,0,0.5,0.2,0.5,0.5C23.6,3.8,23.4,4,23.1,4
		z M20.7,3.3c-0.2,0-0.3,0.1-0.3,0.3c0,0.2,0.1,0.3,0.3,0.3h2.3c0.2,0,0.3-0.1,0.3-0.3c0-0.2-0.1-0.3-0.3-0.3H20.7z"/>
</g>
</svg>
