<?xml version="1.0" encoding="utf-8"?>
<!-- Generator: Adobe Illustrator 22.0.1, SVG Export Plug-In . SVG Version: 6.00 Build 0)  -->
<svg version="1.1" id="Calque_1" xmlns="http://www.w3.org/2000/svg" xmlns:xlink="http://www.w3.org/1999/xlink" x="0px" y="0px"
	 viewBox="0 0 105 28" style="enable-background:new 0 0 105 28;" xml:space="preserve">
<style type="text/css">
	.st0{fill:#C5D6F0;}
	.st1{fill:#2B3037;}
</style>
<rect class="st0" width="105" height="28"/>
<path class="st1" d="M29,1.5v3.7h-3.2V1.5h-1.9v9.7h1.9V7H29v4.3h1.9V1.5H29z"/>
<path class="st1" d="M34.4,1.4c-0.2-0.2-0.5-0.3-0.8-0.3S33,1.2,32.8,1.4s-0.3,0.5-0.3,0.8s0.1,0.6,0.3,0.8s0.5,0.3,0.8,0.3
	s0.6-0.1,0.8-0.3s0.3-0.5,0.3-0.8C34.8,1.9,34.6,1.6,34.4,1.4z M32.7,4v7.2h1.8V4H32.7z"/>
<path class="st1" d="M40.5,8.2c0-0.1-0.1-0.2-0.2-0.3c-0.3-0.4-0.7-0.7-1.4-1l-0.7-0.3c-0.3-0.1-0.5-0.3-0.5-0.3
	c-0.1-0.1-0.1-0.2-0.1-0.3c0-0.1,0.1-0.2,0.2-0.3c0.1-0.1,0.3-0.1,0.5-0.1c0.4,0,0.8,0.2,1.2,0.7l1-1.3c-0.3-0.4-0.6-0.7-1-0.9
	c-0.4-0.2-0.9-0.3-1.3-0.3c-0.7,0-1.2,0.2-1.7,0.6c-0.4,0.4-0.7,0.9-0.7,1.5c0,0.9,0.6,1.6,1.7,2.2l0.2,0.1l0.4,0.2
	C38.7,8.7,39,8.9,39,9.2v0.1c0,0.1-0.1,0.2-0.2,0.3c-0.1,0.1-0.3,0.2-0.6,0.2c-0.2,0-0.5-0.1-0.8-0.2c-0.1-0.1-0.3-0.2-0.4-0.2
	c-0.1-0.1-0.3-0.2-0.4-0.4l-0.3,0.4l-0.8,0.9c0.1,0.1,0.2,0.2,0.2,0.3c0.6,0.6,1.4,1,2.3,1c0.8,0,1.4-0.2,1.9-0.6
	c0.1-0.1,0.2-0.2,0.3-0.3c0.2-0.3,0.4-0.7,0.4-1.1c0,0,0-0.1,0-0.2C40.7,8.8,40.6,8.5,40.5,8.2z"/>
<path class="st1" d="M44.1,4V1.4h-1.8V4h-0.9v1.6h0.9v5.6h1.8V5.6h1.1V4H44.1z"/>
<path class="st1" d="M52.8,5.7c-0.3-0.6-0.8-1-1.4-1.4c-0.6-0.3-1.2-0.5-1.9-0.5c-0.9,0-1.8,0.3-2.5,1c-0.8,0.7-1.2,1.7-1.2,2.8
	c0,0.2,0,0.4,0,0.6C45.9,8.6,46,9,46.2,9.3c0.2,0.4,0.4,0.7,0.7,1l0.1,0.1c0.7,0.6,1.5,1,2.5,1c0.7,0,1.3-0.2,1.9-0.5
	c0.2-0.1,0.4-0.3,0.6-0.5c0.3-0.3,0.5-0.6,0.7-0.9c0-0.1,0.1-0.1,0.1-0.2c0.2-0.4,0.3-0.7,0.4-1.1c0-0.2,0-0.4,0-0.6
	C53.3,6.9,53.2,6.3,52.8,5.7z M51,9.1c-0.1,0.1-0.1,0.1-0.2,0.2c-0.3,0.3-0.7,0.4-1.2,0.4s-0.9-0.1-1.2-0.4
	c-0.1-0.1-0.1-0.1-0.2-0.2c-0.3-0.3-0.4-0.6-0.5-1c0-0.2-0.1-0.4-0.1-0.6c0-0.6,0.2-1.1,0.6-1.5c0.4-0.4,0.8-0.6,1.4-0.6
	c0.6,0,1,0.2,1.4,0.6s0.6,0.9,0.6,1.5c0,0.2,0,0.4-0.1,0.6C51.4,8.6,51.2,8.9,51,9.1z"/>
<path class="st1" d="M56.3,1.4c-0.2-0.2-0.5-0.3-0.8-0.3s-0.6,0.1-0.8,0.3s-0.3,0.5-0.3,0.8s0.1,0.6,0.3,0.8s0.5,0.3,0.8,0.3
	s0.6-0.1,0.8-0.3s0.3-0.5,0.3-0.8C56.7,1.9,56.5,1.6,56.3,1.4z M54.6,4v7.2h1.8V4H54.6z"/>
<path class="st1" d="M60.7,3.8c-0.3,0-0.6,0.1-0.9,0.3c-0.3,0.2-0.5,0.5-0.7,0.8V4h-1.5v7.2h1.8V8.3V8.2V8c0-1,0.1-1.7,0.3-2
	s0.4-0.5,0.7-0.5c0.1,0,0.3,0.1,0.5,0.2L61.5,4C61.2,3.9,61,3.8,60.7,3.8z"/>
<path class="st1" d="M69.6,7.8c0-1.2-0.4-2.1-1.1-2.9c-0.7-0.7-1.6-1.1-2.8-1.1c-1.1,0-2,0.4-2.7,1.1c-0.6,0.8-1,1.7-1,2.8
	c0,0.2,0,0.4,0,0.5c0,0.4,0.2,0.8,0.3,1.1c0.2,0.4,0.4,0.7,0.7,1l0.1,0.1c0.7,0.6,1.6,1,2.6,1c0.7,0,1.4-0.1,1.9-0.4
	c0.3-0.1,0.6-0.3,0.8-0.6c0.2-0.2,0.4-0.4,0.5-0.6L68,9.3l-0.4-0.2c-0.1,0.1-0.2,0.1-0.2,0.2c-0.4,0.3-0.9,0.5-1.5,0.5
	s-1-0.2-1.4-0.5c0,0,0,0-0.1,0c-0.3-0.3-0.5-0.7-0.6-1.1l0,0h5.8L69.6,7.8z M63.9,6.7c0.2-0.4,0.4-0.8,0.7-0.9
	c0.4-0.3,0.8-0.4,1.3-0.4s0.9,0.1,1.2,0.4c0.4,0.3,0.6,0.6,0.7,1L63.9,6.7L63.9,6.7z"/>
<path class="st1" d="M76.7,5.8v2.1c-0.2-0.2-0.4-0.3-0.6-0.4s-0.5-0.1-0.7-0.1c-0.5,0-1,0.2-1.4,0.6c-0.4,0.4-0.6,0.9-0.6,1.6
	c0,0.1,0,0.2,0,0.3c0,0.2,0.1,0.4,0.2,0.7c0.1,0.2,0.2,0.4,0.4,0.6c0,0,0,0,0.1,0.1c0.4,0.4,0.8,0.6,1.3,0.6c0.2,0,0.5,0,0.7-0.1
	s0.4-0.2,0.6-0.4v0.4h1v-6H76.7z M76.4,10.4C76.4,10.4,76.3,10.5,76.4,10.4c-0.3,0.3-0.5,0.3-0.8,0.3s-0.5-0.1-0.7-0.3l-0.1-0.1
	c-0.1-0.2-0.2-0.3-0.3-0.6c0-0.1,0-0.2,0-0.3c0-0.4,0.1-0.6,0.3-0.9c0.2-0.2,0.5-0.3,0.8-0.3s0.6,0.1,0.8,0.3
	c0.2,0.2,0.3,0.5,0.3,0.9c0,0.1,0,0.2,0,0.3C76.7,10.1,76.6,10.3,76.4,10.4z"/>
<path class="st1" d="M83,9.6c0-0.7-0.2-1.2-0.6-1.7c-0.4-0.4-0.9-0.6-1.6-0.6c-0.6,0-1.1,0.2-1.5,0.6c-0.4,0.4-0.6,0.9-0.6,1.6
	c0,0.1,0,0.2,0,0.3c0,0.2,0.1,0.5,0.2,0.7s0.2,0.4,0.4,0.6c0,0,0,0,0.1,0.1c0.4,0.4,0.9,0.6,1.5,0.6c0.4,0,0.8-0.1,1.1-0.2
	c0.2-0.1,0.3-0.2,0.5-0.3c0.1-0.1,0.2-0.2,0.3-0.4l-0.6-0.3l-0.3-0.1l-0.1,0.1c-0.2,0.2-0.5,0.3-0.9,0.3c-0.3,0-0.6-0.1-0.8-0.3l0,0
	c-0.2-0.2-0.3-0.4-0.4-0.7l0,0H83V9.6z M79.6,9c0.1-0.3,0.2-0.4,0.4-0.5c0.2-0.2,0.5-0.2,0.8-0.2s0.5,0.1,0.7,0.2
	c0.2,0.1,0.3,0.3,0.4,0.6h-2.3V9z"/>
<path class="st1" d="M29.6,22.1c-0.1,0.2-0.3,0.3-0.5,0.4c-0.4,0.3-1,0.5-1.7,0.5c-0.6,0-1.2-0.2-1.6-0.5c-0.1-0.1-0.1-0.1-0.2-0.2
	c-0.3-0.3-0.5-0.7-0.6-1.1c0-0.2-0.1-0.4-0.1-0.6c0-0.7,0.2-1.3,0.7-1.8s1.1-0.7,1.9-0.7c0.4,0,0.8,0.1,1.1,0.2
	c0.3,0.1,0.6,0.4,1,0.7l1.7-0.9c-0.4-0.6-0.9-1.1-1.6-1.4c-0.6-0.3-1.4-0.5-2.2-0.5c-0.9,0-1.7,0.2-2.4,0.6
	c-0.7,0.4-1.3,0.9-1.7,1.6c-0.4,0.7-0.6,1.4-0.6,2.2c0,0.2,0,0.4,0,0.6c0.1,0.5,0.2,0.9,0.4,1.3c0.2,0.4,0.5,0.8,0.8,1.1
	c0.1,0.1,0.1,0.1,0.2,0.2c0.8,0.7,1.9,1.1,3.2,1.1c1.3,0,2.3-0.4,3.1-1.1c0.2-0.2,0.4-0.4,0.6-0.6l-1-0.7L29.6,22.1z"/>
<path class="st1" d="M40.8,18.5c-0.4-0.7-0.9-1.2-1.6-1.6c-0.7-0.4-1.4-0.6-2.2-0.6c-1.1,0-2,0.4-2.8,1.1c-0.9,0.9-1.4,1.9-1.4,3.2
	c0,0.2,0,0.4,0,0.6c0.1,0.5,0.2,0.9,0.4,1.3s0.5,0.8,0.8,1.1c0.1,0.1,0.1,0.1,0.2,0.2c0.8,0.7,1.7,1.1,2.8,1.1
	c0.8,0,1.5-0.2,2.2-0.6c0.3-0.1,0.5-0.3,0.7-0.5c0.3-0.3,0.6-0.6,0.8-1.1c0-0.1,0.1-0.2,0.1-0.2c0.2-0.4,0.3-0.8,0.4-1.3
	c0-0.2,0-0.4,0-0.7C41.3,19.9,41.1,19.1,40.8,18.5z M38.6,22.3c-0.1,0.1-0.1,0.1-0.2,0.2C38,22.9,37.6,23,37,23
	c-0.5,0-1-0.2-1.4-0.5c-0.1-0.1-0.1-0.1-0.2-0.2c-0.3-0.3-0.5-0.7-0.6-1.1c0-0.2-0.1-0.4-0.1-0.6c0-0.7,0.2-1.3,0.6-1.7
	c0.4-0.4,1-0.7,1.6-0.7c0.7,0,1.2,0.2,1.6,0.7c0.4,0.4,0.6,1,0.6,1.7c0,0.2,0,0.4-0.1,0.6C39.1,21.7,38.9,22,38.6,22.3z"/>
<path class="st1" d="M48.1,16.5v4c0,0.3,0,0.5,0,0.7c0,0.4-0.1,0.6-0.1,0.8c-0.1,0.2-0.2,0.4-0.3,0.5s-0.2,0.2-0.2,0.2
	c-0.2,0.2-0.5,0.2-0.9,0.2c-0.3,0-0.6-0.1-0.9-0.2c-0.1-0.1-0.2-0.1-0.2-0.2c-0.1-0.1-0.2-0.3-0.3-0.5s-0.1-0.4-0.1-0.8
	c0-0.2,0-0.5,0-0.8v-3.9H43v3.4c0,0.5,0,0.9,0,1.3c0,0.6,0.1,1,0.2,1.3v0.1c0.1,0.5,0.4,0.9,0.6,1.2c0.2,0.2,0.3,0.3,0.5,0.5
	c0.6,0.4,1.3,0.6,2.2,0.6c0.8,0,1.5-0.2,2-0.5c0.2-0.2,0.5-0.4,0.7-0.6c0.2-0.3,0.4-0.6,0.6-0.9c0-0.1,0.1-0.2,0.1-0.4
	c0.1-0.3,0.1-0.8,0.2-1.3c0-0.4,0-0.8,0-1.3v-3.5L48.1,16.5L48.1,16.5z"/>
<path class="st1" d="M59.6,17.5c-0.7-0.8-1.7-1.2-2.7-1.2c-0.5,0-1,0.1-1.4,0.3c-0.4,0.2-0.8,0.5-1.2,0.8v-0.9h-2v11.2h2v-3.9
	c0.4,0.4,0.8,0.7,1.2,0.8c0.4,0.2,0.8,0.2,1.3,0.2c1,0,1.9-0.4,2.6-1.1l0.1-0.1c0.3-0.3,0.6-0.7,0.8-1.1s0.3-0.8,0.4-1.3
	c0-0.2,0-0.4,0-0.6C60.7,19.4,60.3,18.3,59.6,17.5z M58,22.4c-0.1,0.1-0.1,0.1-0.2,0.2C57.4,22.9,57,23,56.4,23s-1-0.2-1.4-0.5
	c-0.1-0.1-0.1-0.1-0.2-0.2c-0.3-0.3-0.5-0.7-0.6-1.1c0-0.2-0.1-0.4-0.1-0.7c0-0.7,0.2-1.3,0.6-1.7c0.4-0.4,1-0.7,1.6-0.7
	s1.2,0.2,1.6,0.7c0.4,0.4,0.6,1,0.6,1.7c0,0.2,0,0.4-0.1,0.7C58.5,21.7,58.3,22.1,58,22.4z"/>
<path class="st1" d="M62.2,13.4v11.3h2.1V13.4H62.2z"/>
<path class="st1" d="M74,19.1L74,19.1c-0.2-0.6-0.5-1.1-0.9-1.5c-0.8-0.8-1.9-1.2-3.1-1.2s-2.2,0.4-3,1.2c-0.8,0.8-1.2,1.9-1.2,3.1
	c0,0.2,0,0.4,0,0.6c0.1,0.5,0.2,0.9,0.4,1.3c0.2,0.4,0.5,0.8,0.8,1.2l0.1,0.1c0.8,0.7,1.8,1.1,3,1.1c0.8,0,1.5-0.1,2.1-0.4
	c0.3-0.2,0.6-0.4,0.9-0.6c0.2-0.2,0.4-0.4,0.6-0.7l-1.7-1c-0.6,0.5-1.2,0.8-2,0.8c-0.6,0-1.2-0.2-1.6-0.5c-0.1-0.1-0.2-0.2-0.3-0.3
	c-0.2-0.3-0.4-0.6-0.4-1c0,0,0,0,0-0.1h6.6V21v-0.2C74.3,20.2,74.2,19.6,74,19.1z M67.8,19.6c0.2-0.5,0.5-0.9,0.8-1.1
	c0.4-0.3,0.9-0.5,1.5-0.5c0.5,0,1,0.1,1.4,0.4s0.7,0.7,0.8,1.1h-4.5V19.6z"/>
<path class="st1" d="M80.9,21.3c-0.1-0.1-0.1-0.2-0.2-0.4l0,0c-0.3-0.4-0.8-0.8-1.6-1.2l-0.4-0.2l-0.4-0.2c-0.3-0.2-0.5-0.3-0.6-0.4
	s-0.1-0.2-0.1-0.3c0-0.1,0.1-0.3,0.2-0.4s0.3-0.1,0.5-0.1s0.4,0,0.6,0.1c0.3,0.1,0.6,0.3,0.9,0.6l1.3-1.3c0,0,0-0.1-0.1-0.1
	c-0.3-0.4-0.7-0.7-1.1-0.9c-0.3-0.1-0.6-0.2-0.9-0.3c-0.2,0-0.4,0-0.6,0c-0.8,0-1.4,0.2-1.9,0.7L76.4,17c-0.4,0.4-0.7,1-0.7,1.6
	c0,0.4,0.1,0.7,0.3,1c0.3,0.6,0.9,1,1.7,1.5l0.3,0.1l0.4,0.2c0.6,0.3,0.9,0.6,0.9,0.9c0,0.2-0.1,0.3-0.2,0.5
	c-0.2,0.1-0.4,0.2-0.7,0.2c-0.3,0-0.5-0.1-0.9-0.3c-0.2-0.1-0.4-0.2-0.5-0.4c-0.1-0.1-0.2-0.2-0.3-0.3l-1.1,1.2l-0.2,0.2
	c0.5,0.7,1.2,1.1,2,1.3c0.3,0.1,0.6,0.1,0.9,0.1c0.9,0,1.6-0.2,2.1-0.7c0.2-0.2,0.4-0.4,0.5-0.6c0.2-0.4,0.3-0.8,0.3-1.2
	C81.1,22,81,21.6,80.9,21.3z"/>
<g>
	<path class="st1" d="M8.3,24.4C8.3,24.4,8.3,24.3,8.3,24.4c-0.2,0-0.2-0.1-0.2-0.3l4.1-16.6c0-0.1,0.1-0.2,0.2-0.1
		c0.1,0,0.2,0.1,0.1,0.2l-4,16.6C8.5,24.3,8.4,24.4,8.3,24.4z"/>
	<path class="st1" d="M6.9,24.2L6.9,24.2c-0.1,0-0.1-0.1-0.1-0.1L11,7.6l0.1-0.1l0.1,0.1L6.9,24.2C7,24.2,6.9,24.2,6.9,24.2z"/>
	<path class="st1" d="M18.5,13.4C18.4,13.4,18.4,13.3,18.5,13.4L18.5,13.4c-0.1-0.1,0-0.2,0-0.2S18.5,13.2,18.5,13.4
		C18.5,13.3,18.5,13.4,18.5,13.4z"/>
	<path class="st1" d="M16.9,21.3L16.9,21.3L16.9,21.3l0.3-1.3c0,0,0,0,0.1,0c0,0,0,0,0,0.1L16.9,21.3C17,21.3,16.9,21.3,16.9,21.3z"
		/>
	<path class="st1" d="M17.7,21.3L17.7,21.3C17.6,21.3,17.6,21.3,17.7,21.3L18,20c0,0,0,0,0.1,0c0,0,0,0,0,0.1L17.7,21.3L17.7,21.3z"
		/>
	<path class="st1" d="M16.2,21.3C16.2,21.3,16.1,21.3,16.2,21.3C16.1,21.3,16.1,21.3,16.2,21.3l0.3-1.3c0,0,0,0,0.1,0c0,0,0,0,0,0.1
		L16.2,21.3L16.2,21.3z"/>
	<path class="st1" d="M15.4,21.3L15.4,21.3C15.4,21.3,15.3,21.3,15.4,21.3l0.3-1.3c0,0,0,0,0.1,0c0,0,0,0,0,0.1L15.4,21.3L15.4,21.3
		z"/>
	<path class="st1" d="M18.9,14.8C18.9,14.8,18.8,14.7,18.9,14.8L18.9,14.8c-0.1-0.1,0-0.2,0-0.2C19,14.6,19,14.6,18.9,14.8
		C19,14.7,19,14.8,18.9,14.8z"/>
	<path class="st1" d="M5.5,24.2L5.5,24.2c-0.1,0-0.1-0.1-0.1-0.1L9.6,7.6l0.1-0.1l0.1,0.1L5.5,24.2C5.6,24.2,5.6,24.2,5.5,24.2z"/>
	<path class="st1" d="M20.4,26H3.2c-0.3,0-0.5-0.2-0.5-0.5v-1c0-0.3,0.2-0.5,0.5-0.5h17.1c0.3,0,0.5,0.2,0.5,0.5v1
		C20.9,25.8,20.7,26,20.4,26z M3.2,24.4c-0.1,0-0.1,0.1-0.1,0.1v1c0,0.1,0.1,0.1,0.1,0.1h17.1c0.1,0,0.1-0.1,0.1-0.1v-1
		c0-0.1-0.1-0.1-0.1-0.1H3.2z"/>
	<path class="st1" d="M17.8,7.8H7.5c-0.3,0-0.6-0.3-0.6-0.6c0-0.3,0.3-0.6,0.6-0.6h10.3c0.3,0,0.6,0.3,0.6,0.6S18.1,7.8,17.8,7.8z
		 M7.5,7C7.3,7,7.3,7.1,7.3,7.2s0.1,0.2,0.2,0.2h10.3c0.1,0,0.2-0.1,0.2-0.2S17.9,7,17.8,7H7.5z"/>
	<path class="st1" d="M16.6,7c-0.1,0-0.2-0.1-0.2-0.2v-4C16.4,2.3,16,2,15.6,2H9.3C8.8,2,8.5,2.3,8.5,2.8v4C8.5,6.9,8.4,7,8.3,7
		S8.1,6.9,8.1,6.8v-4c0-0.7,0.5-1.2,1.2-1.2h6.3c0.7,0,1.2,0.5,1.2,1.2v4C16.8,6.9,16.7,7,16.6,7z"/>
	<path class="st1" d="M11.4,11.9c-0.1,0-0.2-0.1-0.2-0.2c0-0.1,0.1-0.2,0.2-0.2c2-0.2,3.6-1,4.4-2.2c0.6-0.9,0.6-1.7,0.6-1.7
		c0-0.1,0.1-0.2,0.2-0.2s0.2,0.1,0.2,0.2c0,0,0,0.9-0.7,1.9C15.5,10.4,14.2,11.6,11.4,11.9L11.4,11.9z"/>
	<path class="st1" d="M11.7,10.8C11.6,10.8,11.6,10.8,11.7,10.8c-0.1-0.1-0.1-0.2,0-0.2c2.9-0.6,3.8-2.1,4.1-3l0.1-0.1L16,7.6
		C15.6,8.6,14.6,10.2,11.7,10.8L11.7,10.8z"/>
	<path class="st1" d="M11.9,9.9C11.8,9.9,11.8,9.9,11.9,9.9c-0.1-0.1-0.1-0.2,0-0.2c1.6-0.6,2.4-1.5,2.7-2.2c0,0,0.1-0.1,0.1,0
		c0,0,0.1,0.1,0,0.1C14.4,8.3,13.6,9.3,11.9,9.9L11.9,9.9z"/>
	<path class="st1" d="M12.2,8.7C12.1,8.7,12.1,8.7,12.2,8.7c-0.1-0.1-0.1-0.1,0-0.2c0.5-0.3,0.9-0.6,1.2-1h0.1v0.1
		C13.1,8.1,12.7,8.4,12.2,8.7L12.2,8.7z"/>
	<path class="st1" d="M15.3,13.2c-1.4,0-1.4-1-1.4-1c0-0.1,0.1-0.2,0.2-0.2c0.1,0,0.2,0.1,0.2,0.2c0,0.1,0,0.6,1,0.6s1-0.6,1-0.6
		c0-0.1,0.1-0.2,0.2-0.2s0.2,0.1,0.2,0.2C16.8,12.2,16.8,13.2,15.3,13.2z"/>
	<path class="st1" d="M19.5,24.4H4.2c-0.1,0-0.1,0-0.2-0.1c0,0-0.1-0.1,0-0.2L8.1,7.5c0-0.1,0.1-0.2,0.2-0.2h8.3
		c0.1,0,0.2,0.1,0.2,0.1l3.9,11.8c0.1,0.2,0,0.4-0.1,0.6s-0.3,0.3-0.6,0.3h-1.7l0.3,1l0,0l1,2.9c0,0.1,0,0.1,0,0.2
		C19.6,24.3,19.5,24.4,19.5,24.4z M4.4,23.9h14.8l-0.8-2.5h-3.9c-0.1,0-0.2-0.1-0.2-0.2c0-0.5,0.2-1.4,1-1.4h2.8l0,0H20
		c0.1,0,0.2,0,0.2-0.1s0.1-0.2,0-0.3L16.4,7.8h-8L4.4,23.9z M14.7,21.1h3.5l-0.3-0.8h-2.6C14.9,20.2,14.8,20.7,14.7,21.1z"/>
	<path class="st1" d="M15.4,3c-0.1,0-0.3-0.1-0.3-0.3c0-0.1,0.1-0.3,0.3-0.3c0.1,0,0.3,0.1,0.3,0.3S15.6,3,15.4,3z M15.4,2.6
		c-0.1,0-0.1,0.1-0.1,0.1c0,0.1,0.1,0.1,0.1,0.1l0.1-0.1C15.6,2.7,15.5,2.6,15.4,2.6z"/>
	<path class="st1" d="M14.6,3h-1.2c-0.1,0-0.3-0.1-0.3-0.3c0-0.1,0.1-0.3,0.3-0.3h1.2c0.1,0,0.3,0.1,0.3,0.3C14.9,2.9,14.7,3,14.6,3
		z M13.4,2.6c-0.1,0-0.1,0.1-0.1,0.1c0,0.1,0.1,0.1,0.1,0.1h1.2c0.1,0,0.1-0.1,0.1-0.1c0-0.1-0.1-0.1-0.1-0.1H13.4z"/>
</g>
<g>
	<g>
		<path class="st1" d="M97.7,24.4L97.7,24.4c0.2,0,0.2-0.1,0.2-0.3L93.7,7.4c0-0.1-0.1-0.2-0.2-0.1c-0.1,0-0.2,0.1-0.1,0.2l4.2,16.7
			C97.5,24.3,97.6,24.4,97.7,24.4z"/>
		<path class="st1" d="M99.1,24.2L99.1,24.2c0.1,0,0.1-0.1,0.1-0.1L95,7.4l-0.1-0.1l-0.1,0.1L99.1,24.2C99,24.2,99.1,24.2,99.1,24.2
			z"/>
		<path class="st1" d="M87.4,13.3C87.5,13.3,87.5,13.2,87.4,13.3L87.4,13.3c0.1-0.1,0-0.2,0-0.2S87.4,13.1,87.4,13.3
			C87.4,13.2,87.4,13.3,87.4,13.3z"/>
		<path class="st1" d="M88.7,20"/>
		<path class="st1" d="M87.9,20"/>
		<path class="st1" d="M89.5,20"/>
		<path class="st1" d="M90.2,20"/>
		<path class="st1" d="M87,14.7C87,14.7,87.1,14.7,87,14.7L87,14.7c0.1-0.1,0-0.2,0-0.2C86.9,14.5,86.9,14.6,87,14.7
			C86.9,14.7,86.9,14.7,87,14.7z"/>
		<path class="st1" d="M100.5,24.2L100.5,24.2c0.1,0,0.1-0.1,0.1-0.1L96.4,7.4l-0.1-0.1l-0.1,0.1L100.5,24.2
			C100.4,24.2,100.5,24.2,100.5,24.2z"/>
		<path class="st1" d="M85,25.5v-1c0-0.3,0.2-0.5,0.5-0.5h17.3c0.3,0,0.5,0.2,0.5,0.5v1c0,0.3-0.2,0.5-0.5,0.5H85.5
			C85.2,26,85,25.8,85,25.5z M85.5,24.4c-0.1,0-0.1,0.1-0.1,0.1v1c0,0.1,0.1,0.1,0.1,0.1h17.3c0.1,0,0.1-0.1,0.1-0.1v-1
			c0-0.1-0.1-0.1-0.1-0.1H85.5z"/>
		<path class="st1" d="M94.6,11.8c0.1,0,0.2-0.1,0.2-0.2c0-0.1-0.1-0.2-0.2-0.2c-4.2-0.5-4.9-2.9-5-3.7c0-0.1-0.1-0.2-0.2-0.2
			s-0.2,0.1-0.2,0.2C89.3,8.5,90,11.3,94.6,11.8C94.5,11.8,94.5,11.8,94.6,11.8z"/>
		<path class="st1" d="M94.3,10.7C94.4,10.7,94.4,10.6,94.3,10.7c0.1-0.1,0.1-0.2,0-0.2c-2.9-0.6-3.8-2.2-4.1-3.1l-0.1-0.1L90,7.4
			C90.4,8.4,91.3,10.1,94.3,10.7L94.3,10.7z"/>
		<path class="st1" d="M94.1,9.8C94.1,9.8,94.2,9.7,94.1,9.8c0.1-0.1,0.1-0.2,0-0.2c-1.6-0.6-2.4-1.5-2.7-2.2c0,0-0.1-0.1-0.1,0
			c0,0-0.1,0.1,0,0.1C91.6,8.2,92.4,9.2,94.1,9.8L94.1,9.8z"/>
		<path class="st1" d="M93.8,8.6C93.8,8.6,93.9,8.6,93.8,8.6c0.1-0.1,0.1-0.1,0-0.2c-0.5-0.3-0.9-0.6-1.2-1.1h-0.1v0.1
			C92.8,7.9,93.2,8.3,93.8,8.6L93.8,8.6z"/>
		<path class="st1" d="M90.6,13.1c1.4,0,1.5-1,1.5-1c0-0.1-0.1-0.2-0.2-0.2s-0.2,0.1-0.2,0.2c0,0.1,0,0.6-1,0.6s-1-0.6-1-0.6
			c0-0.1-0.1-0.2-0.2-0.2s-0.2,0.1-0.2,0.2C89.2,12.1,89.2,13.1,90.6,13.1z"/>
		<path class="st1" d="M86.4,24.4h15.5c0.1,0,0.1,0,0.2-0.1c0,0,0.1-0.1,0-0.2L98.1,8c-0.1-0.5-0.5-0.8-1-0.8H90
			c-0.4,0-0.8,0.3-1,0.7l-3.8,11.3c-0.1,0.2,0,0.4,0.1,0.6s0.3,0.3,0.6,0.3h4.7c0.1,0,0.2-0.1,0.2-0.2s-0.1-0.2-0.2-0.2h-4.7
			c-0.1,0-0.2,0-0.2-0.1c-0.1-0.1-0.1-0.2,0-0.3L89.5,8c0.1-0.3,0.3-0.4,0.6-0.4h7.1c0.3,0,0.5,0.2,0.6,0.5l4,15.8H86.7l0.9-2.7
			c0-0.1,0-0.2-0.1-0.3c-0.1,0-0.2,0-0.3,0.1l-1,2.9c0,0.1,0,0.1,0,0.2C86.3,24.3,86.4,24.4,86.4,24.4z"/>
		<path class="st1" d="M87.4,21.4c0.1,0,0.2-0.1,0.2-0.1L88,20c0-0.1,0-0.2-0.1-0.3c-0.1,0-0.2,0-0.3,0.1l-0.4,1.3
			C87.2,21.3,87.2,21.4,87.4,21.4L87.4,21.4z"/>
		<path class="st1" d="M93.3,4.4c0-1.7,1.4-3.1,3.1-3.1s3.1,1.4,3.1,3.1s-1.4,3.1-3.1,3.1C94.7,7.6,93.3,6.2,93.3,4.4z M93.7,4.4
			c0,1.5,1.2,2.7,2.7,2.7s2.7-1.2,2.7-2.7s-1.2-2.7-2.7-2.7C94.9,1.7,93.7,2.9,93.7,4.4z"/>
		<path class="st1" d="M94.3,4.4c0-1.2,1-2.2,2.2-2.2s2.2,1,2.2,2.2s-1,2.2-2.2,2.2C95.2,6.6,94.3,5.6,94.3,4.4z M94.4,4.4
			c0,1.1,0.9,2,2,2s2-0.9,2-2s-0.9-2-2-2S94.4,3.3,94.4,4.4z"/>
		<path class="st1" d="M95.1,4.4c0-0.7,0.6-1.3,1.3-1.3c0.7,0,1.3,0.6,1.3,1.3s-0.6,1.3-1.3,1.3C95.7,5.8,95.1,5.2,95.1,4.4z
			 M95.3,4.4c0,0.6,0.5,1.2,1.2,1.2c0.6,0,1.2-0.5,1.2-1.2s-0.5-1.2-1.2-1.2C95.8,3.3,95.3,3.8,95.3,4.4z"/>
		<path class="st1" d="M96.4,4.6h5c0.1,0,0.2-0.1,0.2-0.2s-0.1-0.2-0.2-0.2h-5c-0.1,0-0.2,0.1-0.2,0.2C96.2,4.6,96.3,4.6,96.4,4.6z"
			/>
		<g>
			<path class="st1" d="M89.9,6c0-0.9,0.7-1.7,1.7-1.7S93.3,5,93.3,6s-0.7,1.7-1.7,1.7S89.9,6.9,89.9,6z M90.3,6
				c0,0.7,0.6,1.3,1.3,1.3c0.7,0,1.3-0.6,1.3-1.3s-0.6-1.3-1.3-1.3C90.8,4.7,90.3,5.3,90.3,6z"/>
			<path class="st1" d="M90.8,6c0-0.4,0.3-0.7,0.7-0.7c0.4,0,0.7,0.3,0.7,0.7s-0.3,0.7-0.7,0.7C91.1,6.7,90.8,6.4,90.8,6z M91,6
				c0,0.3,0.2,0.5,0.5,0.5S92,6.3,92,6s-0.2-0.5-0.5-0.5S91,5.7,91,6z"/>
			<path class="st1" d="M91.5,6.1C91.5,6.1,91.6,6.1,91.5,6.1l1.8-2.6c0-0.1,0-0.2,0-0.2c-0.1,0-0.2,0-0.2,0l-1.7,2.5
				C91.4,6,91.4,6.1,91.5,6.1L91.5,6.1z"/>
		</g>
	</g>
	<path class="st1" d="M92.5,14.4C92.5,14.4,92.6,14.4,92.5,14.4c0.1,0,0.1-0.1,0.1-0.1L92.1,13c0,0-0.1-0.1-0.1,0c0,0-0.1,0.1,0,0.1
		L92.5,14.4L92.5,14.4z"/>
	<path class="st1" d="M88.6,14.4C88.6,14.4,88.7,14.4,88.6,14.4l0.6-1.3V13h-0.1l-0.5,1.3C88.5,14.3,88.5,14.4,88.6,14.4L88.6,14.4z
		"/>
	<path class="st1" d="M90.6,14.4C90.6,14.4,90.7,14.4,90.6,14.4l0.1-1c0-0.1,0-0.1-0.1-0.1s-0.1,0-0.1,0.1L90.6,14.4
		C90.5,14.4,90.5,14.4,90.6,14.4z"/>
</g>
</svg>
