<?xml version="1.0" encoding="utf-8"?>
<!-- Generator: Adobe Illustrator 22.0.1, SVG Export Plug-In . SVG Version: 6.00 Build 0)  -->
<svg version="1.1" id="Calque_1" xmlns="http://www.w3.org/2000/svg" xmlns:xlink="http://www.w3.org/1999/xlink" x="0px" y="0px"
	 viewBox="0 0 113.8 65.2" style="enable-background:new 0 0 113.8 65.2;" xml:space="preserve">
<style type="text/css">
	.st0{fill:#C7D6F0;}
	.st1{enable-background:new    ;}
	.st2{fill:#020203;}
</style>
<g>
	<path class="st0" d="M101.6,64.9H11.9c-6.6,0-12-5.4-12-12V12.5c0-6.6,5.4-12,12-12h89.8c6.6,0,12,5.4,12,12v40.4
		C113.6,59.5,108.2,64.9,101.6,64.9z"/>
</g>
<g>
	<g class="st1">
		<path class="st2" d="M22.6,21.4h3.8l4.7,14.1l4.7-14.1h3.8L43,41.7h-3.7l-2.2-12.8l-4.3,12.8h-3.4l-4.3-12.8l-2.2,12.8h-3.8
			L22.6,21.4z"/>
		<path class="st2" d="M60.7,35.3H48.6c0.2,1.1,0.6,1.9,1.4,2.5c0.8,0.6,1.7,0.9,2.9,0.9c1.4,0,2.6-0.5,3.6-1.5l3.2,1.5
			c-0.8,1.1-1.7,1.9-2.8,2.5c-1.1,0.5-2.4,0.8-3.9,0.8c-2.4,0-4.3-0.7-5.7-2.2c-1.5-1.5-2.2-3.3-2.2-5.6c0-2.3,0.7-4.2,2.2-5.7
			c1.5-1.5,3.3-2.3,5.5-2.3c2.4,0,4.3,0.8,5.8,2.3c1.5,1.5,2.2,3.5,2.2,6L60.7,35.3z M56.9,32.3c-0.2-0.8-0.7-1.5-1.5-2
			c-0.7-0.5-1.6-0.8-2.5-0.8c-1,0-2,0.3-2.8,0.9c-0.5,0.4-1,1-1.4,1.9H56.9z"/>
		<path class="st2" d="M63.7,26.7h3.8v1.5c0.9-0.7,1.6-1.2,2.3-1.5s1.4-0.4,2.1-0.4c1.5,0,2.7,0.5,3.8,1.6c0.9,0.9,1.3,2.2,1.3,3.9
			v9.9h-3.7v-6.6c0-1.8-0.1-3-0.2-3.6s-0.4-1-0.8-1.3c-0.4-0.3-0.9-0.5-1.5-0.5c-0.8,0-1.4,0.3-2,0.8c-0.5,0.5-0.9,1.2-1.1,2.1
			c-0.1,0.5-0.2,1.5-0.2,3v6h-3.8V26.7z"/>
		<path class="st2" d="M80.6,26.7h3.8v7.2c0,1.4,0.1,2.4,0.3,2.9c0.2,0.5,0.5,1,0.9,1.3c0.4,0.3,1,0.5,1.6,0.5s1.2-0.1,1.6-0.4
			c0.4-0.3,0.8-0.7,1-1.3C90,36.4,90,35.4,90,34v-7.3h3.8V33c0,2.6-0.2,4.4-0.6,5.4c-0.5,1.2-1.2,2.1-2.2,2.7
			c-1,0.6-2.2,0.9-3.7,0.9c-1.6,0-3-0.4-4-1.1c-1-0.7-1.7-1.8-2.1-3.1c-0.3-0.9-0.4-2.6-0.4-5V26.7z"/>
	</g>
</g>
</svg>
